<svg width="40" height="40" viewBox="0 0 40 40" fill="none" xmlns="http://www.w3.org/2000/svg">
<path d="M23.5048 10.1203C23.5259 10.014 23.5348 9.9062 23.5312 9.79786C23.5291 9.55738 23.4572 9.3222 23.3251 9.12131C22.9341 9.03141 22.5377 8.96276 22.1361 8.90988C21.0965 8.76187 20.0443 8.72446 18.9968 8.79897C14.5 9.79784 14.3752 9.79786 12.75 10.5905C7.35456 13.5041 4.21112 19.3492 4.75388 25.457C4.86854 26.8132 5.16925 28.1465 5.64702 29.4207C5.84041 29.9445 6.06449 30.4561 6.31818 30.9534C6.33935 30.9957 6.36044 31.0433 6.3816 31.0856C7.67644 27.5658 10.3718 27.9516 12.3483 28.237L12.3627 28.239C13.3034 28.3704 14.1896 28.4942 14.5892 28.1471C14.9063 27.7476 15.0473 27.2365 14.9803 26.7308C14.9803 24.3296 14.2162 23.8202 13.2509 23.1768L13.2468 23.174L13.2446 23.1725C12.2093 22.4806 11.0374 21.6975 10.7575 18.8562C10.3774 15.0812 12.814 14.7716 15.3904 14.4443L15.3977 14.4434L15.398 14.4433C16.9992 14.2425 18.8119 14.0152 20.5347 13.0587C22.7596 11.822 23.3779 10.7756 23.5048 10.1203Z" fill="#6246EC"/>
<path d="M15.1271 37.4295C14.4934 37.6092 13.8466 37.7381 13.1928 37.8152C12.5359 37.4881 11.9033 37.1139 11.3008 36.6948C11.3642 36.6604 11.4186 36.6113 11.4593 36.5521C11.4857 36.5204 14.0225 33.0324 17.4471 32.5408C18.2531 32.4341 19.0659 32.3955 19.8782 32.4245C21.9763 32.4509 23.1125 32.3135 23.9476 28.9734C24.1484 28.1807 24.4443 27.7156 24.8619 27.5518C25.5754 27.2717 26.738 27.7632 28.1544 28.5876C24.5713 32.7893 19.7726 36.1875 15.1271 37.4295Z" fill="#6246EC"/>
<path d="M33.2599 31.8064C30.3315 36.8292 24.8135 39.7629 19.0117 39.3819C23.6456 37.372 27.7092 34.2454 30.8394 30.2812C31.6163 30.7758 32.4143 31.2958 33.2599 31.8064Z" fill="#6246EC"/>
<path d="M33.7799 17.343C33.7021 18.0993 33.5373 18.8439 33.2889 19.5626C32.3398 22.5545 30.8298 25.338 28.839 27.7649C27.0686 26.7185 25.6099 26.1266 24.4789 26.5705C23.7178 26.8665 23.2105 27.5693 22.9251 28.7215C22.254 31.401 21.7096 31.3903 19.8969 31.3692C19.0302 31.3402 18.1619 31.3824 17.302 31.4961C13.4229 32.051 10.717 35.7821 10.606 35.9407C10.5664 35.9946 10.5373 36.0554 10.5214 36.1204C9.16159 35.0508 7.99415 33.757 7.07031 32.2941C7.13905 32.0668 7.21832 31.8766 7.26058 31.7656C7.29229 31.6969 7.30814 31.66 7.30814 31.66C8.28587 28.7268 10.1884 28.9963 12.202 29.287C13.3911 29.4561 14.5168 29.62 15.2831 28.9488C15.7905 28.5101 16.0389 27.7861 16.0389 26.7344C16.0389 23.7643 14.8709 22.9821 13.835 22.295C12.9154 21.682 12.0435 21.1006 11.8109 18.7541C11.5414 16.1063 12.6882 15.8579 15.5315 15.4986C17.1434 15.2925 19.1464 15.0441 21.0543 13.9818C23.1471 12.8191 24.3256 11.5718 24.5529 10.2823C24.5625 10.2353 24.5699 10.1877 24.5741 10.1396C24.6026 9.90973 24.5989 9.67666 24.5636 9.44727C25.1486 9.63011 25.722 9.84678 26.2812 10.0973H26.2865C29.5519 11.5655 32.2024 14.1287 33.7799 17.343Z" fill="#6246EC"/>
<path d="M35.343 24.0899C35.3483 26.4428 34.8077 28.7645 33.7633 30.8726C32.9759 30.3969 32.2254 29.916 31.4961 29.4404C33.0013 27.4728 34.2797 25.3419 35.3066 23.0879C35.3325 23.4209 35.343 23.7517 35.343 24.0899Z" fill="#6246EC"/>
<path d="M24.9374 8.46374C25.4457 8.61909 25.9452 8.80248 26.433 9.01337C32.1249 8.05681 35.6711 12.4063 34.7832 17.8075C33.1502 26.9029 24.1023 36.0247 15.398 38.4557C12.4015 39.3383 8.63328 39.0635 6.89457 37.1292C5.46765 35.7392 4.91271 33.3135 5.21928 31.1149C4.89108 30.4416 4.61521 29.7435 4.3948 29.0274C2.99959 34.418 5.37252 40.0835 11.8994 39.999C22.3689 39.3383 31.9663 30.0844 35.3276 20.1276C37.9061 11.77 32.6476 6.29693 24.9374 8.46374Z" fill="#6246EC"/>
</svg>
