<svg width="38" height="40" viewBox="0 0 38 40" fill="none" xmlns="http://www.w3.org/2000/svg">
<path d="M19.8848 19.6611V28.5888L27.6164 24.125V15.1973L19.8848 19.6611Z" fill="#6246EC"/>
<path d="M10.9805 13.167L18.7121 17.6309L26.4437 13.167L18.7121 8.70312L10.9805 13.167Z" fill="#6246EC"/>
<path d="M17.5402 19.6611L9.80859 15.1973V24.125L17.5402 28.5888V19.6611Z" fill="#6246EC"/>
<path d="M34.0041 6.71516C33.1614 6.71516 32.3895 7.02195 31.7925 7.52891L18.7521 0L5.66469 7.55602C5.06359 7.03297 4.27937 6.71516 3.42187 6.71516C1.535 6.71516 0 8.25016 0 10.137C0 11.6407 0.975391 12.9201 2.32641 13.378V28.45L15.2812 35.9295C15.2408 36.1396 15.2188 36.3563 15.2188 36.578C15.2188 38.4648 16.7538 39.9998 18.6407 39.9998C20.5275 39.9998 22.0625 38.4648 22.0625 36.578C22.0625 36.3971 22.0481 36.2195 22.0209 36.046L35.1777 28.4499V13.3515C36.4882 12.8715 37.4259 11.6117 37.4259 10.137C37.4259 8.25023 35.8909 6.71516 34.0041 6.71516ZM32.8304 27.0948L20.8802 33.9943C20.2795 33.473 19.4966 33.1563 18.6406 33.1563C17.8272 33.1563 17.0795 33.4421 16.4916 33.9179L4.67383 27.0948V13.3206C5.94297 12.8198 6.84367 11.582 6.84367 10.137C6.84367 9.95758 6.82961 9.78141 6.80289 9.60938L18.7521 2.71047L30.6303 9.56836C30.5992 9.75344 30.5822 9.9432 30.5822 10.137C30.5822 11.6117 31.5199 12.8715 32.8304 13.3515V27.0948Z" fill="#6246EC"/>
</svg>
