<svg width="40" height="40" viewBox="0 0 40 40" fill="none" xmlns="http://www.w3.org/2000/svg">
<g clip-path="url(#clip0_922_10934)">
<path d="M39.5772 27.4055L35.7872 23.6152L27.9469 31.4555C26.5474 32.855 24.7908 33.7675 22.8828 34.109L27.8782 39.1044C28.3357 39.5622 29.0779 39.5622 29.5353 39.1044L39.5772 29.0629C40.0349 28.6052 40.0349 27.863 39.5772 27.4055Z" fill="#6246EC"/>
<path d="M34.2447 21.8451C35.5658 20.5243 35.5661 18.3749 34.2465 17.0532C34.245 17.0517 34.2435 17.0501 34.242 17.0486C33.9154 16.7224 33.534 16.4709 33.1186 16.3028C33.4787 15.3918 33.5547 13.8513 32.3618 12.658C32.3587 12.655 32.3557 12.6516 32.3523 12.6486C32.0273 12.3257 31.6483 12.0767 31.2357 11.9094C31.5958 10.9991 31.6721 9.45827 30.4798 8.26564C30.4788 8.26473 30.4782 8.26412 30.4776 8.26351C30.1508 7.93666 29.769 7.68459 29.353 7.51644C29.7132 6.60549 29.7891 5.06465 28.5962 3.87141C28.5959 3.87141 28.5959 3.87111 28.5956 3.87111C28.5953 3.8708 28.595 3.8705 28.5947 3.87019C27.273 2.54848 25.1227 2.54848 23.801 3.87019L21.579 6.09188L22.7152 7.22805C24.6085 9.12136 24.6085 12.2018 22.7155 14.0951C22.0783 14.732 21.2955 15.1696 20.4422 15.3781C20.2381 16.21 19.812 16.9986 19.1629 17.6474C18.5266 18.2837 17.7451 18.721 16.8927 18.9297C16.6843 19.7818 16.2467 20.5636 15.6107 21.1996C14.9744 21.8359 14.1928 22.2732 13.3405 22.482C13.132 23.334 12.6944 24.1159 12.0584 24.7522C11.1414 25.6689 9.92188 26.1743 8.62488 26.1743C7.32789 26.1743 6.1084 25.6692 5.19135 24.7519L4.05518 23.6157L0.265198 27.406C-0.192566 27.8637 -0.192566 28.6056 0.265198 29.0634L10.3067 39.1049C10.7645 39.5627 11.5064 39.5624 11.9641 39.1049L19.1522 31.9171H21.1774C23.1091 31.9171 24.9252 31.1645 26.2912 29.7989L34.2447 21.8451Z" fill="#6246EC"/>
<path d="M6.84854 23.0941C7.82938 24.0752 9.41996 24.0752 10.4008 23.0941C11.3819 22.1133 11.3819 20.523 10.4008 19.5419C11.3819 20.523 12.9722 20.523 13.9533 19.5419C14.9342 18.561 14.9342 16.9704 13.9533 15.9896C14.9342 16.9704 16.5248 16.9704 17.5056 15.9896C18.4864 15.0088 18.4864 13.4182 17.5056 12.4374C18.4864 13.4182 20.077 13.4182 21.0578 12.4374C22.039 11.4562 22.039 9.86594 21.0578 8.8848L16.0493 3.87625C15.0685 2.89542 13.4779 2.89542 12.497 3.87625C11.5162 4.85709 11.5162 6.44766 12.497 7.4285L13.1245 8.05625C12.1437 7.07511 10.5531 7.07511 9.57224 8.05625C8.5914 9.03708 8.5914 10.6277 9.57224 11.6085L10.8274 12.8637C9.84659 11.8828 8.25601 11.8828 7.27518 12.8637C6.29404 13.8445 6.29404 15.4351 7.27518 16.4159L8.53037 17.6714C7.54923 16.6903 5.95896 16.6903 4.97781 17.6714C3.99698 18.6523 3.99698 20.2425 4.97781 21.2237L6.84854 23.0941Z" fill="#6246EC"/>
<path d="M22.1427 2.21248C22.316 2.03914 22.4995 1.87983 22.6902 1.73182L22.0048 1.0464C21.6483 0.689648 21.103 0.601452 20.6522 0.826672L17.7598 2.2729L19.921 4.43446L22.1427 2.21248Z" fill="#6246EC"/>
</g>
<defs>
<clipPath id="clip0_922_10934">
<rect width="40" height="40" fill="white"/>
</clipPath>
</defs>
</svg>
