<svg width="40" height="40" viewBox="0 0 40 40" fill="none" xmlns="http://www.w3.org/2000/svg">
<path fill-rule="evenodd" clip-rule="evenodd" d="M31.868 19.7168C32.1929 19.7028 32.5157 19.7752 32.8034 19.9267C33.0911 20.0782 33.3335 20.3033 33.5058 20.5791C33.5216 20.6037 33.5442 20.6231 33.5709 20.6349C33.5976 20.6468 33.6271 20.6505 33.6559 20.6457C33.6847 20.641 33.7115 20.6279 33.7329 20.608C33.7544 20.5882 33.7695 20.5626 33.7765 20.5342L34.9492 15.8105C35.159 14.9474 34.1403 14.2131 33.3662 14.7226C33.121 14.8894 32.944 15.1388 32.8675 15.4252L31.7176 19.5268C31.7112 19.5495 31.7102 19.5735 31.7148 19.5967C31.7194 19.6199 31.7295 19.6417 31.7442 19.6602C31.7589 19.6788 31.7778 19.6935 31.7993 19.7033C31.8209 19.7131 31.8444 19.7177 31.868 19.7166V19.7168ZM33.2821 23.1002C33.5183 22.9044 33.5671 22.7314 33.646 22.6877C33.781 22.6131 34.1576 22.2208 34.2034 22.0959L36.9934 14.4927C37.2163 13.8853 37.6809 13.5701 38.3261 13.6226C38.784 13.6598 39.2955 14.2654 39.0968 14.8066L36.3062 22.4116C36.1666 22.7918 35.9909 23.5622 35.7341 23.8273C33.5182 26.1099 31.4943 27.828 29.2376 30.3649C28.8162 30.8385 28.1315 35.4805 27.8563 36.6684C27.8338 36.7656 28.3543 36.948 28.1298 36.8959L20.51 35.1303C20.4724 35.1216 20.4397 35.0987 20.4186 35.0664C20.3975 35.0341 20.3897 34.9949 20.3968 34.957C20.8015 32.7995 21.3875 27.7938 22.2976 27.0747C22.3246 27.0533 22.3488 27.0286 22.3694 27.001L22.3705 27.0018C23.665 25.2711 24.5195 24.5604 26.4753 23.773C27.4814 23.3679 28.5176 22.9507 31.2613 20.7473C32.0094 20.1467 33.0859 20.7119 33.0616 21.8004C33.0649 21.9308 33.0401 22.0605 32.9891 22.1806C32.938 22.3007 32.8619 22.4084 32.7657 22.4966L28.8204 25.7531C27.9837 26.2766 27.7311 27.1744 27.2212 27.8505C27.1588 27.9345 27.1322 28.0397 27.1471 28.1432C27.162 28.2467 27.2172 28.3402 27.3006 28.4032C27.3841 28.4662 27.4891 28.4937 27.5927 28.4797C27.6964 28.4656 27.7903 28.4112 27.854 28.3283C28.3339 27.6919 28.6441 26.7886 29.2518 26.4169L33.2826 23.1001L33.2821 23.1002ZM20.1299 6.5643C20.1169 6.58725 20.098 6.60634 20.0752 6.61962C20.0524 6.63291 20.0265 6.6399 20.0001 6.6399C19.9737 6.6399 19.9477 6.63291 19.9249 6.61962C19.9021 6.60634 19.8832 6.58725 19.8702 6.5643C18.6151 4.36664 17.1536 3.09375 14.4558 3.09375C12.8802 3.09433 11.3693 3.72048 10.2552 4.83459C9.14109 5.94869 8.51494 7.45958 8.51436 9.03516C8.51436 11.9001 9.64952 14.5606 11.6383 17.2602C13.6733 20.0222 16.5098 22.7228 19.9007 25.7381C19.928 25.7626 19.9634 25.7761 20.0001 25.7761C20.0367 25.7761 20.0721 25.7626 20.0994 25.7381C23.4896 22.7239 26.3279 20.0209 28.3618 17.2602C30.3507 14.5606 31.4858 11.9001 31.4858 9.03516C31.4852 7.45959 30.859 5.94872 29.745 4.83462C28.6309 3.72051 27.12 3.09435 25.5444 3.09375C22.8465 3.09375 21.3851 4.36664 20.1299 6.5643ZM6.75233 23.1291C6.75452 23.1306 6.75639 23.1321 6.7585 23.1338L10.7485 26.417C11.362 26.7957 11.6632 27.6872 12.1469 28.3284C12.2106 28.4113 12.3045 28.4657 12.4082 28.4797C12.5118 28.4938 12.6168 28.4663 12.7003 28.4033C12.7837 28.3402 12.8389 28.2468 12.8538 28.1433C12.8687 28.0397 12.8421 27.9345 12.7797 27.8505C12.2697 27.1745 12.0172 26.2763 11.1805 25.7532L7.25663 22.5188L7.09178 22.333C6.99803 22.2331 6.94256 21.9604 6.93897 21.8004C6.91467 20.7117 7.99131 20.1468 8.73928 20.7473C11.483 22.9505 12.5192 23.3679 13.5253 23.773C15.481 24.5603 16.3357 25.2711 17.6301 27.0018L17.6312 27.001C17.6518 27.0286 17.676 27.0534 17.703 27.0747C18.6133 27.7939 19.199 32.7995 19.6038 34.957C19.6109 34.9949 19.6031 35.0341 19.582 35.0664C19.5609 35.0987 19.5282 35.1216 19.4906 35.1303L11.8708 36.8959C11.6462 36.948 12.1665 36.7657 12.1443 36.6686C11.869 35.4811 11.1845 30.8387 10.7631 30.3649C8.51866 27.8422 6.48256 26.1055 4.26584 23.8276C4.00983 23.5645 3.83256 22.7901 3.69381 22.4118L0.903187 14.8068C0.705843 14.2691 1.21272 13.6602 1.67381 13.6227C2.31905 13.5702 2.78358 13.8855 3.00655 14.4929L5.79709 22.0959C5.85123 22.2412 6.11022 22.474 6.24905 22.6092C6.28953 22.6489 6.33658 22.6812 6.38811 22.7048C6.48505 22.8656 6.60827 23.009 6.75264 23.1291H6.75233ZM7.88006 19.7244C8.07444 19.7057 8.18647 19.7487 8.25608 19.6605C8.27095 19.6422 8.28113 19.6206 8.28576 19.5974C8.29039 19.5743 8.28932 19.5504 8.28264 19.5277L7.13303 15.4252C6.85748 14.4422 5.71608 14.2592 5.18561 15.0502C5.11206 15.1609 5.06217 15.2855 5.03906 15.4163C5.01595 15.5471 5.02012 15.6813 5.05131 15.8105L6.22373 20.5336C6.23077 20.562 6.24596 20.5876 6.26743 20.6074C6.2889 20.6273 6.31571 20.6404 6.34454 20.6451C6.37337 20.6499 6.40296 20.6461 6.42965 20.6342C6.45635 20.6223 6.47898 20.6029 6.49475 20.5783C6.64427 20.3388 6.84709 20.1372 7.0874 19.9891C7.3277 19.841 7.59898 19.7504 7.88006 19.7244Z" fill="#6246EC"/>
</svg>
