<svg width="40" height="40" viewBox="0 0 40 40" fill="none" xmlns="http://www.w3.org/2000/svg">
<g clip-path="url(#clip0_922_10966)">
<path d="M26.2333 0C23.1333 0 20.2833 1.28333 18.3333 3.45C16.3833 1.28333 13.5333 0 10.4333 0C4.68333 0 0 4.48333 0 10C0 24.1167 16.7667 34.3333 17.4833 34.7667C17.7333 34.9167 18.0333 35 18.3333 35C18.4833 35 18.6167 34.9833 18.7667 34.9333C17.5 32.8333 16.6667 30.3833 16.6667 27.5833V20.9C16.6667 18.9333 17.9167 17.1833 19.7833 16.55L28.5167 13.5833C29.4667 13.25 30.5333 13.25 31.4833 13.5833L35.95 15.1C36.4 13.4667 36.6667 11.7667 36.6667 10C36.6667 4.48333 31.9833 0 26.2333 0Z" fill="#6246EC"/>
<path d="M39.1517 19.7102L30.4017 16.7335C30.1417 16.6435 29.8583 16.6435 29.5983 16.7335L20.8483 19.7102C20.34 19.8818 20 20.3568 20 20.8935V27.5902C20 35.7635 29.1233 39.7368 29.5117 39.9018C29.825 40.0335 30.175 40.0335 30.4883 39.9018C30.8767 39.7352 40 35.7635 40 27.5902V20.8935C40 20.3568 39.66 19.8818 39.1517 19.7102ZM35.4767 26.0302L30.8933 31.8635C30.31 32.6085 29.2167 32.7169 28.4983 32.1002L25.5817 29.6002C24.8817 29.0019 24.8 27.9485 25.4017 27.2502C26 26.5519 27.0533 26.4719 27.75 27.0702L29.3467 28.4385L32.855 23.9735C33.4233 23.2502 34.47 23.1218 35.195 23.6935C35.92 24.2585 36.0467 25.3068 35.4767 26.0302Z" fill="#6246EC"/>
</g>
<defs>
<clipPath id="clip0_922_10966">
<rect width="40" height="40" fill="white"/>
</clipPath>
</defs>
</svg>
