<svg width="40" height="40" viewBox="0 0 40 40" fill="none" xmlns="http://www.w3.org/2000/svg">
<path d="M20.0003 1.33204C17.9776 1.32959 15.9679 1.65653 14.0503 2.30004C13.8893 2.3547 13.7547 2.46777 13.6731 2.6169C13.5915 2.76603 13.5689 2.94034 13.6096 3.10538C13.6312 3.19305 13.6709 3.27522 13.7263 3.34654C13.7816 3.41787 13.8514 3.47675 13.931 3.51938C14.015 3.5652 14.1077 3.59296 14.2031 3.60089C14.2985 3.60881 14.3945 3.59671 14.485 3.56538C18.068 2.36039 21.9468 2.36012 25.53 3.5646C29.1132 4.76909 32.2043 7.11225 34.332 10.2369C36.4596 13.3615 37.5072 17.0961 37.3149 20.8715C37.1226 24.6468 35.7011 28.2557 33.267 31.148C33.2074 31.2188 33.1338 31.2763 33.0509 31.3171C32.9679 31.3578 32.8773 31.3808 32.785 31.3847C32.6926 31.3895 32.6003 31.3746 32.5141 31.341C32.4279 31.3075 32.3498 31.256 32.285 31.19L31.865 30.77L31.355 33.98L34.565 33.47L34.1783 33.0834C34.0592 32.9642 33.9897 32.8045 33.9836 32.6361C33.9776 32.4678 34.0355 32.3034 34.1456 32.176C36.4783 29.4685 37.9845 26.1482 38.4852 22.6097C38.986 19.0713 38.4602 15.4634 36.9705 12.215C35.4807 8.96653 33.0896 6.21414 30.0813 4.28493C27.073 2.35573 23.5741 1.33082 20.0003 1.33204Z" fill="#6246EC"/>
<path d="M20.0013 21.3346C20.7377 21.3346 21.3346 20.7377 21.3346 20.0013C21.3346 19.2649 20.7377 18.668 20.0013 18.668C19.2649 18.668 18.668 19.2649 18.668 20.0013C18.668 20.7377 19.2649 21.3346 20.0013 21.3346Z" fill="#6246EC"/>
<path d="M19.9991 38.6675C22.0219 38.67 24.0315 38.343 25.9491 37.6995C26.1101 37.6449 26.2447 37.5318 26.3263 37.3827C26.4079 37.2336 26.4305 37.0592 26.3898 36.8942C26.3682 36.8065 26.3285 36.7244 26.2731 36.653C26.2178 36.5817 26.1481 36.5228 26.0685 36.4802C25.9844 36.4344 25.8917 36.4066 25.7963 36.3987C25.7009 36.3908 25.6049 36.4029 25.5145 36.4342C21.9314 37.6392 18.0526 37.6395 14.4694 36.435C10.8862 35.2305 7.79514 32.8873 5.66748 29.7627C3.53981 26.6381 2.49227 22.9034 2.68455 19.1281C2.87682 15.3527 4.29836 11.7438 6.73246 8.85153C6.79201 8.78082 6.8656 8.72327 6.94858 8.68252C7.03156 8.64178 7.1221 8.61874 7.21446 8.61486C7.30666 8.61159 7.39856 8.62716 7.48454 8.66063C7.57051 8.6941 7.64875 8.74477 7.71446 8.80953L8.13446 9.22953L8.64446 6.01953L5.43446 6.52953L5.82113 6.9162C5.94018 7.03534 6.00973 7.19513 6.01579 7.36344C6.02185 7.53176 5.96397 7.69614 5.8538 7.82353C3.52117 10.531 2.01497 13.8513 1.51421 17.3898C1.01345 20.9283 1.53919 24.5362 3.02895 27.7846C4.51871 31.033 6.90984 33.7854 9.91813 35.7146C12.9264 37.6439 16.4254 38.6688 19.9991 38.6675Z" fill="#6246EC"/>
<path d="M8.59184 10.6032C8.3751 10.6745 8.14295 10.6846 7.92081 10.6327C7.69868 10.5807 7.49514 10.4686 7.3325 10.3086L7.29984 10.2759C4.89636 13.4019 3.73279 17.3057 4.03266 21.2374C4.33253 25.1692 6.07469 28.8514 8.92444 31.5767C11.7742 34.302 15.5305 35.8781 19.4717 36.0023C23.4128 36.1264 27.2609 34.7898 30.2765 32.2492L30.5738 30.3746C30.6097 30.1499 30.7068 29.9395 30.8545 29.7665C31.0021 29.5934 31.1946 29.4644 31.4108 29.3936C31.627 29.3229 31.8586 29.3131 32.08 29.3654C32.3014 29.4176 32.5041 29.5299 32.6658 29.6899L32.6985 29.7226C35.102 26.5966 36.2656 22.6928 35.9657 18.761C35.6658 14.8293 33.9237 11.1471 31.0739 8.42178C28.2242 5.69648 24.4679 4.12035 20.5267 3.99621C16.5855 3.87208 12.7374 5.20868 9.72183 7.74924L9.4245 9.62457C9.38912 9.8485 9.29268 10.0583 9.14578 10.231C8.99887 10.4036 8.8072 10.5325 8.59184 10.6032ZM7.3325 20.6659H6.66584C6.48902 20.6659 6.31945 20.5957 6.19443 20.4706C6.06941 20.3456 5.99917 20.1761 5.99917 19.9992C5.99917 19.8224 6.06941 19.6529 6.19443 19.5278C6.31945 19.4028 6.48902 19.3326 6.66584 19.3326H7.3325C7.50931 19.3326 7.67888 19.4028 7.80391 19.5278C7.92893 19.6529 7.99917 19.8224 7.99917 19.9992C7.99917 20.1761 7.92893 20.3456 7.80391 20.4706C7.67888 20.5957 7.50931 20.6659 7.3325 20.6659ZM32.6658 19.3326H33.3325C33.5093 19.3326 33.6789 19.4028 33.8039 19.5278C33.9289 19.6529 33.9992 19.8224 33.9992 19.9992C33.9992 20.1761 33.9289 20.3456 33.8039 20.4706C33.6789 20.5957 33.5093 20.6659 33.3325 20.6659H32.6658C32.489 20.6659 32.3195 20.5957 32.1944 20.4706C32.0694 20.3456 31.9992 20.1761 31.9992 19.9992C31.9992 19.8224 32.0694 19.6529 32.1944 19.5278C32.3195 19.4028 32.489 19.3326 32.6658 19.3326ZM28.4845 10.5712L28.9565 10.0992C29.018 10.0356 29.0916 9.98478 29.1729 9.94984C29.2542 9.9149 29.3417 9.89651 29.4302 9.89574C29.5188 9.89497 29.6065 9.91184 29.6885 9.94536C29.7704 9.97888 29.8448 10.0284 29.9074 10.091C29.97 10.1536 30.0195 10.228 30.0531 10.3099C30.0866 10.3919 30.1034 10.4797 30.1027 10.5682C30.1019 10.6567 30.0835 10.7442 30.0486 10.8255C30.0136 10.9068 29.9628 10.9804 29.8992 11.0419L29.4272 11.5139C29.3014 11.6353 29.133 11.7025 28.9582 11.701C28.7834 11.6995 28.6162 11.6294 28.4926 11.5058C28.369 11.3822 28.2989 11.215 28.2974 11.0402C28.2959 10.8654 28.3631 10.697 28.4845 10.5712ZM28.4845 28.4846C28.6095 28.3596 28.7791 28.2894 28.9558 28.2894C29.1326 28.2894 29.3022 28.3596 29.4272 28.4846L29.8992 28.9566C29.9628 29.0181 30.0136 29.0916 30.0486 29.173C30.0835 29.2543 30.1019 29.3418 30.1027 29.4303C30.1034 29.5188 30.0866 29.6066 30.0531 29.6885C30.0195 29.7705 29.97 29.8449 29.9074 29.9075C29.8448 29.9701 29.7704 30.0196 29.6885 30.0531C29.6065 30.0866 29.5188 30.1035 29.4302 30.1027C29.3417 30.102 29.2542 30.0836 29.1729 30.0486C29.0916 30.0137 29.018 29.9629 28.9565 29.8992L28.4845 29.4272C28.3595 29.3022 28.2893 29.1327 28.2893 28.9559C28.2893 28.7791 28.3595 28.6096 28.4845 28.4846ZM20.6658 33.3326C20.6658 33.5094 20.5956 33.679 20.4706 33.804C20.3456 33.929 20.176 33.9992 19.9992 33.9992C19.8224 33.9992 19.6528 33.929 19.5278 33.804C19.4027 33.679 19.3325 33.5094 19.3325 33.3326V32.6659C19.3325 32.4891 19.4027 32.3195 19.5278 32.1945C19.6528 32.0695 19.8224 31.9992 19.9992 31.9992C20.176 31.9992 20.3456 32.0695 20.4706 32.1945C20.5956 32.3195 20.6658 32.4891 20.6658 32.6659V33.3326ZM19.3325 6.66591C19.3325 6.4891 19.4027 6.31953 19.5278 6.1945C19.6528 6.06948 19.8224 5.99924 19.9992 5.99924C20.176 5.99924 20.3456 6.06948 20.4706 6.1945C20.5956 6.31953 20.6658 6.4891 20.6658 6.66591V7.33258C20.6658 7.50939 20.5956 7.67896 20.4706 7.80398C20.3456 7.929 20.176 7.99924 19.9992 7.99924C19.8224 7.99924 19.6528 7.929 19.5278 7.80398C19.4027 7.67896 19.3325 7.50939 19.3325 7.33258V6.66591ZM19.3325 17.4272V10.6659C19.3325 10.4891 19.4027 10.3195 19.5278 10.1945C19.6528 10.0695 19.8224 9.99924 19.9992 9.99924C20.176 9.99924 20.3456 10.0695 20.4706 10.1945C20.5956 10.3195 20.6658 10.4891 20.6658 10.6659V17.4272C21.3321 17.595 21.907 18.0153 22.269 18.5993C22.6309 19.1834 22.7515 19.8853 22.6052 20.5566L24.2972 21.3992C24.4554 21.4783 24.5758 21.6169 24.6318 21.7847C24.6878 21.9525 24.6749 22.1357 24.5958 22.2939C24.5168 22.4522 24.3781 22.5725 24.2104 22.6285C24.0426 22.6845 23.8594 22.6716 23.7012 22.5926L21.9992 21.7446C21.726 22.0598 21.3824 22.3063 20.9963 22.4642C20.6102 22.6221 20.1923 22.6869 19.7765 22.6534C19.3607 22.6199 18.9587 22.489 18.6028 22.2714C18.247 22.0537 17.9473 21.7554 17.7281 21.4004C17.5089 21.0455 17.3763 20.644 17.3409 20.2284C17.3056 19.8127 17.3686 19.3946 17.5248 19.0078C17.681 18.621 17.926 18.2764 18.24 18.0018C18.5541 17.7272 18.9283 17.5304 19.3325 17.4272ZM10.0992 10.0992C10.2242 9.97426 10.3937 9.90405 10.5705 9.90405C10.7473 9.90405 10.9168 9.97426 11.0418 10.0992L11.5138 10.5712C11.5775 10.6327 11.6283 10.7063 11.6632 10.7876C11.6982 10.869 11.7166 10.9565 11.7173 11.045C11.7181 11.1335 11.7012 11.2213 11.6677 11.3032C11.6342 11.3851 11.5847 11.4596 11.5221 11.5222C11.4595 11.5848 11.3851 11.6343 11.3031 11.6678C11.2212 11.7013 11.1334 11.7182 11.0449 11.7174C10.9564 11.7166 10.8689 11.6982 10.7876 11.6633C10.7062 11.6284 10.6327 11.5776 10.5712 11.5139L10.0992 11.0419C9.97419 10.9169 9.90398 10.7474 9.90398 10.5706C9.90398 10.3938 9.97419 10.2243 10.0992 10.0992ZM10.0992 28.9566L10.5712 28.4846C10.6969 28.3631 10.8653 28.2959 11.0401 28.2975C11.2149 28.299 11.3821 28.3691 11.5057 28.4927C11.6293 28.6163 11.6994 28.7835 11.701 28.9583C11.7025 29.1331 11.6353 29.3015 11.5138 29.4272L11.0418 29.8992C10.9803 29.9629 10.9068 30.0137 10.8254 30.0486C10.7441 30.0836 10.6566 30.102 10.5681 30.1027C10.4796 30.1035 10.3918 30.0866 10.3099 30.0531C10.2279 30.0196 10.1535 29.9701 10.0909 29.9075C10.0283 29.8449 9.97881 29.7705 9.94529 29.6885C9.91177 29.6066 9.8949 29.5188 9.89567 29.4303C9.89644 29.3418 9.91483 29.2543 9.94977 29.173C9.98471 29.0916 10.0355 29.0181 10.0992 28.9566Z" fill="#6246EC"/>
</svg>
