<svg width="50" height="50" viewBox="0 0 50 50" fill="none" xmlns="http://www.w3.org/2000/svg">
<g clip-path="url(#clip0_851_1821)">
<path d="M24.9023 44.043C21.1462 44.043 17.5304 42.7388 14.6484 40.3588V29.3945H0V44.043H14.6484V43.978C17.6912 45.9241 21.2406 46.9727 24.9023 46.9727C27.9384 46.9727 30.9595 46.2401 33.6391 44.8544L32.2933 42.2521C29.9954 43.4404 27.5088 44.043 24.9023 44.043ZM11.7188 41.1133H2.92969V32.3242H11.7188V41.1133Z" fill="#6246EC"/>
<path d="M20.862 12.3533L25.0004 18.9748L34.9675 3.02734H15.0333L19.2479 9.7709C16.2611 10.7134 13.5576 12.3799 11.3419 14.6603C8.63193 17.4492 6.86104 20.9408 6.2207 24.7576L9.10996 25.2424C10.1532 19.024 14.8176 13.9583 20.862 12.3533ZM29.6817 5.95703L25.0004 13.4471L20.319 5.95703H29.6817Z" fill="#6246EC"/>
<path d="M44.0745 29.5301C44.1187 28.9983 44.1411 28.4637 44.1411 27.9298C44.1411 24.5779 43.2577 21.2814 41.5865 18.3966C39.9658 15.5991 37.6428 13.2423 34.8684 11.5811L33.3633 14.0945C38.2042 16.9934 41.2114 22.2946 41.2114 27.9298C41.2114 28.4744 41.1836 29.0198 41.1294 29.5605C37.8313 30.2726 35.352 33.211 35.352 36.7188C35.352 40.7574 38.6377 44.0431 42.6763 44.0431C46.7148 44.0431 50.0005 40.7574 50.0005 36.7188C50.0005 33.1585 47.4464 30.1848 44.0745 29.5301ZM42.6763 41.1134C40.2531 41.1134 38.2817 39.142 38.2817 36.7188C38.2817 34.2957 40.2531 32.3243 42.6763 32.3243C45.0994 32.3243 47.0708 34.2957 47.0708 36.7188C47.0708 39.142 45.0994 41.1134 42.6763 41.1134Z" fill="#6246EC"/>
</g>
<defs>
<clipPath id="clip0_851_1821">
<rect width="50" height="50" fill="white"/>
</clipPath>
</defs>
</svg>
