<svg width="50" height="50" viewBox="0 0 50 50" fill="none" xmlns="http://www.w3.org/2000/svg">
<g clip-path="url(#clip0_851_1831)">
<path d="M13.1836 14.0674C20.3426 14.0674 26.167 19.8918 26.167 27.0508C26.167 30.5282 24.8081 33.793 22.3398 36.2461C20.5599 38.015 19.5752 40.2984 19.5752 42.6758V45.6055C19.5752 47.9182 17.6935 49.7998 15.3809 49.7998H10.9863C8.67364 49.7998 6.79199 47.9182 6.79199 45.6055V42.6758C6.79199 40.2984 5.80723 38.015 4.02734 36.2461C1.55903 33.793 0.200195 30.5282 0.200195 27.0508C0.200195 19.8918 6.02462 14.0674 13.1836 14.0674ZM9.32129 45.6055C9.32129 46.5236 10.0682 47.2705 10.9863 47.2705H15.3809C16.299 47.2705 17.0459 46.5236 17.0459 45.6055V43.9404H9.32129V45.6055ZM11.9189 31.4805L11.8604 31.4219L8.38281 27.9453C7.88885 27.4513 7.88885 26.6502 8.38281 26.1562C8.87679 25.6623 9.67803 25.6623 10.1719 26.1562L13.042 29.0273L13.1836 29.168L13.3252 29.0273L16.1953 26.1562C16.6893 25.6623 17.4905 25.6623 17.9844 26.1562C18.4783 26.6502 18.4783 27.4513 17.9844 27.9453L14.5068 31.4219L14.4482 31.4805V41.4111H17.1162L17.1387 41.2363C17.4661 38.7159 18.6495 36.3474 20.5566 34.4521C22.5429 32.4781 23.6377 29.8489 23.6377 27.0508C23.6377 21.2863 18.9481 16.5967 13.1836 16.5967C7.41913 16.5967 2.72949 21.2863 2.72949 27.0508C2.72949 29.8489 3.82417 32.4781 5.81055 34.4521C7.71758 36.3474 8.90112 38.7159 9.22852 41.2363L9.25098 41.4111H11.9189V31.4805Z" fill="#6246EC" stroke="white" stroke-width="0.4"/>
<path d="M36.416 27.7393H41.2988C41.9727 27.7393 42.5287 28.2674 42.5625 28.9404L42.6357 30.4043L42.6416 30.5234L42.75 30.5752C43.1888 30.7833 43.6094 31.0259 44.0088 31.3018L44.1064 31.3701L44.2129 31.3154L45.5176 30.6465C46.117 30.3391 46.8523 30.5562 47.1895 31.1396L49.6309 35.3682C49.9678 35.9519 49.7885 36.6977 49.2227 37.0635L47.9951 37.8564L47.8945 37.9209L47.9043 38.041C47.9248 38.2862 47.9355 38.5295 47.9355 38.7695C47.9355 39.0096 47.9248 39.2528 47.9043 39.498L47.8945 39.6182L47.9951 39.6826L49.2227 40.4756C49.7886 40.8412 49.9679 41.5872 49.6309 42.1709L47.1895 46.3994C46.8523 46.9828 46.1173 47.1999 45.5176 46.8926L44.2129 46.2236L44.1064 46.1689L44.0088 46.2373C43.6093 46.5132 43.1889 46.7557 42.75 46.9639L42.6416 47.0156L42.6357 47.1348L42.5625 48.5986C42.5287 49.2717 41.9727 49.7998 41.2988 49.7998H36.416C35.7423 49.7996 35.1871 49.2715 35.1533 48.5986L35.0801 47.1348L35.0742 47.0156L34.9658 46.9639C34.5269 46.7557 34.1065 46.5132 33.707 46.2373L33.6094 46.1689L33.5029 46.2236L32.1982 46.8926C31.5984 47.1999 30.8634 46.9827 30.5264 46.3994L28.085 42.1709C27.748 41.5872 27.9273 40.8414 28.4932 40.4756H28.4941L29.7207 39.6826L29.8213 39.6182L29.8115 39.498C29.791 39.2528 29.7803 39.0096 29.7803 38.7695C29.7803 38.5295 29.791 38.2862 29.8115 38.041L29.8213 37.9209L29.7207 37.8564L28.4932 37.0635C27.9272 36.6976 27.748 35.9517 28.085 35.3682L30.5264 31.1396C30.8636 30.5562 31.5989 30.3392 32.1982 30.6465L33.5029 31.3154L33.6094 31.3701L33.707 31.3018C34.1064 31.026 34.5269 30.7833 34.9658 30.5752L35.0742 30.5234L35.0801 30.4043L35.1533 28.9404C35.1871 28.2676 35.7423 27.7395 36.416 27.7393ZM37.6104 30.459L37.5605 31.459C37.5347 31.9736 37.1987 32.4208 36.7119 32.5898C35.9256 32.863 35.2082 33.2777 34.5801 33.8213C34.1902 34.1587 33.6346 34.2253 33.1758 33.9902L32.2842 33.5342L32.1152 33.4473L32.0195 33.6113L30.9717 35.4268L30.877 35.5918L31.0371 35.6953L31.875 36.2363C32.3075 36.5159 32.5272 37.0303 32.4307 37.5361C32.3509 37.9544 32.3106 38.3694 32.3105 38.7695C32.3105 39.1699 32.3508 39.5855 32.4307 40.0039C32.5271 40.5097 32.3073 41.0233 31.875 41.3027L31.0371 41.8447L30.877 41.9473L30.9717 42.1123L32.0205 43.9277L32.1152 44.0928L32.2842 44.0059L33.1758 43.5488C33.6345 43.3138 34.1901 43.3805 34.5801 43.7178C35.2083 44.2613 35.9257 44.6762 36.7119 44.9492C37.1989 45.1183 37.5348 45.5663 37.5605 46.0811L37.6104 47.0801L37.6201 47.2705H40.0967L40.1055 47.0801L40.1553 46.0801C40.1812 45.5654 40.5171 45.1182 41.0039 44.9492C41.6919 44.7103 42.3275 44.3633 42.8965 43.916L43.1357 43.7178C43.5255 43.3804 44.081 43.3137 44.54 43.5488L45.4316 44.0059L45.6006 44.0918L45.6963 43.9277L46.7441 42.1123L46.8389 41.9473L46.6787 41.8447L45.8408 41.3027C45.4084 41.0233 45.1888 40.5097 45.2852 40.0039C45.365 39.5853 45.4053 39.1699 45.4053 38.7695C45.4053 38.3692 45.365 37.9537 45.2852 37.5352C45.1888 37.0295 45.4078 36.5151 45.8398 36.2354L45.8408 36.2363L46.6787 35.6943L46.8389 35.5918L46.7441 35.4268L45.6963 33.6113L45.6006 33.4463L45.4316 33.5332L44.54 33.9902C44.0812 34.2253 43.5256 34.1585 43.1357 33.8213C42.5076 33.2777 41.7902 32.863 41.0039 32.5898C40.517 32.4208 40.1811 31.9728 40.1553 31.458L40.1055 30.459L40.0957 30.2686H37.6201L37.6104 30.459Z" fill="#6246EC" stroke="white" stroke-width="0.4"/>
<path d="M38.8574 34.5752C41.1701 34.5752 43.0518 36.4568 43.0518 38.7695C43.0518 41.0822 41.1701 42.9639 38.8574 42.9639C36.5447 42.9639 34.6631 41.0822 34.6631 38.7695C34.6631 36.4568 36.5447 34.5752 38.8574 34.5752ZM38.8574 37.1045C37.9392 37.1045 37.1924 37.8514 37.1924 38.7695C37.1924 39.6877 37.9392 40.4346 38.8574 40.4346C39.7756 40.4346 40.5225 39.6877 40.5225 38.7695C40.5225 37.8514 39.7756 37.1045 38.8574 37.1045Z" fill="#6246EC" stroke="white" stroke-width="0.4"/>
<path d="M19.043 0.200195H32.998C36.9261 0.200301 40.1221 3.39617 40.1221 7.32422V20.0908L40.4639 19.75L42.8457 17.3672C43.3397 16.8734 44.1409 16.8733 44.6348 17.3672C45.1286 17.8611 45.1286 18.6623 44.6348 19.1562L39.752 24.0391C39.258 24.533 38.4569 24.5329 37.9629 24.0391L33.0801 19.1562C32.5861 18.6623 32.5861 17.8612 33.0801 17.3672C33.5741 16.8734 34.3752 16.8733 34.8691 17.3672L37.251 19.75L37.5928 20.0908V7.32422C37.5928 4.79071 35.5315 2.72965 32.998 2.72949H19.043C16.5094 2.72949 14.4482 4.79062 14.4482 7.32422V9.47266C14.4482 10.1712 13.8821 10.7373 13.1836 10.7373C12.4851 10.7373 11.9189 10.1712 11.9189 9.47266V7.32422C11.9189 3.3961 15.1149 0.200195 19.043 0.200195Z" fill="#6246EC" stroke="white" stroke-width="0.4"/>
</g>
<defs>
<clipPath id="clip0_851_1831">
<rect width="50" height="50" fill="white"/>
</clipPath>
</defs>
</svg>
