<svg width="227" height="227" viewBox="0 0 227 227" fill="none" xmlns="http://www.w3.org/2000/svg">
<path d="M209.709 20.3959C205.993 20.3959 204.284 19.257 202.119 17.8139C199.699 16.1985 196.684 14.189 191.088 14.189C185.493 14.189 182.479 16.1985 180.057 17.8139C178.608 18.7791 177.351 19.5999 175.571 20.0437V17.2925C175.571 15.5793 174.18 14.189 172.467 14.189C170.754 14.189 169.364 15.5793 169.364 17.2925V54.801L146.625 77.5401C145.45 78.7147 143.888 79.3618 142.224 79.3618H117.365C114.043 79.3618 110.922 80.6544 108.575 83.0021L79.4984 112.08C79.219 112.359 78.9832 112.631 78.7675 112.902C78.4975 113.118 78.2259 113.354 77.9466 113.633L65.6646 125.914H62.5968C62.5968 123.329 61.6736 120.81 59.9605 118.824C57.8936 116.426 54.8925 115.052 51.7269 115.052H33.2924C27.8723 115.052 23.3521 118.942 22.542 124.305L14.9851 174.705C14.7306 176.401 15.899 177.981 17.5935 178.234C17.7503 178.257 17.9039 178.268 18.0575 178.268C19.5689 178.268 20.8925 177.163 21.1237 175.624L28.6807 125.226C29.0282 122.927 30.9679 121.256 33.294 121.256H51.7286C53.1065 121.256 54.3603 121.83 55.2603 122.874C56.1464 123.901 56.5405 125.261 56.3403 126.595L56.0455 128.55C55.9105 129.444 56.1727 130.353 56.7624 131.038C57.3521 131.722 58.2102 132.116 59.1148 132.116H66.9495C67.7719 132.116 68.5618 131.789 69.1437 131.207L76.9861 123.364C77.5168 124.835 78.3579 126.188 79.4968 127.327C80.6498 128.48 82.0308 129.281 83.4987 129.799L72.7778 140.52C72.2021 141.101 71.4014 141.431 70.5805 141.431H56.7857C55.2495 141.431 53.9445 142.555 53.7164 144.072L51.2181 160.682C50.9527 162.471 51.4772 164.284 52.6596 165.655C53.8421 167.025 55.5536 167.812 57.3598 167.812H66.9496C68.6611 167.812 70.0531 169.204 70.0531 170.916V190.883L64.5397 194.19H60.7426V183.328C60.7426 179.905 57.9588 177.121 54.5357 177.121H42.8822C39.5599 177.121 36.4394 178.414 34.0916 180.761L15.0984 199.755C13.8865 200.966 13.8865 202.931 15.0984 204.143C15.5484 204.593 16.1024 204.875 16.6827 204.99L15.9038 205.38C14.3707 206.146 13.75 208.01 14.515 209.544C15.2816 211.078 17.1452 211.7 18.6798 210.933L39.7508 200.397H65.3979C65.9596 200.397 66.512 200.243 66.9946 199.955L128.327 163.155H166.261C166.549 163.155 166.836 163.115 167.112 163.036L206.606 151.752V209.707C206.606 211.42 207.996 212.811 209.709 212.811C211.422 212.811 212.813 211.42 212.813 209.707V147.638C212.813 146.664 212.356 145.746 211.577 145.16C210.8 144.573 209.793 144.386 208.857 144.654L175.571 154.165V79.0949L184.748 69.918C186.785 67.8821 187.907 65.1728 187.907 62.2928C187.907 59.4128 186.785 56.7034 184.748 54.6675C182.267 52.1863 178.825 51.1777 175.571 51.6401V51.1622C179.242 50.5896 181.576 49.0875 183.499 47.8042C185.663 46.3626 187.374 45.2237 191.088 45.2237C194.803 45.2237 196.513 46.3626 198.678 47.8057C201.1 49.4211 204.115 51.4306 209.709 51.4306C211.422 51.4306 212.813 50.0402 212.813 48.3271V23.4994C212.812 21.7863 211.424 20.3959 209.709 20.3959ZM39.0184 194.19C38.5357 194.19 38.0609 194.302 37.6296 194.517L20.5978 203.035L38.483 185.15C39.6577 183.975 41.2203 183.328 42.8838 183.328H54.5357V194.19L39.0184 194.19ZM66.9496 161.604L57.3568 161.601L59.4578 147.638H70.5807C73.0355 147.638 75.436 146.645 77.1662 144.913L93.1956 128.885C93.4749 128.606 93.7061 128.338 93.9218 128.068C94.1934 127.85 94.4664 127.615 94.7489 127.332L105.203 116.878L101.123 144.074C101.1 144.227 101.088 144.379 101.088 144.535V172.261L76.26 187.158V170.914C76.2599 165.779 72.0842 161.604 66.9496 161.604ZM127.467 156.948C126.921 156.948 126.387 157.099 125.915 157.371V147.638L130.844 147.644L140.148 156.949L127.467 156.948ZM169.424 155.92L165.826 156.948H163.157V149.004C163.157 145.224 161.461 141.695 158.502 139.318L145.391 128.83C144.527 128.137 144.092 127.028 144.254 125.939L146.842 108.682C146.943 108.027 147.256 107.408 147.723 106.941L169.364 85.3019V155.397C169.364 155.577 169.393 155.749 169.424 155.92ZM180.36 59.0559C181.224 59.9217 181.7 61.07 181.7 62.2928C181.7 63.5156 181.224 64.6638 180.36 65.5297L143.335 102.554C141.943 103.946 141.011 105.786 140.706 107.748L138.115 125.022C137.629 128.289 138.928 131.604 141.512 133.676L154.619 144.162C156.101 145.351 156.95 147.115 156.95 149.004V156.948H148.925L135.232 143.256C134.056 142.08 132.493 141.431 130.834 141.431H125.915C122.492 141.431 119.709 144.215 119.709 147.638V161.087L107.295 168.535V144.766L112.738 108.482C112.937 107.156 112.263 105.855 111.067 105.251C109.871 104.647 108.423 104.88 107.475 105.827L90.3607 122.941C90.2335 123.068 90.1062 123.192 89.965 123.288C89.9045 123.329 89.844 123.375 89.785 123.422C87.9788 124.713 85.4572 124.514 83.8854 122.942C83.021 122.076 82.5446 120.928 82.5446 119.705C82.5446 118.763 82.8457 117.828 83.3934 117.061C83.4446 116.997 83.4928 116.932 83.5393 116.866C83.6355 116.724 83.7597 116.596 83.8869 116.468L112.966 87.3888C114.141 86.2141 115.704 85.5671 117.367 85.5671H142.226C145.548 85.5671 148.669 84.2745 151.016 81.9267L173.887 59.0557C174.007 58.9363 174.131 58.8199 174.361 58.6538C176.165 57.2682 178.744 57.4405 180.36 59.0559ZM206.606 44.8839C204.819 44.4416 203.572 43.6099 202.119 42.6416C199.699 41.0263 196.684 39.0168 191.088 39.0168C185.493 39.0168 182.479 41.0263 180.057 42.6416C178.611 43.6052 177.349 44.4199 175.571 44.8621V26.3546C179.247 25.7805 181.573 24.2629 183.499 22.9781C185.663 21.535 187.373 20.396 191.088 20.396C194.803 20.396 196.513 21.535 198.678 22.9781C200.608 24.266 202.915 25.8038 206.605 26.3748L206.606 44.8839Z" fill="white" fill-opacity="0.1"/>
<path d="M25.0527 90.2238C25.0527 100.492 33.4057 108.845 43.6735 108.845C53.9414 108.845 62.2944 100.492 62.2944 90.2238C62.2944 79.956 53.9414 71.603 43.6735 71.603C33.4057 71.603 25.0527 79.9561 25.0527 90.2238ZM56.0874 90.2238C56.0874 97.0685 50.5182 102.638 43.6735 102.638C36.8288 102.638 31.2596 97.0685 31.2596 90.2238C31.2596 83.3792 36.8288 77.8099 43.6735 77.8099C50.5182 77.8099 56.0874 83.3792 56.0874 90.2238Z" fill="white" fill-opacity="0.1"/>
<path d="M113.502 54.5339C113.502 64.8017 121.855 73.1547 132.123 73.1547C142.391 73.1547 150.744 64.8017 150.744 54.5339C150.744 44.2661 142.391 35.9131 132.123 35.9131C121.855 35.9131 113.502 44.2661 113.502 54.5339ZM144.537 54.5339C144.537 61.3786 138.967 66.9477 132.123 66.9477C125.278 66.9477 119.709 61.3786 119.709 54.5339C119.709 47.6892 125.278 42.12 132.123 42.12C138.967 42.1201 144.537 47.6892 144.537 54.5339Z" fill="white" fill-opacity="0.1"/>
</svg>
