<svg width="227" height="227" viewBox="0 0 227 227" fill="none" xmlns="http://www.w3.org/2000/svg">
<path d="M37.122 186.563C36.9185 186.563 36.7106 186.55 36.4984 186.519C26.6033 185.09 17.111 181.985 8.29417 177.287C6.18524 176.161 5.3841 173.537 6.51002 171.423C7.64027 169.319 10.2515 168.518 12.3735 169.639C20.2982 173.87 28.8335 176.659 37.7326 177.941C40.1013 178.283 41.7426 180.478 41.4048 182.847C41.093 185.008 39.2396 186.563 37.122 186.563Z" fill="#2177D9"/>
<path d="M191.407 186.563C189.289 186.563 187.436 185.008 187.124 182.852C186.786 180.483 188.428 178.287 190.796 177.945C199.7 176.663 208.231 173.875 216.155 169.644C218.282 168.522 220.889 169.323 222.019 171.428C223.145 173.537 222.344 176.165 220.235 177.291C211.418 181.99 201.926 185.095 192.031 186.524C191.818 186.55 191.61 186.563 191.407 186.563Z" fill="#2177D9"/>
<path d="M146.114 147.688C145.3 147.688 144.481 147.459 143.754 146.987C141.749 145.679 141.181 142.998 142.489 140.993C148.625 131.583 158.992 125.962 170.226 125.962C172.62 125.962 174.556 127.898 174.556 130.293C174.556 132.688 172.62 134.623 170.226 134.623C161.928 134.623 154.272 138.772 149.747 145.722C148.92 146.995 147.534 147.688 146.114 147.688Z" fill="#2177D9"/>
<path d="M179.825 134.623C164.473 134.623 151.508 121.658 151.508 106.311C151.508 90.9634 164.473 77.998 179.825 77.998C195.172 77.998 208.137 90.9634 208.137 106.311C208.137 121.658 195.172 134.623 179.825 134.623ZM179.825 86.659C169.172 86.659 160.169 95.6576 160.169 106.311C160.169 116.963 169.172 125.962 179.825 125.962C190.478 125.962 199.476 116.963 199.476 106.311C199.476 95.6576 190.478 86.659 179.825 86.659Z" fill="#2177D9"/>
<path d="M218.195 163.408C215.8 163.408 213.864 161.472 213.864 159.077C213.864 145.597 202.895 134.628 189.414 134.628C187.02 134.628 185.084 132.692 185.084 130.297C185.084 127.903 187.02 125.967 189.414 125.967C207.672 125.967 222.525 140.825 222.525 159.077C222.525 161.468 220.589 163.408 218.195 163.408Z" fill="#2177D9"/>
<path d="M189.415 134.623H170.227C167.832 134.623 165.896 132.688 165.896 130.293C165.896 127.898 167.832 125.962 170.227 125.962H189.415C191.81 125.962 193.746 127.898 193.746 130.293C193.746 132.688 191.806 134.623 189.415 134.623Z" fill="#2177D9"/>
<path d="M218.198 177.798C215.803 177.798 213.867 175.862 213.867 173.468V159.078C213.867 156.683 215.803 154.747 218.198 154.747C220.592 154.747 222.528 156.683 222.528 159.078V173.468C222.528 175.862 220.592 177.798 218.198 177.798Z" fill="#2177D9"/>
<path d="M63.0961 180.994C60.7013 180.994 58.7656 179.058 58.7656 176.664C58.7656 153.115 77.9235 133.961 101.468 133.961C103.863 133.961 105.799 135.897 105.799 138.291C105.799 140.686 103.863 142.622 101.468 142.622C82.6957 142.622 67.4265 157.891 67.4265 176.664C67.4265 179.058 65.4865 180.994 63.0961 180.994Z" fill="#2177D9"/>
<path d="M127.055 142.622H101.471C99.0763 142.622 97.1406 140.686 97.1406 138.291C97.1406 135.897 99.0763 133.961 101.471 133.961H127.055C129.45 133.961 131.386 135.897 131.386 138.291C131.386 140.686 129.45 142.622 127.055 142.622Z" fill="#2177D9"/>
<path d="M82.417 147.688C81.001 147.688 79.6152 146.995 78.7838 145.722C74.2541 138.776 66.6022 134.623 58.3051 134.623C55.9103 134.623 53.9746 132.688 53.9746 130.293C53.9746 127.898 55.9103 125.962 58.3051 125.962C69.5426 125.962 79.9054 131.583 86.0416 140.993C87.3494 142.998 86.7821 145.679 84.7771 146.987C84.0453 147.459 83.2268 147.688 82.417 147.688Z" fill="#2177D9"/>
<path d="M63.0961 200.182C60.7013 200.182 58.7656 198.246 58.7656 195.852V176.663C58.7656 174.269 60.7013 172.333 63.0961 172.333C65.4908 172.333 67.4265 174.269 67.4265 176.663V195.852C67.4265 198.246 65.4865 200.182 63.0961 200.182Z" fill="#2177D9"/>
<path d="M114.264 142.622C94.5821 142.622 77.9531 125.993 77.9531 106.311C77.9531 86.6289 94.5821 70 114.264 70C133.946 70 150.575 86.6289 150.575 106.311C150.575 125.993 133.946 142.622 114.264 142.622ZM114.264 78.6609C99.2763 78.6609 86.614 91.3231 86.614 106.311C86.614 121.299 99.2763 133.961 114.264 133.961C129.252 133.961 141.914 121.299 141.914 106.311C141.914 91.3231 129.252 78.6609 114.264 78.6609Z" fill="#2177D9"/>
<path d="M165.429 180.994C163.034 180.994 161.099 179.058 161.099 176.663C161.099 157.891 145.83 142.622 127.057 142.622C124.662 142.622 122.727 140.686 122.727 138.291C122.727 135.896 124.662 133.961 127.057 133.961C150.606 133.961 169.76 153.119 169.76 176.663C169.76 179.058 167.824 180.994 165.429 180.994Z" fill="#2177D9"/>
<path d="M165.428 200.182C163.033 200.182 161.098 198.246 161.098 195.852V176.663C161.098 174.269 163.033 172.333 165.428 172.333C167.823 172.333 169.759 174.269 169.759 176.663V195.852C169.759 198.246 167.823 200.182 165.428 200.182Z" fill="#2177D9"/>
<path d="M114.266 213C95.9912 213 77.721 208.557 61.0617 199.675C58.9528 198.545 58.1517 195.925 59.2776 193.812C60.4078 191.707 63.0148 190.906 65.141 192.028C95.9046 208.436 132.635 208.436 163.395 192.028C165.517 190.906 168.132 191.707 169.258 193.812C170.384 195.921 169.583 198.545 167.474 199.675C150.81 208.553 132.54 213 114.266 213Z" fill="#2177D9"/>
<path d="M48.707 134.623C33.3599 134.623 20.3945 121.658 20.3945 106.311C20.3945 90.9634 33.3599 77.998 48.707 77.998C64.0542 77.998 77.0195 90.9634 77.0195 106.311C77.0195 121.658 64.0542 134.623 48.707 134.623ZM48.707 86.659C38.0541 86.659 29.0554 95.6576 29.0554 106.311C29.0554 116.963 38.0541 125.962 48.707 125.962C59.3599 125.962 68.3586 116.963 68.3586 106.311C68.3586 95.6576 59.3599 86.659 48.707 86.659Z" fill="#2177D9"/>
<path d="M10.3324 163.408C7.93767 163.408 6.00195 161.472 6.00195 159.077C6.00195 140.82 20.8597 125.967 39.1126 125.967C41.5073 125.967 43.443 127.903 43.443 130.297C43.443 132.692 41.5073 134.628 39.1126 134.628C25.6319 134.623 14.6629 145.592 14.6629 159.077C14.6629 161.468 12.7271 163.408 10.3324 163.408Z" fill="#2177D9"/>
<path d="M58.2999 134.623H39.1117C36.717 134.623 34.7812 132.688 34.7812 130.293C34.7812 127.898 36.717 125.962 39.1117 125.962H58.2999C60.6947 125.962 62.6304 127.898 62.6304 130.293C62.6304 132.688 60.6947 134.623 58.2999 134.623Z" fill="#2177D9"/>
<path d="M10.3324 177.798C7.93767 177.798 6.00195 175.862 6.00195 173.468V159.078C6.00195 156.683 7.93767 154.747 10.3324 154.747C12.7271 154.747 14.6629 156.683 14.6629 159.078V173.468C14.6629 175.862 12.7271 177.798 10.3324 177.798Z" fill="#2177D9"/>
</svg>
