<svg width="200" height="200" viewBox="0 0 200 200" fill="none" xmlns="http://www.w3.org/2000/svg">
<g clip-path="url(#clip0_851_1894)">
<path d="M99.6508 25.4141C101.823 25.4141 103.585 23.6527 103.585 21.4801V3.93398C103.585 1.76133 101.823 0 99.6508 0C97.4781 0 95.7168 1.76133 95.7168 3.93398V21.4801C95.7172 23.6527 97.4785 25.4141 99.6508 25.4141Z" fill="white" fill-opacity="0.1"/>
<path d="M195.813 135.151L188.863 128.22C186.391 125.751 183.096 124.391 179.585 124.391C177.34 124.391 175.185 124.95 173.275 125.996L160.179 112.916L160.817 112.279C166.13 106.955 166.128 98.3048 160.817 92.9994C158.919 91.0978 156.55 89.8298 153.969 89.2962C154.324 88.0693 154.511 86.7841 154.511 85.4689C154.511 81.8146 153.092 78.388 150.522 75.829C148.624 73.9275 146.256 72.6595 143.674 72.1259C144.03 70.899 144.217 69.6142 144.217 68.2986C144.217 64.6439 142.797 61.2177 140.223 58.6548C138.28 56.7134 135.89 55.4845 133.381 54.9615C134.723 50.3337 133.577 45.1271 129.936 41.4802C126.905 38.4626 122.793 37.1658 118.83 37.5861L92.8793 32.674C88.9215 31.9232 83.9789 31.4267 80.859 34.2724C80.6621 34.4521 80.4613 34.6587 80.2637 34.8888C75.4262 33.1255 69.784 34.1755 65.9102 38.0451C63.3402 40.6119 61.9246 44.0369 61.9246 47.6892C61.9246 49.0048 62.1109 50.2896 62.466 51.5169C59.8871 52.0501 57.5219 53.3165 55.6301 55.2119C53.0551 57.7763 51.6352 61.1974 51.6324 64.8455C51.6312 66.1642 51.8184 67.4533 52.1754 68.6837C49.5953 69.2158 47.2285 70.4798 45.3309 72.3751C42.7559 74.9474 41.3379 78.3744 41.3379 82.0248C41.3379 84.8208 42.1727 87.4845 43.7195 89.7345C41.7664 90.3966 39.9773 91.4986 38.4793 92.9951C33.1629 98.3048 33.1609 106.956 38.4828 112.287L39.1184 112.92L26.0207 125.993C21.1531 123.702 15.1559 124.56 11.1391 128.572L4.18516 135.506C1.71172 137.977 0.35 141.272 0.349609 144.785C0.349609 148.298 1.71172 151.594 4.18516 154.065L12.8637 162.733C14.4008 164.268 16.8918 164.267 18.427 162.729C19.9625 161.192 19.9609 158.701 18.4238 157.166L9.74531 148.498C8.76016 147.514 8.21758 146.195 8.21758 144.785C8.21758 143.376 8.76016 142.057 9.74297 141.076L16.6973 134.141C18.4348 132.405 21.0941 132.147 23.1137 133.354C23.2559 133.568 23.4203 133.771 23.6086 133.96C23.9457 134.297 24.3305 134.556 24.7391 134.746L64.6191 174.567C64.8086 174.98 65.0687 175.369 65.4082 175.709C65.7387 176.04 66.1156 176.295 66.5156 176.484C67.359 177.437 67.825 178.655 67.825 179.954C67.825 181.365 67.2824 182.683 66.2973 183.667L59.35 190.606C57.2973 192.65 53.9582 192.649 51.9117 190.612L43.2332 181.933C41.6969 180.397 39.2062 180.397 37.6699 181.933C36.1336 183.469 36.1336 185.96 37.6699 187.496L46.3547 196.182C48.9109 198.727 52.268 200 55.6266 200C58.9859 200 62.3469 198.726 64.9062 196.177L71.8578 189.234C74.3313 186.763 75.6934 183.468 75.6934 179.954C75.6934 177.447 74.9961 175.052 73.6996 172.988L88.4402 158.265C88.4559 158.249 88.4715 158.233 88.4875 158.217C90.1754 156.472 94.8758 156.799 99.4215 157.114C102.651 157.339 106.252 157.588 109.77 157.183L125.912 173.306C124.866 175.213 124.308 177.365 124.308 179.606C124.308 183.116 125.67 186.41 128.144 188.88L135.096 195.824C137.568 198.293 140.863 199.653 144.373 199.653C147.884 199.653 151.179 198.293 153.651 195.824L195.816 153.71C198.289 151.24 199.651 147.945 199.651 144.431C199.651 140.918 198.289 137.623 195.813 135.151ZM91.4145 40.4044L108.48 43.6345L98.2652 53.8451C96.6852 53.0857 94.5195 51.6693 92.1437 49.3966C88.8918 46.2857 86.5656 42.6939 86.3539 40.4537C86.3535 40.4525 86.3535 40.4513 86.3535 40.4501C86.3535 40.4498 86.3531 40.4494 86.3531 40.449C86.3379 40.288 86.334 40.1595 86.3359 40.0615C86.8504 39.9365 88.2168 39.7978 91.4145 40.4044ZM71.4699 43.6119C73.4629 41.6208 76.559 41.3912 78.8109 42.9162C80.0871 48.2669 84.6516 53.1165 86.7051 55.0814C88.227 56.5376 93.1102 60.9037 98.0391 62.1037C98.7059 63.0595 99.0688 64.199 99.0688 65.4013C99.0688 66.9501 98.4731 68.3982 97.3875 69.4826C96.3051 70.5669 94.8547 71.1638 93.3031 71.1638C91.7512 71.1638 90.3008 70.5669 89.2133 69.4775L89.2129 69.4771L89.2109 69.4751L71.4695 51.7658C70.3879 50.6857 69.7922 49.2376 69.7922 47.6892C69.7926 46.1404 70.3883 44.6923 71.4699 43.6119ZM61.1902 60.7787C62.2727 59.6947 63.7215 59.0974 65.2707 59.0974C66.8219 59.0974 68.2754 59.6958 69.3648 60.7841L83.6508 75.0415C85.9004 77.2947 85.9004 80.9611 83.6586 83.2064C82.5703 84.2904 81.1148 84.8873 79.5605 84.8873C78.0062 84.8873 76.5508 84.2904 75.4672 83.2111L75.4668 83.2107L64.6289 72.3751C64.6121 72.3583 64.5938 72.3427 64.5766 72.3255L61.1859 68.9365C60.098 67.8498 59.4992 66.399 59.5004 64.8513C59.502 63.3087 60.0988 61.8654 61.1902 60.7787ZM50.891 77.9419C51.9742 76.8603 53.4262 76.2646 54.9801 76.2646C56.5211 76.2646 57.9606 76.8517 59.0391 77.9146L69.9102 88.7806C70.9941 89.8603 71.5914 91.3068 71.5914 92.8537C71.5914 94.4001 70.9941 95.8466 69.9059 96.9306C68.823 98.0119 67.3727 98.6076 65.8215 98.6076C64.268 98.6076 62.8129 98.0103 61.7285 96.9306L57.7875 92.9943C57.7867 92.9931 57.7855 92.9923 57.7848 92.9916L50.8914 86.1064C49.8047 85.0209 49.2063 83.5708 49.2063 82.024C49.2063 80.4775 49.8047 79.0271 50.891 77.9419ZM44.0395 98.5615C45.1273 97.4748 46.5813 96.8763 48.1332 96.8763C49.6848 96.8763 51.1383 97.4744 52.2258 98.5603L56.1723 102.502C57.2566 103.582 57.8535 105.028 57.8535 106.575C57.8535 108.122 57.2563 109.568 56.1641 110.656C55.0816 111.74 53.6312 112.338 52.0797 112.338C50.5277 112.338 49.0773 111.741 47.9871 110.649L47.493 110.156C47.4863 110.15 47.4813 110.143 47.475 110.136C47.4676 110.129 47.4598 110.123 47.4523 110.116L44.0434 106.72C41.7938 104.466 41.7918 100.806 44.0395 98.5615ZM124.209 143.272C122.673 141.734 120.182 141.733 118.646 143.268L115.146 146.764C111.82 150.09 105.794 149.671 99.966 149.267C93.6375 148.827 87.0934 148.373 82.8586 152.72L68.3684 167.193L32.1328 131.011L44.9562 118.21C47.0758 119.51 49.5215 120.206 52.0805 120.206C55.7363 120.206 59.1645 118.789 61.725 116.224C64.3027 113.656 65.7227 110.23 65.7227 106.576C65.7227 106.542 65.7203 106.508 65.7203 106.474C65.7543 106.474 65.7883 106.476 65.8223 106.476C69.473 106.476 72.8984 105.063 75.4625 102.502C78.0402 99.9353 79.4602 96.5087 79.4602 92.8544C79.4602 92.8205 79.4578 92.7869 79.4578 92.7529C79.4922 92.7529 79.5266 92.7552 79.5613 92.7552C83.2109 92.7552 86.6383 91.3439 89.2195 88.7732C91.8992 86.0892 93.2246 82.5556 93.1992 79.0294C93.2344 79.0298 93.2695 79.0318 93.3047 79.0318C96.9605 79.0314 100.388 77.6146 102.953 75.0455C105.523 72.4787 106.938 69.0537 106.938 65.4013C106.938 62.847 106.244 60.4052 104.949 58.29L116.188 47.0552C117.026 46.2212 118.059 45.6978 119.141 45.4818C119.258 45.4693 119.374 45.4505 119.488 45.4279C121.225 45.1884 123.049 45.7244 124.377 47.047C126.627 49.3005 126.627 52.9669 124.385 55.2123L120.962 58.6212C120.951 58.6326 120.939 58.6427 120.927 58.6541L116.985 62.59C115.447 64.1251 115.446 66.6162 116.981 68.1533C118.517 69.6908 121.008 69.6919 122.545 68.1568L125.981 64.7248C125.982 64.724 125.983 64.7232 125.984 64.7224L126.503 64.2048C128.759 61.9697 132.414 61.9744 134.667 64.2248C135.752 65.3044 136.349 66.7509 136.349 68.2978C136.349 69.8443 135.752 71.2908 134.659 72.379L131.216 75.8287C131.216 75.8291 131.215 75.8294 131.215 75.8302L127.273 79.7564C125.733 81.2896 125.728 83.7806 127.261 85.3197C128.795 86.8591 131.285 86.8638 132.825 85.331L136.785 81.3869C137.867 80.3025 139.318 79.7056 140.869 79.7056C142.421 79.7056 143.872 80.3025 144.962 81.3947C146.046 82.4748 146.643 83.9212 146.643 85.4681C146.643 87.0146 146.046 88.4611 144.956 89.547L138.093 96.413C136.557 97.9498 136.557 100.44 138.093 101.976C138.862 102.744 139.868 103.128 140.875 103.128C141.882 103.128 142.889 102.743 143.657 101.975L147.02 98.6103C147.039 98.5919 147.06 98.5759 147.079 98.5568C148.162 97.4724 149.612 96.8755 151.164 96.8755C152.716 96.8755 154.166 97.4724 155.252 98.5607C157.5 100.806 157.498 104.466 155.252 106.715L151.832 110.131C151.831 110.132 151.83 110.133 151.829 110.135C151.827 110.136 151.826 110.137 151.825 110.138L146.397 115.56C144.86 117.095 144.858 119.586 146.393 121.124C147.162 121.893 148.17 122.277 149.177 122.277C150.183 122.277 151.189 121.894 151.957 121.127L154.612 118.475L167.337 131.186L131.105 167.374L118.123 154.408C119.028 153.826 119.894 153.141 120.707 152.328L124.205 148.835C125.743 147.3 125.745 144.809 124.209 143.272ZM190.255 148.144L148.091 190.257C147.104 191.242 145.784 191.785 144.373 191.785C142.962 191.785 141.642 191.242 140.655 190.256L133.703 183.313C132.718 182.329 132.175 181.013 132.175 179.606C132.175 178.2 132.718 176.884 133.703 175.9L175.868 133.786C176.854 132.801 178.174 132.258 179.586 132.258C180.996 132.258 182.317 132.801 183.306 133.789L190.255 140.719C191.241 141.703 191.783 143.021 191.783 144.431C191.783 145.842 191.24 147.16 190.255 148.144Z" fill="white" fill-opacity="0.1"/>
<path d="M47.412 22.0977C48.18 22.8641 49.1855 23.2469 50.1909 23.2469C51.1987 23.2469 52.2069 22.8618 52.9753 22.0918C54.5101 20.554 54.5077 18.0633 52.9698 16.5286L38.6347 2.22193C37.0972 0.68716 34.6062 0.689113 33.0714 2.22739C31.5366 3.76528 31.539 6.25591 33.0769 7.79067L47.412 22.0977Z" fill="white" fill-opacity="0.1"/>
<path d="M149.11 23.2468C150.116 23.2468 151.122 22.8632 151.89 22.0964L166.214 7.78936C167.751 6.2542 167.753 3.76318 166.217 2.22607C164.682 0.688965 162.191 0.687403 160.654 2.22295L146.33 16.53C144.792 18.0651 144.791 20.5562 146.326 22.0933C147.095 22.8624 148.102 23.2468 149.11 23.2468Z" fill="white" fill-opacity="0.1"/>
<path d="M24.5387 169.22C23.0157 170.769 23.0368 173.261 24.5864 174.784L24.5977 174.794C25.3622 175.546 26.3547 175.92 27.3469 175.92C28.3653 175.92 29.3836 175.526 30.1551 174.741C31.6782 173.192 31.6512 170.696 30.102 169.173C28.5532 167.65 26.0625 167.671 24.5387 169.22Z" fill="white" fill-opacity="0.1"/>
<path d="M133.831 137.604C134.429 137.604 135.036 137.468 135.606 137.181C137.546 136.202 138.325 133.837 137.347 131.897C136.369 129.957 134.003 129.177 132.063 130.156L132.041 130.167C130.101 131.145 129.333 133.505 130.311 135.445C131.002 136.815 132.391 137.604 133.831 137.604Z" fill="white" fill-opacity="0.1"/>
</g>
<defs>
<clipPath id="clip0_851_1894">
<rect width="200" height="200" fill="white"/>
</clipPath>
</defs>
</svg>
