<svg width="50" height="50" viewBox="0 0 50 50" fill="none" xmlns="http://www.w3.org/2000/svg">
<g clip-path="url(#clip0_851_1798)">
<path d="M24.7101 39.7209C24.4434 39.7209 24.1767 39.6189 23.9726 39.4168L10.583 26.0272C10.1913 25.6355 10.1746 25.0084 10.5413 24.5959L20.5767 13.3543C27.5913 5.14802 39.0142 -0.162401 48.9746 0.00634882C49.5309 0.0188488 49.9788 0.466766 49.9913 1.02302C50.2226 10.9897 44.8517 22.4063 36.6246 29.4355L25.4017 39.4563C25.2059 39.6334 24.9559 39.7209 24.7101 39.7209ZM12.7517 25.2501L24.7496 37.248L35.2559 27.8689C42.7684 21.448 47.758 11.2147 47.9121 2.0876C38.7851 2.23968 28.5538 7.22927 22.1455 14.7251L12.7517 25.2501Z" fill="#6246EC"/>
<path d="M28.6998 47.3458C28.5998 47.3458 28.4977 47.3312 28.4018 47.3C28.0268 47.175 27.7185 46.8875 27.6643 46.4958L26.2352 36.5229C26.1539 35.9542 26.5498 35.4271 27.1185 35.3438C27.6873 35.2542 28.2143 35.6562 28.2977 36.2271L29.4143 44.0187C33.0643 39.6542 35.0935 34.1208 35.0935 28.4792C35.0935 27.9042 35.5602 27.4375 36.1352 27.4375C36.7102 27.4375 37.1768 27.9042 37.1768 28.4792C37.1768 35.3812 34.381 42.1375 29.506 47.0104C29.2977 47.2188 28.9935 47.3458 28.6998 47.3458Z" fill="#6246EC"/>
<path d="M13.6275 23.7748C13.5796 23.7748 13.5296 23.7728 13.4796 23.7644L3.50669 22.3353C3.11502 22.279 2.78794 22.0061 2.66502 21.629C2.54211 21.254 2.64211 20.8394 2.92336 20.5623C7.86711 15.6186 14.6213 12.8228 21.5234 12.8228C22.0984 12.8228 22.565 13.2894 22.565 13.8644C22.565 14.4394 22.0984 14.9061 21.5234 14.9061C15.8546 14.9061 10.2921 16.954 5.97336 20.5832L13.7754 21.7019C14.3442 21.7853 14.74 22.3103 14.6588 22.8811C14.5817 23.3998 14.1359 23.7748 13.6275 23.7748Z" fill="#6246EC"/>
<path d="M35.6935 19.5126C34.3581 19.5126 33.0247 19.0043 32.0102 17.9897C29.981 15.9585 29.981 12.6543 32.0102 10.623C34.0414 8.5918 37.3456 8.5918 39.3768 10.623C41.406 12.6543 41.406 15.9585 39.3768 17.9897C38.3602 19.0064 37.0268 19.5126 35.6935 19.5126ZM35.6935 11.1835C34.8935 11.1835 34.0914 11.4876 33.4831 12.096C32.2664 13.3147 32.2664 15.298 33.4831 16.5168C34.7018 17.7335 36.6852 17.7314 37.9039 16.5168C39.1206 15.298 39.1206 13.3147 37.9039 12.096C37.2935 11.4897 36.4935 11.1835 35.6935 11.1835Z" fill="#6246EC"/>
<path d="M1.04212 50.0002C0.769199 50.0002 0.504616 49.8939 0.304616 49.696C0.0337822 49.4252 -0.0662178 49.0272 0.0441989 48.6606C0.385866 47.521 3.44628 37.4502 5.67545 35.221C8.18587 32.7106 12.2713 32.7085 14.7817 35.221C17.2921 37.7314 17.2921 41.8168 14.7817 44.3272C12.5525 46.5564 2.4817 49.6168 1.34212 49.9585C1.24212 49.9856 1.14212 50.0002 1.04212 50.0002ZM10.2296 35.4189C9.11295 35.4189 7.99837 35.8439 7.14837 36.6918C5.94628 37.896 3.94628 43.2731 2.62545 47.3752C6.72545 46.0543 12.1046 44.0543 13.3067 42.8522C15.0046 41.1543 15.0046 38.3897 13.3067 36.6918C12.4588 35.8439 11.3442 35.4189 10.2296 35.4189Z" fill="#6246EC"/>
</g>
<defs>
<clipPath id="clip0_851_1798">
<rect width="50" height="50" fill="white"/>
</clipPath>
</defs>
</svg>
