<svg width="24" height="24" viewBox="0 0 24 24" fill="none" xmlns="http://www.w3.org/2000/svg">
<g clip-path="url(#clip0_851_1772)">
<path d="M9.49118 24.0001C4.25774 24.0001 0 19.7431 0 14.5106C0 9.27809 4.25774 5.02112 9.49118 5.02112C11.2209 5.02112 12.9152 5.49302 14.391 6.38578L13.5943 7.7024C12.3588 6.95502 10.9399 6.55994 9.49118 6.55994C5.10641 6.55994 1.53913 10.1266 1.53913 14.5106C1.53913 18.8946 5.10641 22.4613 9.49118 22.4613C13.8759 22.4613 17.4432 18.8946 17.4432 14.5106C17.4432 13.0621 17.0482 11.6436 16.3006 10.4083L17.6175 9.61173C18.5104 11.0873 18.9824 12.7813 18.9824 14.5106C18.9824 19.7431 14.7246 24.0001 9.49118 24.0001Z" fill="white"/>
<path d="M9.49173 19.7806C6.58527 19.7806 4.2207 17.4164 4.2207 14.5105C4.2207 11.6045 6.58527 9.24036 9.49173 9.24036C10.0524 9.24036 10.6047 9.3281 11.1333 9.50118L10.6543 10.9636C10.2806 10.8412 9.88947 10.7792 9.49173 10.7792C7.43393 10.7792 5.75983 12.453 5.75983 14.5104C5.75983 16.5678 7.43399 18.2416 9.49173 18.2416C11.5495 18.2416 13.2236 16.5678 13.2236 14.5104C13.2236 14.0956 13.1562 13.6885 13.0233 13.3005L14.4793 12.8017C14.6674 13.3507 14.7628 13.9255 14.7628 14.5104C14.7628 17.4164 12.3982 19.7806 9.49173 19.7806Z" fill="white"/>
<path d="M23.3548 2.95489L21.3511 2.65182L21.0479 0.648483C20.9555 0.0376116 20.1811 -0.218696 19.7429 0.219509L16.861 3.10089C16.6887 3.2732 16.6082 3.51689 16.6439 3.75792L16.9665 5.93079L9.88702 13.0238C9.76035 12.99 9.62748 12.9717 9.4903 12.9717C8.64163 12.9717 7.95117 13.662 7.95117 14.5105C7.95117 15.359 8.64163 16.0493 9.4903 16.0493C10.339 16.0493 11.0294 15.359 11.0294 14.5105C11.0294 14.3722 11.0108 14.2383 10.9765 14.1108L18.0534 7.02038L20.2406 7.35741C20.4805 7.39443 20.7303 7.31264 20.902 7.14105L23.7839 4.25966C24.0734 4.03361 24.1888 3.059 23.3548 2.95489ZM20.0895 5.77715L18.4625 5.52643L18.2233 3.9151L19.754 2.38464L19.9141 3.44279C19.9646 3.77628 20.2264 4.03802 20.5599 4.08843L21.6183 4.24854L20.0895 5.77715Z" fill="white"/>
</g>
<defs>
<clipPath id="clip0_851_1772">
<rect width="24" height="24" fill="white"/>
</clipPath>
</defs>
</svg>
