<svg width="50" height="50" viewBox="0 0 50 50" fill="none" xmlns="http://www.w3.org/2000/svg">
<path d="M44.4021 21.6345C45.901 20.4917 46.875 18.6928 46.875 16.6667C46.875 13.2199 44.0719 10.4167 40.625 10.4167C37.1781 10.4167 34.375 13.2199 34.375 16.6667C34.375 18.7001 35.3552 20.5032 36.8625 21.6459C36.7031 21.7167 36.5396 21.7772 36.3854 21.8574C35.875 22.122 35.675 22.7511 35.9396 23.2615C36.2052 23.773 36.8354 23.9709 37.3437 23.7063C38.3396 23.1897 39.475 22.9167 40.625 22.9167C44.6448 22.9167 47.9167 26.1876 47.9167 30.2084V34.3751C47.9167 36.098 46.5146 37.5001 44.7917 37.5001H39.5208C38.9448 37.5001 38.4792 37.9667 38.4792 38.5417C38.4792 39.1167 38.9448 39.5834 39.5208 39.5834H44.7917C47.6635 39.5834 50 37.247 50 34.3751V30.2084C50 26.3834 47.6948 23.0907 44.4021 21.6345ZM36.4583 16.6667C36.4583 14.3688 38.3271 12.5001 40.625 12.5001C42.9229 12.5001 44.7917 14.3688 44.7917 16.6667C44.7917 18.9647 42.9229 20.8334 40.625 20.8334C38.3271 20.8334 36.4583 18.9647 36.4583 16.6667Z" fill="#6246EC"/>
<path d="M14.0604 23.2615C14.325 22.7511 14.125 22.122 13.6146 21.8574C13.4604 21.7772 13.2969 21.7167 13.1375 21.6459C14.6448 20.5042 15.625 18.7001 15.625 16.6667C15.625 13.2199 12.8219 10.4167 9.375 10.4167C5.92812 10.4167 3.125 13.2199 3.125 16.6667C3.125 18.6928 4.09896 20.4917 5.59792 21.6345C2.30521 23.0907 0 26.3834 0 30.2084V34.3751C0 37.247 2.33646 39.5834 5.20833 39.5834H10.4792C11.0552 39.5834 11.5208 39.1167 11.5208 38.5417C11.5208 37.9667 11.0552 37.5001 10.4792 37.5001H5.20833C3.48542 37.5001 2.08333 36.098 2.08333 34.3751V30.2084C2.08333 26.1876 5.35521 22.9167 9.375 22.9167C10.525 22.9167 11.6604 23.1897 12.6562 23.7063C13.1635 23.9688 13.7948 23.772 14.0604 23.2615ZM5.20833 16.6667C5.20833 14.3688 7.07708 12.5001 9.375 12.5001C11.6729 12.5001 13.5417 14.3688 13.5417 16.6667C13.5417 18.9647 11.6729 20.8334 9.375 20.8334C7.07708 20.8334 5.20833 18.9647 5.20833 16.6667Z" fill="#6246EC"/>
<path d="M29.14 20.578C31.041 19.2603 32.291 17.0665 32.291 14.5832C32.291 10.5623 29.0191 7.2915 24.9993 7.2915C20.9796 7.2915 17.7077 10.5623 17.7077 14.5832C17.7077 17.0665 18.9577 19.2603 20.8587 20.578C16.5837 22.2425 13.541 26.3936 13.541 31.2498V37.4998C13.541 40.3717 15.8775 42.7082 18.7493 42.7082H31.2493C34.1212 42.7082 36.4577 40.3717 36.4577 37.4998V31.2498C36.4577 26.3925 33.415 22.2425 29.14 20.578ZM19.791 14.5832C19.791 11.7113 22.1275 9.37484 24.9993 9.37484C27.8712 9.37484 30.2077 11.7113 30.2077 14.5832C30.2077 17.455 27.8712 19.7915 24.9993 19.7915C22.1275 19.7915 19.791 17.455 19.791 14.5832ZM34.3743 37.4998C34.3743 39.2228 32.9723 40.6248 31.2493 40.6248H18.7493C17.0264 40.6248 15.6243 39.2228 15.6243 37.4998V31.2498C15.6243 26.0811 19.8296 21.8748 24.9993 21.8748C30.1691 21.8748 34.3743 26.0811 34.3743 31.2498V37.4998Z" fill="#6246EC"/>
</svg>
