<svg width="50" height="50" viewBox="0 0 50 50" fill="none" xmlns="http://www.w3.org/2000/svg">
<path d="M22.1161 9.53328V28.2376L15.9217 40.6215C15.4952 41.3777 14.71 41.8624 13.8423 41.906H8.4429C7.64794 41.906 7.28442 41.3389 7.64794 40.6215L13.8035 28.2376H2.68953C1.89468 28.2376 1.25 27.593 1.25 26.7981V9.53328C1.25 8.7384 1.89468 8.09375 2.68953 8.09375H20.6766C21.4714 8.09375 22.1161 8.7384 22.1161 9.53328Z" fill="#FFBF3C"/>
<path d="M48.7489 9.53328V28.2376L42.5594 40.6215C42.128 41.3777 41.3428 41.8624 40.4751 41.906H35.0806C34.2807 41.906 33.9221 41.3389 34.2807 40.6215L40.4412 28.2376H29.3223C28.5275 28.2376 27.8828 27.593 27.8828 26.7981V9.53328C27.8828 8.7384 28.5275 8.09375 29.3223 8.09375H47.3094C48.1042 8.09375 48.7489 8.7384 48.7489 9.53328Z" fill="#FFBF3C"/>
</svg>
