<svg width="24" height="24" viewBox="0 0 24 24" fill="none" xmlns="http://www.w3.org/2000/svg">
<g clip-path="url(#clip0_851_1762)">
<path d="M23.8972 22.9321L18.98 14.8275C18.7066 14.3769 18.0514 14.3767 17.7779 14.8275L17.5211 15.2507L16.3121 13.1785C16.3116 13.1777 16.3112 13.1768 16.3108 13.176L12.7032 6.99337V5.50228H16.9481C17.5441 5.50228 17.8703 4.80356 17.4863 4.34677L16.4604 3.12614L17.4863 1.90552C17.8697 1.44933 17.5448 0.75 16.9481 0.75H12.7031V0.703125C12.7031 0.314812 12.3884 0 12.0001 0C11.6117 0 11.297 0.314812 11.297 0.703125V6.99258L8.58319 11.6437C8.58282 11.6444 8.58235 11.645 8.58193 11.6457L6.47879 15.2504L6.22219 14.8275C5.94886 14.377 5.29351 14.3768 5.02004 14.8275L0.102849 22.9321C-0.181214 23.4003 0.156896 24 0.703927 24H23.2961C23.8438 24 24.1809 23.3998 23.8972 22.9321ZM15.4387 2.15625L15.0038 2.67375C14.7839 2.93531 14.7839 3.31702 15.0038 3.57858L15.4387 4.09608H12.7031V2.15625H15.4387ZM11.9998 8.57822L14.0044 12.0137L13.5736 11.8239C13.2667 11.6888 12.907 11.7891 12.7144 12.0637L11.9997 13.0833L11.285 12.0637C11.0924 11.7889 10.7326 11.6888 10.4258 11.8239L9.99525 12.0137L11.9998 8.57822ZM8.78818 14.0825L10.465 13.3435L11.4241 14.7118C11.7036 15.1104 12.2956 15.111 12.5755 14.7118L13.5347 13.3434L15.2111 14.0819L16.6912 16.6186L13.0659 22.5938H10.9341L7.30866 16.6182L8.78818 14.0825ZM1.95291 22.5938L5.62116 16.5477C5.76933 16.7919 9.07852 22.2462 9.28936 22.5938H1.95291ZM14.7107 22.5938C14.9379 22.2192 18.2665 16.733 18.3789 16.5477L22.0471 22.5938H14.7107Z" fill="white"/>
</g>
<defs>
<clipPath id="clip0_851_1762">
<rect width="24" height="24" fill="white"/>
</clipPath>
</defs>
</svg>
