<svg xmlns="http://www.w3.org/2000/svg" width="44" height="44" fill="none"><g fill="#FFBF3C" clip-path="url(#a)"><path d="M37.386 2.578a3.87 3.87 0 0 0-3.867 3.868c0 .595.146 1.153.387 1.657L32.06 9.95C29.442 4.096 23.575 0 16.759 0 7.52 0 0 7.518 0 16.76 0 26 7.518 33.518 16.76 33.518c3.21 0 6.202-.924 8.754-2.496l1.93 2.302a146 146 0 0 0 5.88-5.88l-2.302-1.93a16.63 16.63 0 0 0 2.497-8.756c0-1.415-.196-2.782-.528-4.095l2.738-2.738a3.8 3.8 0 0 0 1.657.387 3.87 3.87 0 0 0 3.868-3.867 3.87 3.87 0 0 0-3.868-3.868M16.759 30.94c-7.818 0-14.18-6.361-14.18-14.18 0-7.82 6.362-14.182 14.18-14.182 6.122 0 11.336 3.908 13.317 9.355l-3.925 3.925a3.8 3.8 0 0 0-1.657-.388c-.595 0-1.152.146-1.657.388l-2.598-2.599a3.8 3.8 0 0 0 .388-1.657 3.87 3.87 0 0 0-3.868-3.867 3.87 3.87 0 0 0-3.867 3.867c0 .596.146 1.153.387 1.657l-2.598 2.599a3.8 3.8 0 0 0-1.657-.388 3.87 3.87 0 0 0-3.868 3.868 3.87 3.87 0 0 0 3.868 3.867 3.87 3.87 0 0 0 3.868-3.867c0-.596-.147-1.153-.388-1.657l2.598-2.599a3.8 3.8 0 0 0 1.657.388c.595 0 1.153-.146 1.657-.388l2.598 2.599a3.8 3.8 0 0 0-.387 1.657 3.87 3.87 0 0 0 3.867 3.867 3.87 3.87 0 0 0 3.868-3.867c0-.596-.147-1.153-.388-1.657l2.823-2.824c.085.624.143 1.256.143 1.902 0 7.82-6.363 14.181-14.18 14.181M43.978 38.376a5.14 5.14 0 0 0-1.83-3.51L35.3 29.1a143 143 0 0 1-6.202 6.201l5.768 6.857A5.152 5.152 0 0 0 38.822 44a5.16 5.16 0 0 0 3.968-1.849 5.13 5.13 0 0 0 1.188-3.775"/></g><defs><clipPath id="a"><path fill="#fff" d="M0 0h44v44H0z"/></clipPath></defs></svg>