<svg width="44" height="44" viewBox="0 0 44 44" fill="none" xmlns="http://www.w3.org/2000/svg">
<path fill-rule="evenodd" clip-rule="evenodd" d="M21.5698 27.1607C21.5698 25.9066 21.0709 24.7023 20.1849 23.8146C19.2972 22.9286 18.0929 22.4297 16.8387 22.4297H8.23688C6.98273 22.4297 5.77847 22.9286 4.89076 23.8146C4.00477 24.7023 3.50586 25.9066 3.50586 27.1607V35.7626C3.50586 37.0167 4.00477 38.221 4.89076 39.1087C5.77847 39.9947 6.98273 40.4936 8.23688 40.4936H16.8387C18.0929 40.4936 19.2972 39.9947 20.1849 39.1087C21.0709 38.221 21.5698 37.0167 21.5698 35.7626V27.1607ZM18.9892 27.1607V35.7626C18.9892 36.3337 18.7621 36.8791 18.3596 37.2834C17.9553 37.686 17.4099 37.913 16.8387 37.913H8.23688C7.66572 37.913 7.12036 37.686 6.71607 37.2834C6.31351 36.8791 6.08642 36.3337 6.08642 35.7626V27.1607C6.08642 26.5895 6.31351 26.0442 6.71607 25.6399C7.12036 25.2373 7.66572 25.0102 8.23688 25.0102H16.8387C17.4099 25.0102 17.9553 25.2373 18.3596 25.6399C18.7621 26.0442 18.9892 26.5895 18.9892 27.1607Z" fill="#FFBF3C"/>
<path fill-rule="evenodd" clip-rule="evenodd" d="M40.4936 27.1607C40.4936 25.9066 39.9947 24.7023 39.1087 23.8146C38.221 22.9286 37.0167 22.4297 35.7626 22.4297H27.1607C25.9066 22.4297 24.7023 22.9286 23.8146 23.8146C22.9286 24.7023 22.4297 25.9066 22.4297 27.1607V35.7626C22.4297 37.0167 22.9286 38.221 23.8146 39.1087C24.7023 39.9947 25.9066 40.4936 27.1607 40.4936H35.7626C37.0167 40.4936 38.221 39.9947 39.1087 39.1087C39.9947 38.221 40.4936 37.0167 40.4936 35.7626V27.1607ZM35.5424 32.5816C35.9449 32.3528 36.1927 31.9244 36.1927 31.4616C36.1927 30.9989 35.9449 30.5705 35.5424 30.3417L29.5211 26.9009C29.1219 26.6721 28.6316 26.6738 28.2342 26.9044C27.8351 27.1366 27.5908 27.5616 27.5908 28.0209V34.9024C27.5908 35.3617 27.8351 35.7867 28.2342 36.0189C28.6316 36.2494 29.1219 36.2512 29.5211 36.0223L35.5424 32.5816Z" fill="#FFBF3C"/>
<path d="M15.1184 29.7427C15.831 29.7427 16.4087 29.165 16.4087 28.4524C16.4087 27.7398 15.831 27.1621 15.1184 27.1621C14.4058 27.1621 13.8281 27.7398 13.8281 28.4524C13.8281 29.165 14.4058 29.7427 15.1184 29.7427Z" fill="#FFBF3C"/>
<path fill-rule="evenodd" clip-rule="evenodd" d="M21.5698 8.23688C21.5698 6.98273 21.0709 5.77847 20.1849 4.89076C19.2972 4.00477 18.0929 3.50586 16.8387 3.50586H8.23688C6.98273 3.50586 5.77847 4.00477 4.89076 4.89076C4.00477 5.77847 3.50586 6.98273 3.50586 8.23688V16.8387C3.50586 18.0929 4.00477 19.2972 4.89076 20.1849C5.77847 21.0709 6.98273 21.5698 8.23688 21.5698H16.8387C18.0929 21.5698 19.2972 21.0709 20.1849 20.1849C21.0709 19.2972 21.5698 18.0929 21.5698 16.8387V8.23688ZM14.4612 14.4354C14.4698 14.3786 14.4732 14.3184 14.4732 14.2582V10.8174H14.9033C15.6156 10.8174 16.1936 10.2394 16.1936 9.52716C16.1936 8.81493 15.6156 8.23688 14.9033 8.23688H13.183C12.4707 8.23688 11.8927 8.81493 11.8927 9.52716V12.1077C10.4682 12.1077 9.31212 13.2638 9.31212 14.6883C9.31212 16.1127 10.4682 17.2688 11.8927 17.2688C13.3171 17.2688 14.4732 16.1127 14.4732 14.6883C14.4732 14.604 14.4698 14.5197 14.4612 14.4354Z" fill="#FFBF3C"/>
<path fill-rule="evenodd" clip-rule="evenodd" d="M11.134 33.2079L5.8146 26.3694C5.47569 25.9341 4.89936 25.7621 4.37809 25.941C3.85682 26.12 3.50586 26.6103 3.50586 27.1608L4.79614 38.7733H19.4193L20.7096 36.6228C20.7096 36.2805 20.5737 35.9519 20.3311 35.711L16.505 31.8849C15.8082 31.1864 14.7244 31.054 13.878 31.5615L11.134 33.2079Z" fill="#FFBF3C"/>
<path fill-rule="evenodd" clip-rule="evenodd" d="M40.4936 8.23688C40.4936 6.98273 39.9947 5.77847 39.1087 4.89076C38.221 4.00477 37.0167 3.50586 35.7626 3.50586H27.1607C25.9066 3.50586 24.7023 4.00477 23.8146 4.89076C22.9286 5.77847 22.4297 6.98273 22.4297 8.23688V16.8387C22.4297 18.0929 22.9286 19.2972 23.8146 20.1849C24.7023 21.0709 25.9066 21.5698 27.1607 21.5698H35.7626C37.0167 21.5698 38.221 21.0709 39.1087 20.1849C39.9947 19.2972 40.4936 18.0929 40.4936 16.8387V8.23688ZM28.0209 16.4087H34.9024C35.6146 16.4087 36.1927 15.8306 36.1927 15.1184C36.1927 14.4061 35.6146 13.8281 34.9024 13.8281H28.0209C27.3087 13.8281 26.7306 14.4061 26.7306 15.1184C26.7306 15.8306 27.3087 16.4087 28.0209 16.4087ZM28.0209 11.2475H32.3218C33.0341 11.2475 33.6121 10.6695 33.6121 9.95726C33.6121 9.24502 33.0341 8.66698 32.3218 8.66698H28.0209C27.3087 8.66698 26.7306 9.24502 26.7306 9.95726C26.7306 10.6695 27.3087 11.2475 28.0209 11.2475Z" fill="#FFBF3C"/>
</svg>
