<svg width="44" height="44" viewBox="0 0 44 44" fill="none" xmlns="http://www.w3.org/2000/svg">
<path d="M30.2513 16.041H13.7513C11.9794 16.041 10.543 17.4774 10.543 19.2493V24.7493C10.543 26.5213 11.9794 27.9577 13.7513 27.9577H30.2513C32.0232 27.9577 33.4596 26.5213 33.4596 24.7493V19.2493C33.4596 17.4774 32.0232 16.041 30.2513 16.041Z" fill="#FFBF3C"/>
<path d="M30.2513 2.29102H13.7513C11.9794 2.29102 10.543 3.72744 10.543 5.49935V10.9993C10.543 12.7713 11.9794 14.2077 13.7513 14.2077H30.2513C32.0232 14.2077 33.4596 12.7713 33.4596 10.9993V5.49935C33.4596 3.72744 32.0232 2.29102 30.2513 2.29102Z" fill="#FFBF3C"/>
<path d="M30.2513 29.791H13.7513C11.9794 29.791 10.543 31.2274 10.543 32.9993V38.4993C10.543 40.2713 11.9794 41.7077 13.7513 41.7077H30.2513C32.0232 41.7077 33.4596 40.2713 33.4596 38.4993V32.9993C33.4596 31.2274 32.0232 29.791 30.2513 29.791Z" fill="#FFBF3C"/>
<path d="M3.66729 12.3763C3.31896 12.3763 2.97063 12.2479 2.69563 11.9729C2.16396 11.4413 2.16396 10.5613 2.69563 10.0296L4.47396 8.25128L2.69563 6.47294C2.16396 5.94128 2.16396 5.06128 2.69563 4.52961C3.22729 3.99794 4.10729 3.99794 4.63896 4.52961L7.38896 7.27961C7.92063 7.81128 7.92063 8.69128 7.38896 9.22294L4.63896 11.9729C4.36396 12.2479 4.01562 12.3763 3.66729 12.3763Z" fill="#FFBF3C"/>
<path d="M37.5833 39.8763C37.235 39.8763 36.8866 39.7479 36.6116 39.4729C36.08 38.9413 36.08 38.0613 36.6116 37.5296L38.39 35.7513L36.6116 33.9729C36.08 33.4413 36.08 32.5613 36.6116 32.0296C37.1433 31.4979 38.0233 31.4979 38.555 32.0296L41.305 34.7796C41.8366 35.3113 41.8366 36.1913 41.305 36.7229L38.555 39.4729C38.28 39.7479 37.9316 39.8763 37.5833 39.8763Z" fill="#FFBF3C"/>
<path d="M36.6667 23.375H35.75C34.9983 23.375 34.375 22.7517 34.375 22C34.375 21.2483 34.9983 20.625 35.75 20.625H36.6667C37.9317 20.625 38.9583 19.5983 38.9583 18.3333V11.9167C38.9583 10.6517 37.9317 9.625 36.6667 9.625H35.75C34.9983 9.625 34.375 9.00167 34.375 8.25C34.375 7.49833 34.9983 6.875 35.75 6.875H36.6667C39.4533 6.875 41.7083 9.13 41.7083 11.9167V18.3333C41.7083 21.12 39.4533 23.375 36.6667 23.375Z" fill="#FFBF3C"/>
<path d="M8.2513 37.125H7.33464C4.54797 37.125 2.29297 34.87 2.29297 32.0833V25.6667C2.29297 22.88 4.54797 20.625 7.33464 20.625H8.2513C9.00297 20.625 9.6263 21.2483 9.6263 22C9.6263 22.7517 9.00297 23.375 8.2513 23.375H7.33464C6.06964 23.375 5.04297 24.4017 5.04297 25.6667V32.0833C5.04297 33.3483 6.06964 34.375 7.33464 34.375H8.2513C9.00297 34.375 9.6263 34.9983 9.6263 35.75C9.6263 36.5017 9.00297 37.125 8.2513 37.125Z" fill="#FFBF3C"/>
</svg>
