<svg xmlns="http://www.w3.org/2000/svg" width="44" height="44" fill="none"><path fill="#FFBF3C" fill-rule="evenodd" d="M22.612 11.282c-1.749 0-2.626 2.118-1.39 3.354a.583.583 0 0 1 0 .825l-1.255 1.256a.583.583 0 0 1-.825 0c-1.236-1.236-3.355-.36-3.355 1.39a.583.583 0 0 1-.583.583h-1.776a.583.583 0 0 1-.583-.584c0-1.75-2.117-2.627-3.355-1.389a.583.583 0 0 1-.824 0L7.41 15.461a.583.583 0 0 1 0-.825c1.236-1.236.359-3.354-1.39-3.354a.583.583 0 0 1-.583-.584V8.923c0-.322.261-.583.583-.583 1.749 0 2.626-2.119 1.39-3.355a.583.583 0 0 1 0-.825l1.256-1.256a.583.583 0 0 1 .824 0c1.237 1.237 3.355.36 3.355-1.39 0-.321.261-.582.583-.582h1.776c.322 0 .583.26.583.583 0 1.748 2.119 2.626 3.355 1.39a.583.583 0 0 1 .825 0l1.256 1.255a.583.583 0 0 1 0 .825c-1.237 1.236-.36 3.355 1.389 3.355.322 0 .583.26.583.583v1.775a.583.583 0 0 1-.583.584m12.825 23.303 3.412 1.97a1.142 1.142 0 1 0 1.137-1.98l-3.412-1.971a1.142 1.142 0 1 0-1.137 1.98m1.137-11.324 3.412-1.97a1.142 1.142 0 1 0-1.137-1.98l-3.413 1.97a1.142 1.142 0 1 0 1.137 1.98m1.904 5.82h3.735a1.148 1.148 0 1 0 0-2.297h-3.735a1.148 1.148 0 1 0 0 2.297m-6.117 1.906a3.083 3.083 0 1 0 0-6.11v-7.63a2.613 2.613 0 0 0-2.605-2.606 2.614 2.614 0 0 0-2.593 2.352c-3.319 2.654-8.39 4.774-14.155 5.666v10.547c5.766.897 10.84 3.042 14.159 5.696a2.614 2.614 0 0 0 2.59 2.322 2.613 2.613 0 0 0 2.604-2.605zM11.29 32.978v.543H6.23c-3.074 0-5.59-2.515-5.59-5.589s2.516-5.589 5.59-5.589h5.059v10.635m.186 2.262.824 6.198c.076.57-.3 1.1-.863 1.221l-1.756.38a1.07 1.07 0 0 1-.872-.176 1.08 1.08 0 0 1-.46-.761l-.926-6.862zm2.841-29.149a3.72 3.72 0 1 0 0 7.44 3.72 3.72 0 0 0 0-7.44" clip-rule="evenodd"/></svg>