<svg width="44" height="44" viewBox="0 0 44 44" fill="none" xmlns="http://www.w3.org/2000/svg">
<path d="M34.7396 33.5159C36.6386 31.438 37.9943 28.9227 38.6859 26.1941C38.2238 26.2303 37.759 26.1885 37.3109 26.0703C36.5885 28.7204 35.1896 31.1372 33.2516 33.0837C31.3135 35.0302 28.9028 36.4395 26.2559 37.1734C26.3904 37.5862 26.4578 38.018 26.4552 38.4522C28.9371 38.1566 31.8109 36.2591 33.7702 34.4991L34.8909 35.6266C35.1579 35.246 35.4854 34.9116 35.8602 34.6366L34.7396 33.5159Z" fill="#FFBF3C"/>
<path d="M38.9887 19.1127C38.5348 19.0047 38.0604 19.0189 37.6137 19.154C37.0025 19.3191 36.4628 19.6809 36.0779 20.1836C35.693 20.6863 35.4844 21.3018 35.4844 21.9349C35.4844 22.568 35.693 23.1835 36.0779 23.6862C36.4628 24.1888 37.0025 24.5507 37.6137 24.7158C38.0647 24.8323 38.5378 24.8323 38.9887 24.7158C39.6319 24.5765 40.2079 24.2212 40.621 23.709C41.0341 23.1968 41.2594 22.5586 41.2594 21.9005C41.2594 21.2425 41.0341 20.6043 40.621 20.0921C40.2079 19.5799 39.6319 19.2245 38.9887 19.0852V19.1127Z" fill="#FFBF3C"/>
<path d="M22.0398 8.44336C22.659 8.44077 23.2609 8.23876 23.7562 7.86726C24.2515 7.49575 24.614 6.97453 24.7898 6.38086C24.8671 6.1197 24.9064 5.84882 24.9067 5.57648C24.8679 4.89566 24.5893 4.25055 24.1204 3.75544C23.6514 3.26033 23.0224 2.94715 22.3447 2.8714C21.667 2.79564 20.9843 2.96218 20.4176 3.34153C19.851 3.72087 19.4368 4.28854 19.2486 4.94398C19.1479 5.39899 19.1644 5.87213 19.2967 6.31898C19.462 6.92249 19.8189 7.45597 20.3136 7.83911C20.8084 8.22224 21.4142 8.4343 22.0398 8.44336Z" fill="#FFBF3C"/>
<path d="M22.1785 35.5645C21.6235 35.5624 21.0796 35.72 20.6117 36.0184C20.1437 36.3168 19.7714 36.7434 19.5391 37.2474C19.3069 37.7515 19.2244 38.3117 19.3016 38.8613C19.3787 39.4109 19.6123 39.9267 19.9744 40.3473C20.3365 40.7679 20.812 41.0755 21.344 41.2335C21.876 41.3915 22.4423 41.3931 22.9752 41.2383C23.5082 41.0835 23.9854 40.7787 24.35 40.3602C24.7146 39.9418 24.9512 39.4274 25.0316 38.8782C25.0533 38.7371 25.0648 38.5947 25.066 38.452C25.0689 38.1239 25.013 37.7979 24.901 37.4895C24.702 36.9265 24.3333 36.439 23.8457 36.0943C23.3581 35.7496 22.7757 35.5644 22.1785 35.5645Z" fill="#FFBF3C"/>
<path d="M5.03855 24.7492C5.49308 24.855 5.96753 24.8384 6.41355 24.7011C7.02018 24.534 7.55523 24.1725 7.93654 23.672C8.31785 23.1715 8.52436 22.5597 8.52436 21.9305C8.52436 21.3012 8.31785 20.6894 7.93654 20.1889C7.55523 19.6884 7.02018 19.3269 6.41355 19.1598C5.96814 19.0203 5.49369 19.0013 5.03855 19.1048C4.39373 19.2444 3.81614 19.6005 3.40189 20.114C2.98764 20.6274 2.76172 21.2673 2.76172 21.927C2.76172 22.5868 2.98764 23.2266 3.40189 23.7401C3.81614 24.2536 4.39373 24.6097 5.03855 24.7492Z" fill="#FFBF3C"/>
<path d="M5.99594 8.64227C6.56839 8.64227 7.12799 8.47251 7.60397 8.15448C8.07994 7.83644 8.45092 7.3844 8.66999 6.85552C8.88906 6.32664 8.94638 5.74468 8.8347 5.18323C8.72302 4.62177 8.44736 4.10605 8.04257 3.70126C7.63778 3.29647 7.12206 3.02081 6.5606 2.90913C5.99915 2.79745 5.41719 2.85477 4.88831 3.07384C4.35943 3.29291 3.90739 3.66389 3.58935 4.13986C3.27131 4.61584 3.10156 5.17544 3.10156 5.74789C3.10518 6.51441 3.41128 7.24851 3.9533 7.79053C4.49532 8.33255 5.22942 8.63865 5.99594 8.64227Z" fill="#FFBF3C"/>
<path d="M9.44531 10.1626C7.46068 12.2782 6.0419 14.8604 5.32031 17.6701C5.78315 17.636 6.2484 17.6825 6.69531 17.8076C7.41895 15.1256 8.83634 12.6816 10.8048 10.7216C12.7733 8.76154 15.2234 7.35467 17.9084 6.64258C17.7817 6.19598 17.7351 5.73044 17.7709 5.26758C15.0382 5.95536 12.518 7.30871 10.4353 9.20695L9.49344 8.21695C9.23344 8.60754 8.90226 8.94572 8.51719 9.21383L9.44531 10.1626Z" fill="#FFBF3C"/>
<path d="M38.3563 8.64226C38.929 8.64362 39.4893 8.47502 39.9661 8.15781C40.443 7.8406 40.8151 7.38904 41.0352 6.86029C41.2553 6.33153 41.3136 5.74935 41.2027 5.18745C41.0918 4.62554 40.8167 4.10917 40.4122 3.70369C40.0077 3.29822 39.492 3.02188 38.9303 2.90964C38.3687 2.7974 37.7864 2.85431 37.2571 3.07318C36.7278 3.29204 36.2754 3.66302 35.957 4.13914C35.6387 4.61527 35.4688 5.17514 35.4688 5.74788C35.4706 6.51378 35.7751 7.24788 36.3161 7.79009C36.857 8.33231 37.5904 8.63863 38.3563 8.64226Z" fill="#FFBF3C"/>
<path d="M37.2898 17.7998C37.737 17.6768 38.2023 17.6326 38.6648 17.6692C37.9761 14.9394 36.6201 12.4234 34.7185 10.3473L35.8391 9.21984C35.4721 8.94842 35.1497 8.62135 34.8835 8.25047L33.7698 9.37109C31.6714 7.38472 29.102 5.96515 26.3035 5.24609C26.3376 5.70893 26.2911 6.17418 26.166 6.62109C28.8362 7.34806 31.2689 8.76308 33.2209 10.7248C35.173 12.6864 36.576 15.1261 37.2898 17.7998Z" fill="#FFBF3C"/>
<path d="M38.3553 35.2207C37.7829 35.2207 37.2233 35.3905 36.7473 35.7085C36.2713 36.0265 35.9003 36.4786 35.6813 37.0074C35.4622 37.5363 35.4049 38.1183 35.5166 38.6797C35.6282 39.2412 35.9039 39.7569 36.3087 40.1617C36.7135 40.5665 37.2292 40.8422 37.7907 40.9538C38.3521 41.0655 38.9341 41.0082 39.4629 40.7891C39.9918 40.5701 40.4439 40.1991 40.7619 39.7231C41.0799 39.2471 41.2497 38.6875 41.2497 38.1151C41.2461 37.3486 40.94 36.6145 40.398 36.0724C39.8559 35.5304 39.1218 35.2243 38.3553 35.2207Z" fill="#FFBF3C"/>
<path d="M5.995 35.2207C5.42226 35.2194 4.86198 35.3879 4.3851 35.7052C3.90822 36.0224 3.53617 36.4739 3.31605 37.0027C3.09593 37.5314 3.03763 38.1136 3.14853 38.6755C3.25943 39.2374 3.53455 39.7538 3.93906 40.1593C4.34357 40.5647 4.85929 40.8411 5.42093 40.9533C5.98257 41.0656 6.56488 41.0087 7.09416 40.7898C7.62344 40.5709 8.07589 40.2 8.39423 39.7238C8.71257 39.2477 8.8825 38.6878 8.8825 38.1151C8.88069 37.3492 8.57612 36.6151 8.03519 36.0729C7.49427 35.5307 6.76089 35.2243 5.995 35.2207Z" fill="#FFBF3C"/>
<path d="M6.73047 26.0645C6.28273 26.185 5.81789 26.2291 5.35547 26.1951C6.06963 29.0137 7.48915 31.6044 9.48047 33.7232L8.53172 34.6582C8.91021 34.9313 9.2402 35.2659 9.50797 35.6482L10.4705 34.6926C12.5876 36.6128 15.1522 37.9719 17.9298 38.6457C17.923 38.5817 17.923 38.5172 17.9298 38.4532C17.9323 38.0502 17.9925 37.6497 18.1086 37.2638C15.389 36.5743 12.9018 35.1737 10.9023 33.2056C8.90281 31.2375 7.46294 28.7728 6.73047 26.0645Z" fill="#FFBF3C"/>
<path d="M21.9235 9.95508C19.5548 9.95508 17.2394 10.6575 15.2699 11.9734C13.3004 13.2894 11.7654 15.1598 10.8589 17.3482C9.95245 19.5366 9.71529 21.9446 10.1774 24.2678C10.6395 26.5909 11.7801 28.7249 13.455 30.3998C15.1299 32.0747 17.2639 33.2154 19.5871 33.6775C21.9102 34.1396 24.3183 33.9024 26.5066 32.9959C28.695 32.0895 30.5654 30.5545 31.8814 28.585C33.1974 26.6155 33.8998 24.3 33.8998 21.9313C33.8961 18.7561 32.6332 15.7121 30.388 13.4669C28.1428 11.2217 25.0987 9.95872 21.9235 9.95508ZM21.9235 14.582C22.5798 14.582 23.2213 14.7768 23.7667 15.1419C24.312 15.5069 24.7368 16.0257 24.987 16.6324C25.2371 17.2391 25.3016 17.9064 25.172 18.5498C25.0425 19.1932 24.7248 19.7836 24.2593 20.2462C23.7938 20.7088 23.2014 21.0228 22.5573 21.1483C21.9131 21.2738 21.2462 21.2052 20.641 20.9513C20.0359 20.6973 19.5198 20.2693 19.1582 19.7217C18.7966 19.174 18.6057 18.5313 18.6098 17.8751C18.6152 16.9998 18.9667 16.1622 19.5876 15.5452C20.2085 14.9282 21.0482 14.5819 21.9235 14.582ZM27.9666 28.5863C27.9666 28.7687 27.8942 28.9435 27.7653 29.0725C27.6364 29.2014 27.4615 29.2738 27.2791 29.2738H16.5816C16.3993 29.2738 16.2244 29.2014 16.0955 29.0725C15.9666 28.9435 15.8941 28.7687 15.8941 28.5863V27.4038C15.896 26.1171 16.4079 24.8836 17.3178 23.9737C18.2276 23.0639 19.4612 22.5519 20.7479 22.5501H23.1198C24.4065 22.5519 25.64 23.0639 26.5499 23.9737C27.4597 24.8836 27.9717 26.1171 27.9735 27.4038L27.9666 28.5863Z" fill="#FFBF3C"/>
<path d="M21.925 19.8129C22.3057 19.8129 22.6779 19.7 22.9945 19.4885C23.311 19.2769 23.5578 18.9763 23.7035 18.6246C23.8492 18.2728 23.8873 17.8858 23.813 17.5123C23.7387 17.1389 23.5554 16.7959 23.2862 16.5267C23.017 16.2575 22.674 16.0742 22.3005 15.9999C21.9271 15.9256 21.5401 15.9637 21.1883 16.1094C20.8366 16.2551 20.5359 16.5019 20.3244 16.8184C20.1129 17.135 20 17.5072 20 17.8879C20 18.3984 20.2028 18.8881 20.5638 19.2491C20.9248 19.6101 21.4145 19.8129 21.925 19.8129Z" fill="#FFBF3C"/>
<path d="M23.1141 23.9318H20.7422C19.8305 23.9318 18.9562 24.2939 18.3115 24.9386C17.6669 25.5832 17.3047 26.4576 17.3047 27.3693V27.8574H26.5791V27.3693C26.5791 26.9155 26.4893 26.4663 26.3148 26.0474C26.1403 25.6285 25.8847 25.2484 25.5625 24.9288C25.2404 24.6092 24.8582 24.3566 24.438 24.1855C24.0177 24.0144 23.5678 23.9281 23.1141 23.9318Z" fill="#FFBF3C"/>
</svg>
