<svg width="44" height="44" viewBox="0 0 44 44" fill="none" xmlns="http://www.w3.org/2000/svg">
<g clip-path="url(#clip0_922_16676)">
<path d="M44 7.73438H41.4219V2.57812H36.2656V0H44V7.73438Z" fill="#FFBF3C"/>
<path d="M44 44H36.2656V41.4219H41.4219V36.2656H44V44Z" fill="#FFBF3C"/>
<path d="M7.73438 44H0V36.2656H2.57812V41.4219H7.73438V44Z" fill="#FFBF3C"/>
<path d="M2.57812 7.73438H0V0H7.73438V2.57812H2.57812V7.73438Z" fill="#FFBF3C"/>
<path d="M5.24219 10.3984V31.0234H10.3984V37.3957L19.3187 31.0234H38.7578V10.3984H5.24219ZM12.9766 23.2891H10.3984V18.1328H12.9766V23.2891ZM18.1328 25.8672H15.5547V15.5547H18.1328V25.8672ZM23.2891 23.2891H20.7109V18.1328H23.2891V23.2891ZM28.4453 25.8672H25.8672V15.5547H28.4453V25.8672ZM33.6016 23.2891H31.0234V18.1328H33.6016V23.2891Z" fill="#FFBF3C"/>
</g>
<defs>
<clipPath id="clip0_922_16676">
<rect width="44" height="44" fill="white"/>
</clipPath>
</defs>
</svg>
