<svg xmlns="http://www.w3.org/2000/svg" width="44" height="44" fill="none"><path fill="#FFBF3C" d="M37.402 24.934a9.53 9.53 0 0 0-9.534-9.534 9.53 9.53 0 0 0-9.531 9.534 2.2 2.2 0 0 0-2.2 2.2v7.333a2.2 2.2 0 0 0 2.2 2.2h4.4a.73.73 0 0 0 .731-.733V30.8c0-.806-.293-2.057-.654-2.778l-1.544-3.088a6.6 6.6 0 1 1 13.199 0l-1.544 3.088c-.36.722-.656 1.972-.656 2.778v5.303a8.1 8.1 0 0 1-4.4 1.297h-1.467v2.2h1.466c2.81 0 5.352-1.121 7.22-2.933h2.314a2.2 2.2 0 0 0 2.2-2.2v-7.333a2.2 2.2 0 0 0-2.2-2.2"/><path fill="#FFBF3C" d="M27.865 13.2c.498 0 .986.042 1.467.102V7.334A2.943 2.943 0 0 0 26.398 4.4H7.332a2.94 2.94 0 0 0-2.934 2.934v8.8a2.94 2.94 0 0 0 2.934 2.933v4.4l7.333-4.4h3.056c2.032-3.5 5.813-5.867 10.144-5.867m-5.867-2.933a1.466 1.466 0 1 1 0 2.933 1.467 1.467 0 0 1 0-2.933M11.732 13.2a1.467 1.467 0 1 1 0-2.933 1.467 1.467 0 0 1 0 2.933m3.666-1.466a1.467 1.467 0 1 1 2.934 0 1.467 1.467 0 0 1-2.934 0"/></svg>