<svg width="44" height="44" viewBox="0 0 44 44" fill="none" xmlns="http://www.w3.org/2000/svg">
<path d="M5.02537 17.2319C6.20938 13.0159 8.9052 9.40946 12.6162 7.07696C15.999 4.95062 20.0651 4.04145 24.0653 4.51652C26.9253 4.85628 29.6603 5.88586 32.01 7.47899H30.0395V9.81976H36.5353V3.44723H34.1945V6.16701C31.3518 4.00876 27.9328 2.61867 24.3414 2.19206C19.8116 1.65409 15.205 2.68499 11.3704 5.09506C7.16677 7.7372 4.11308 11.8227 2.77176 16.5991C1.44004 21.341 1.8963 26.3775 4.05635 30.7808L6.15787 29.7499C4.25182 25.8643 3.84964 21.4187 5.02537 17.2319Z" fill="#FFBF3C"/>
<path d="M39.3868 12.1777L37.3499 13.3311C39.5862 17.2807 40.2078 21.8864 39.1002 26.3001C37.9892 30.7273 35.2481 34.5037 31.3822 36.9336C28.5888 38.6894 25.3589 39.6062 22.0708 39.606C21.1658 39.6059 20.2558 39.5364 19.35 39.3959C16.1686 38.9022 13.1962 37.5651 10.7475 35.5587H13.3268V33.2179H6.51758V39.9283H8.85835V37.0281C11.7033 39.4876 15.2179 41.1236 18.9911 41.7091C20.0165 41.8682 21.046 41.9469 22.0707 41.9469C25.7968 41.9468 29.4595 40.907 32.6279 38.9156C37.0071 36.163 40.1119 31.8852 41.3705 26.8699C42.6251 21.8705 41.9206 16.6528 39.3868 12.1777Z" fill="#FFBF3C"/>
<path d="M23.221 29.6756V26.7841C22.8407 26.8598 22.4478 26.9002 22.0456 26.9002C21.6033 26.9002 21.1725 26.8508 20.7572 26.7598V29.6756H16.2143C15.2606 29.6756 14.3532 29.9761 13.5996 30.5317C15.7661 32.6562 18.7317 33.9687 21.9986 33.9687C25.2613 33.9687 28.2234 32.6597 30.3892 30.5399C29.6352 29.979 28.7273 29.6756 27.7637 29.6756H23.221Z" fill="#FFBF3C"/>
<path d="M21.9995 9.96094C15.3808 9.96094 9.99609 15.3456 9.99609 21.9643C9.99609 24.4748 10.7714 26.8073 12.0942 28.7362C13.2703 27.8274 14.7043 27.3335 16.2151 27.3335H18.4169V25.676C16.9704 24.5771 16.0343 22.8396 16.0343 20.887V18.928V16.8941C16.0343 14.9913 17.5823 13.4433 19.4851 13.4433H24.6077C26.5104 13.4433 28.0585 14.9913 28.0585 16.8941V20.8871C28.0585 22.8899 27.0731 24.6659 25.5628 25.7591V27.3335H27.7647C29.2644 27.3335 30.7219 27.8394 31.8978 28.7462C33.2249 26.8153 34.0029 24.4791 34.0029 21.9643C34.0027 15.3456 28.6181 9.96094 21.9995 9.96094Z" fill="#FFBF3C"/>
<path d="M25.4315 22.3054C25.0614 22.426 24.6669 22.4919 24.2572 22.4919H22.5461V20.1509H24.2572C25.0622 20.1509 25.7172 19.4959 25.7172 18.6909V16.893C25.7172 16.2811 25.2193 15.7832 24.6074 15.7832H19.4848C18.8729 15.7832 18.375 16.2811 18.375 16.893V18.9269V20.886C18.375 22.9102 20.0218 24.5571 22.0461 24.5571C23.5674 24.5571 24.8754 23.6269 25.4315 22.3054Z" fill="#FFBF3C"/>
</svg>
