<svg width="44" height="44" viewBox="0 0 44 44" fill="none" xmlns="http://www.w3.org/2000/svg">
<g clip-path="url(#clip0_1611_6508)">
<path d="M6.96094 8.16406C6.96094 8.36455 6.96833 8.56496 6.9832 8.76485C3.03884 9.33866 0 12.7429 0 16.8438C0 18.7339 0.657508 20.5531 1.83666 22C0.657508 23.4469 0 25.2661 0 27.1562C0 31.2571 3.03884 34.6613 6.9832 35.2351C6.96833 35.435 6.96094 35.6354 6.96094 35.8359C6.96094 40.3376 10.6233 44 15.125 44C17.2838 44 19.2495 43.1576 20.7109 41.7844V2.21555C19.2495 0.842359 17.2838 0 15.125 0C10.6233 0 6.96094 3.6624 6.96094 8.16406Z" fill="#FFBF3C"/>
<path d="M29.7344 14.6953C30.4463 14.6953 31.0234 14.1182 31.0234 13.4062C31.0234 12.6943 30.4463 12.1172 29.7344 12.1172C29.0224 12.1172 28.4453 12.6943 28.4453 13.4062C28.4453 14.1182 29.0224 14.6953 29.7344 14.6953Z" fill="#FFBF3C"/>
<path d="M44 16.8438C44 12.7429 40.9612 9.33866 37.0168 8.76485C37.0317 8.56496 37.0391 8.36455 37.0391 8.16406C37.0391 3.6624 33.3767 0 28.875 0C26.7162 0 24.7505 0.842359 23.2891 2.21555V12.1172H26.0889C26.621 10.6168 28.0539 9.53906 29.7344 9.53906C31.8667 9.53906 33.6016 11.2739 33.6016 13.4062C33.6016 15.5386 31.8667 17.2734 29.7344 17.2734C28.0539 17.2734 26.621 16.1957 26.0889 14.6953H23.2891V20.7109H29.5264C30.0585 19.2106 31.4914 18.1328 33.1719 18.1328C35.3042 18.1328 37.0391 19.8676 37.0391 22C37.0391 24.1324 35.3042 25.8672 33.1719 25.8672C31.4914 25.8672 30.0585 24.7894 29.5264 23.2891H23.2891V29.3047H26.0889C26.621 27.8043 28.0539 26.7266 29.7344 26.7266C31.8667 26.7266 33.6016 28.4614 33.6016 30.5938C33.6016 32.7261 31.8667 34.4609 29.7344 34.4609C28.0539 34.4609 26.621 33.3832 26.0889 31.8828H23.2891V41.7844C24.7505 43.1576 26.7162 44 28.875 44C33.3767 44 37.0391 40.3376 37.0391 35.8359C37.0391 35.6354 37.0317 35.435 37.0168 35.2351C40.9612 34.6613 44 31.2571 44 27.1562C44 25.2661 43.3425 23.4469 42.1633 22C43.3425 20.5531 44 18.7339 44 16.8438Z" fill="#FFBF3C"/>
<path d="M29.7344 31.8828C30.4463 31.8828 31.0234 31.3057 31.0234 30.5938C31.0234 29.8818 30.4463 29.3047 29.7344 29.3047C29.0224 29.3047 28.4453 29.8818 28.4453 30.5938C28.4453 31.3057 29.0224 31.8828 29.7344 31.8828Z" fill="#FFBF3C"/>
<path d="M33.1719 23.2891C33.8838 23.2891 34.4609 22.7119 34.4609 22C34.4609 21.2881 33.8838 20.7109 33.1719 20.7109C32.4599 20.7109 31.8828 21.2881 31.8828 22C31.8828 22.7119 32.4599 23.2891 33.1719 23.2891Z" fill="#FFBF3C"/>
</g>
<defs>
<clipPath id="clip0_1611_6508">
<rect width="44" height="44" fill="white"/>
</clipPath>
</defs>
</svg>
