<svg xmlns="http://www.w3.org/2000/svg" width="44" height="44" fill="none"><path fill="#FFBF3C" fill-rule="evenodd" d="M35.994 18.648a4.013 4.013 0 0 0-4.011-4.012H12.016a4.013 4.013 0 0 0-4.012 4.012v19.966a4.014 4.014 0 0 0 4.012 4.012c29.49-.677 23.294 5.488 23.978-23.978M21.57 38.45h-3.436c-.562.01-.567.849 0 .86h7.732c.563-.01.567-.85 0-.86H22.43V35.3a5.203 5.203 0 0 0 4.77-5.181v-6.993c-.176-6.855-10.224-6.857-10.4 0v6.993a5.203 5.203 0 0 0 4.77 5.182zm4.77-10.236v1.905a4.34 4.34 0 0 1-4.34 4.34 4.34 4.34 0 0 1-4.34-4.34v-1.905zm-12.835 1.37c-1.67-1.481-1.669-4.443 0-5.924.404-.387-.185-1.009-.594-.621-2.019 1.791-2.019 5.375 0 7.167.408.384.999-.23.594-.622m17.584.622c2.019-1.792 2.019-5.376 0-7.167a.43.43 0 0 0-.594.621c1.67 1.481 1.67 4.443 0 5.924-.404.388.185 1.009.594.622m-16.545-1.71a2.58 2.58 0 0 1-.802-1.873c0-.737.308-1.401.802-1.873.405-.389-.185-1.01-.593-.621-1.405 1.247-1.405 3.74 0 4.987.408.385.998-.23.593-.62m15.505.62c1.405-1.247 1.405-3.74 0-4.987a.43.43 0 0 0-.607.013c-.522.616.828.824.816 2.48 0 .736-.308 1.401-.802 1.873-.405.388.185 1.008.593.621m-14.53-1.643c-.48-.42-.479-1.283 0-1.702a.43.43 0 0 0 .014-.608c-.678-.567-1.279.892-1.238 1.46 0 .579.242 1.101.63 1.473.409.384.998-.232.594-.623m13.556.623a2.03 2.03 0 0 0 .63-1.474c.041-.567-.56-2.026-1.238-1.459a.43.43 0 0 0 .014.608 1.174 1.174 0 0 1 0 1.702c-.404.39.185 1.008.594.623m-2.735-.741h-8.68v-1.132h8.68zm-8.68-1.992v-2.237a4.34 4.34 0 0 1 4.34-4.34 4.34 4.34 0 0 1 4.34 4.34v2.237zM13.55 14.12h3.595V9.823c.165-6.4 9.542-6.398 9.706 0 0 .992.805 1.798 1.797 1.798s1.798-.806 1.798-1.798c-.288-11.141-16.61-11.137-16.896 0z" clip-rule="evenodd"/></svg>