<svg width="44" height="44" viewBox="0 0 44 44" fill="none" xmlns="http://www.w3.org/2000/svg">
<g clip-path="url(#clip0_1682_2362)">
<path d="M12.9766 32.4145V35.5071L8.68888 37.8892C8.09849 37.4118 7.34791 37.125 6.53125 37.125C4.63581 37.125 3.09375 38.6671 3.09375 40.5625C3.09375 42.4579 4.63581 44 6.53125 44C8.42669 44 9.96875 42.4579 9.96875 40.5625C9.96875 40.4201 9.95904 40.28 9.94211 40.1422L14.8916 37.3924C15.3009 37.1651 15.5547 36.7337 15.5547 36.2656V31.4961L14.9413 31.8642C14.3474 32.2205 13.6685 32.4101 12.9766 32.4145Z" fill="#FFBF3C"/>
<path d="M23.2891 37.3767V35.2344H20.7109V37.3767C19.4526 37.8878 18.5625 39.1228 18.5625 40.5625C18.5625 42.4579 20.1046 44 22 44C23.8954 44 25.4375 42.4579 25.4375 40.5625C25.4375 39.1228 24.5475 37.8878 23.2891 37.3767Z" fill="#FFBF3C"/>
<path d="M37.4688 37.125C36.6521 37.125 35.9015 37.4118 35.3111 37.8892L31.0234 35.5071V32.4145C30.3315 32.41 29.6526 32.2205 29.0588 31.8642L28.4453 31.4961V36.2656C28.4453 36.7337 28.6991 37.1651 29.1084 37.3924L34.0579 40.1422C34.041 40.28 34.0312 40.4201 34.0312 40.5625C34.0312 42.4579 35.5733 44 37.4688 44C39.3642 44 40.9062 42.4579 40.9062 40.5625C40.9062 38.6671 39.3642 37.125 37.4688 37.125Z" fill="#FFBF3C"/>
<path d="M31.96 29.4596L35.1315 26.288C35.5498 25.8698 35.6297 25.2205 35.3254 24.7133L34.1474 22.7499C34.5464 21.9954 34.8747 21.2008 35.128 20.3772L37.3517 19.8213C37.9255 19.6779 38.3281 19.1623 38.3281 18.5707V14.0855C38.3281 13.494 37.9255 12.9784 37.3517 12.8349L35.128 12.279C34.8747 11.4555 34.5463 10.6608 34.1474 9.90627L35.3254 7.94286C35.6297 7.43566 35.5498 6.7864 35.1315 6.36814L31.9601 3.19662C31.5418 2.77836 30.8926 2.69844 30.3854 3.00274L28.4219 4.18077C27.6673 3.78177 26.8727 3.4534 26.0492 3.20014L25.4933 0.976422C25.3498 0.402531 24.8341 0 24.2426 0H19.7574C19.1659 0 18.6502 0.402531 18.5068 0.976422L17.9509 3.20014C17.1275 3.45331 16.3328 3.78185 15.5783 4.18077L13.6147 3.00274C13.1075 2.69844 12.4583 2.77836 12.0401 3.19662L8.86858 6.36814C8.45032 6.7864 8.3704 7.43566 8.6747 7.94286L9.85273 9.90627C9.45373 10.6608 9.12536 11.4555 8.8721 12.279L6.64838 12.8349C6.07441 12.9784 5.67188 13.494 5.67188 14.0855V18.5707C5.67188 19.1623 6.07441 19.6779 6.6483 19.8213L8.87202 20.3772C9.12527 21.2008 9.45373 21.9954 9.85256 22.7499L8.67462 24.7133C8.37031 25.2205 8.45023 25.8698 8.86849 26.288L12.04 29.4596C12.4583 29.8779 13.1075 29.9578 13.6147 29.6535L15.5781 28.4755C16.3328 28.8745 17.1274 29.2029 17.9508 29.4562L18.5067 31.6799C18.6502 32.2537 19.1658 32.6563 19.7573 32.6563H24.2425C24.834 32.6563 25.3497 32.2538 25.4931 31.6799L26.049 29.4562C26.8724 29.203 27.6671 28.8745 28.4217 28.4755L30.3851 29.6535C30.8925 29.9578 31.5417 29.8779 31.96 29.4596ZM22 22.3438C18.6777 22.3438 15.9844 19.6505 15.9844 16.3281C15.9844 13.0058 18.6777 10.3125 22 10.3125C25.3223 10.3125 28.0156 13.0058 28.0156 16.3281C28.0156 19.6505 25.3223 22.3438 22 22.3438Z" fill="#FFBF3C"/>
</g>
<defs>
<clipPath id="clip0_1682_2362">
<rect width="44" height="44" fill="white"/>
</clipPath>
</defs>
</svg>
