<svg width="44" height="44" viewBox="0 0 44 44" fill="none" xmlns="http://www.w3.org/2000/svg">
<g clip-path="url(#clip0_1682_2369)">
<path d="M3.86719 18.0469H16.2239L21.0026 22.8255C21.2493 23.0722 21.5789 23.2032 21.9144 23.2031C22.0804 23.2031 22.2479 23.1711 22.4074 23.105C22.8891 22.9054 23.2032 22.4354 23.2032 21.9141V18.0469H26.211C28.3434 18.0469 30.0782 16.3121 30.0782 14.1797V3.86719C30.0782 1.73482 28.3434 0 26.211 0H3.86719C1.73482 0 0 1.73482 0 3.86719V14.1797C0 16.3121 1.73482 18.0469 3.86719 18.0469ZM6.44531 5.15625H23.6328C24.3447 5.15625 24.9219 5.73341 24.9219 6.44531C24.9219 7.15722 24.3447 7.73438 23.6328 7.73438H6.44531C5.73341 7.73438 5.15625 7.15722 5.15625 6.44531C5.15625 5.73341 5.73341 5.15625 6.44531 5.15625ZM6.44531 10.3125H23.6328C24.3447 10.3125 24.9219 10.8897 24.9219 11.6016C24.9219 12.3135 24.3447 12.8906 23.6328 12.8906H6.44531C5.73341 12.8906 5.15625 12.3135 5.15625 11.6016C5.15625 10.8897 5.73341 10.3125 6.44531 10.3125Z" fill="#FFBF3C"/>
<path d="M17.6172 29.2188H16.1984C16.031 28.397 15.7059 27.6323 15.2576 26.956L16.2634 25.9503C16.7668 25.447 16.7668 24.6307 16.2634 24.1273C15.76 23.6239 14.9438 23.6239 14.4404 24.1273L13.4346 25.1331C12.7584 24.6847 11.9936 24.3597 11.172 24.1923V22.7734C11.172 22.0615 10.5948 21.4844 9.8829 21.4844C9.17099 21.4844 8.59384 22.0615 8.59384 22.7734V24.1922C7.77219 24.3596 7.00743 24.6847 6.33119 25.133L5.32538 24.1272C4.82204 23.6239 4.0058 23.6239 3.50238 24.1272C2.99905 24.6305 2.99905 25.4468 3.50238 25.9502L4.5082 26.9559C4.05977 27.6322 3.73476 28.3969 3.56735 29.2187H2.14844C1.43653 29.2187 0.859375 29.7958 0.859375 30.5077C0.859375 31.2196 1.43653 31.7968 2.14844 31.7968H3.56718C3.73467 32.6185 4.05969 33.3833 4.50802 34.0595L3.50221 35.0653C2.99879 35.5686 2.99879 36.3848 3.50221 36.8882C3.75401 37.14 4.08384 37.2659 4.41375 37.2659C4.74358 37.2659 5.07358 37.14 5.3252 36.8882L6.33102 35.8824C7.00726 36.3309 7.77202 36.6559 8.59366 36.8233V38.2422C8.59366 38.9541 9.17082 39.5312 9.88273 39.5312C10.5946 39.5312 11.1718 38.9541 11.1718 38.2422V36.8234C11.9934 36.656 12.7582 36.3309 13.4344 35.8826L14.4402 36.8884C14.692 37.1401 15.0219 37.266 15.3517 37.266C15.6815 37.266 16.0115 37.1401 16.2632 36.8884C16.7666 36.3851 16.7666 35.5688 16.2632 35.0654L15.2574 34.0597C15.7059 33.3835 16.0309 32.6187 16.1983 31.797H17.6172C18.3291 31.797 18.9062 31.2198 18.9062 30.5079C18.9062 29.796 18.3291 29.2188 17.6172 29.2188ZM9.88281 31.7969C9.17091 31.7969 8.59375 31.2197 8.59375 30.5078C8.59375 29.7959 9.17091 29.2188 9.88281 29.2188C10.5947 29.2188 11.1719 29.7959 11.1719 30.5078C11.1719 31.2197 10.5947 31.7969 9.88281 31.7969Z" fill="#FFBF3C"/>
<path d="M43.354 34.2056L42.297 33.5953C42.3471 33.1939 42.3724 32.7937 42.3724 32.3984C42.3724 32.0031 42.3471 31.603 42.297 31.2016L43.354 30.5913C43.9706 30.2353 44.1818 29.4469 43.8258 28.8304L41.2477 24.3649C40.8918 23.7484 40.1034 23.5371 39.4869 23.8931L38.4253 24.506C37.7818 24.0181 37.0902 23.6158 36.3568 23.3029V22.0859C36.3568 21.374 35.7796 20.7969 35.0677 20.7969H29.9114C29.1995 20.7969 28.6224 21.374 28.6224 22.0859V23.3028C27.8889 23.6157 27.1974 24.018 26.5539 24.5059L25.4924 23.893C24.8759 23.5371 24.0875 23.7483 23.7315 24.3648L21.1534 28.8303C20.7974 29.4468 21.0087 30.2352 21.6252 30.5912L22.6822 31.2015C22.6321 31.6029 22.6068 32.003 22.6068 32.3984C22.6068 32.7937 22.6321 33.1938 22.6822 33.5952L21.6252 34.2055C21.0087 34.5615 20.7974 35.3499 21.1534 35.9664L23.7315 40.4319C24.0875 41.0485 24.8758 41.2597 25.4925 40.9037L26.554 40.2908C27.1976 40.7788 27.889 41.181 28.6225 41.4939V42.7109C28.6225 43.4228 29.1996 44 29.9115 44H35.0678C35.7797 44 36.3568 43.4228 36.3568 42.7109V41.494C37.0903 41.1811 37.7817 40.7789 38.4254 40.2909L39.4869 40.9038C40.1034 41.2597 40.8918 41.0485 41.2477 40.432L43.8258 35.9665C44.1818 35.35 43.9706 34.5616 43.354 34.2056ZM32.4896 36.2656C30.3572 36.2656 28.6224 34.5308 28.6224 32.3984C28.6224 30.2661 30.3572 28.5312 32.4896 28.5312C34.6219 28.5312 36.3568 30.2661 36.3568 32.3984C36.3568 34.5308 34.6219 36.2656 32.4896 36.2656Z" fill="#FFBF3C"/>
</g>
<defs>
<clipPath id="clip0_1682_2369">
<rect width="44" height="44" fill="white"/>
</clipPath>
</defs>
</svg>
