<svg xmlns="http://www.w3.org/2000/svg" width="44" height="44" fill="none"><path fill="#FFBF3C" d="M34.742 33.516a17.1 17.1 0 0 0 3.946-7.322 4.1 4.1 0 0 1-1.375-.124 15.85 15.85 0 0 1-11.055 11.103c.134.413.202.845.2 1.28 2.481-.296 5.355-2.194 7.314-3.954l1.12 1.128c.268-.381.595-.715.97-.99zM38.989 19.113a2.64 2.64 0 0 0-1.375.041 2.88 2.88 0 0 0 0 5.562c.45.116.924.116 1.375 0a2.88 2.88 0 0 0 0-5.63zM22.04 8.443a2.88 2.88 0 0 0 2.867-2.867 2.887 2.887 0 0 0-5.658-.632c-.101.455-.085.928.048 1.375a2.89 2.89 0 0 0 2.743 2.124M22.179 35.565a2.894 2.894 0 1 0 2.853 3.313q.032-.21.034-.426a2.887 2.887 0 0 0-2.887-2.887M5.039 24.75c.454.105.929.088 1.375-.049a2.874 2.874 0 0 0 0-5.541 2.64 2.64 0 0 0-1.375-.055 2.888 2.888 0 0 0 0 5.644M5.996 8.642a2.894 2.894 0 1 0-2.894-2.894 2.91 2.91 0 0 0 2.894 2.894M9.445 10.163A17.24 17.24 0 0 0 5.32 17.67c.463-.034.928.012 1.375.138A15.81 15.81 0 0 1 17.908 6.643a3.9 3.9 0 0 1-.137-1.375 17.1 17.1 0 0 0-7.336 3.939l-.942-.99a3.7 3.7 0 0 1-.976.997zM38.356 8.642a2.894 2.894 0 1 0-2.887-2.894 2.9 2.9 0 0 0 2.887 2.894M37.288 17.8a4 4 0 0 1 1.375-.13 17 17 0 0 0-3.946-7.323l1.12-1.127a4.4 4.4 0 0 1-.955-.97l-1.114 1.121a17 17 0 0 0-7.466-4.125c.034.463-.013.928-.138 1.375A15.81 15.81 0 0 1 37.288 17.8M38.355 35.22a2.895 2.895 0 1 0 2.895 2.895 2.91 2.91 0 0 0-2.895-2.894M5.995 35.22a2.894 2.894 0 1 0 2.888 2.895 2.9 2.9 0 0 0-2.888-2.894M6.73 26.065c-.447.12-.912.164-1.375.13a17.14 17.14 0 0 0 4.125 7.528l-.948.935c.378.273.708.608.976.99l.963-.955a17.1 17.1 0 0 0 7.459 3.953 1 1 0 0 1 0-.193 4.2 4.2 0 0 1 .179-1.19A15.81 15.81 0 0 1 6.73 26.066"/><path fill="#FFBF3C" d="M21.922 9.955a11.977 11.977 0 1 0 11.976 11.976A11.99 11.99 0 0 0 21.922 9.955m0 4.627a3.313 3.313 0 1 1 0 6.626 3.313 3.313 0 0 1 0-6.626m6.043 14.004a.687.687 0 0 1-.688.688H16.58a.687.687 0 0 1-.688-.688v-1.182a4.86 4.86 0 0 1 4.854-4.854h2.372a4.86 4.86 0 0 1 4.854 4.854z"/><path fill="#FFBF3C" d="M21.925 19.813a1.925 1.925 0 1 0 0-3.85 1.925 1.925 0 0 0 0 3.85M23.114 23.932h-2.372a3.437 3.437 0 0 0-3.437 3.437v.488h9.274v-.488a3.437 3.437 0 0 0-3.465-3.437"/></svg>