<svg width="44" height="44" viewBox="0 0 44 44" fill="none" xmlns="http://www.w3.org/2000/svg">
<path d="M25.8291 6.89632C25.8291 8.07935 24.8748 9.03358 23.6983 9.03358H12.7831C11.6066 9.03358 10.6523 8.07935 10.6523 6.89632C10.6523 6.30806 10.8876 5.77864 11.2798 5.38646C11.6589 5.0074 12.1948 4.76556 12.7831 4.76556H14.6786C14.7308 2.83742 16.2995 1.29492 18.2407 1.29492C20.1819 1.29492 21.7571 2.83742 21.8094 4.76556H23.6983C24.8748 4.76556 25.8291 5.7198 25.8291 6.89632Z" fill="#FFBF3C"/>
<path d="M32.7617 16.7562C32.8285 16.7562 32.902 16.7562 32.9687 16.7629V10.0432C32.9687 8.3132 31.5727 6.92383 29.8561 6.92383H27.1642C27.1508 8.82749 25.6012 10.3705 23.6974 10.3705H12.783C10.8793 10.3705 9.32962 8.8275 9.31629 6.92383H6.6244C4.90774 6.92383 3.51172 8.31319 3.51172 10.0432V39.5937C3.51172 41.3104 4.90774 42.7064 6.6244 42.7064H29.8561C31.5727 42.7064 32.9687 41.3104 32.9687 39.5937V34.8713C32.902 34.8779 32.8285 34.8779 32.7617 34.8779C27.772 34.8779 23.7108 30.8168 23.7108 25.8204C23.7108 20.8241 27.772 16.7562 32.7617 16.7562ZM17.1715 13.884H28.3932C28.7606 13.884 29.0612 14.1779 29.0612 14.5519C29.0612 14.9193 28.7606 15.2199 28.3932 15.2199H17.1715C16.8041 15.2199 16.5035 14.9193 16.5035 14.5519C16.5035 14.1779 16.8041 13.884 17.1715 13.884ZM17.1715 26.4617H21.2661C21.6402 26.4617 21.9341 26.7556 21.9341 27.1296C21.9341 27.497 21.6402 27.7976 21.2661 27.7976H17.1715C16.8041 27.7976 16.5035 27.497 16.5035 27.1296C16.5035 26.7556 16.8041 26.4617 17.1715 26.4617ZM16.5035 23.9568C16.5035 23.5894 16.8041 23.2888 17.1715 23.2888H21.2661C21.6402 23.2888 21.9341 23.5894 21.9341 23.9568C21.9341 24.3309 21.6402 24.6248 21.2661 24.6248H17.1715C16.8041 24.6248 16.5035 24.3309 16.5035 23.9568ZM17.1715 32.7004H22.248C22.6154 32.7004 22.9159 33.001 22.9159 33.3684C22.9159 33.7357 22.6154 34.0363 22.248 34.0363H17.1715C16.8041 34.0363 16.5035 33.7357 16.5035 33.3684C16.5035 33.001 16.8041 32.7004 17.1715 32.7004ZM13.0702 36.5345C13.0702 37.0822 12.6227 37.5298 12.075 37.5298H8.91549C8.36111 37.5298 7.91355 37.0822 7.91355 36.5345V33.3684C7.91355 32.8206 8.36111 32.3731 8.91549 32.3731H12.075C12.6227 32.3731 13.0702 32.8206 13.0702 33.3684V36.5345ZM13.0702 27.1229C13.0702 27.6773 12.6227 28.1182 12.075 28.1182H8.91549C8.36111 28.1182 7.91355 27.6773 7.91355 27.1229V23.9635C7.91355 23.4091 8.36111 22.9682 8.91549 22.9682H12.075C12.6227 22.9682 13.0702 23.4091 13.0702 23.9635V27.1229ZM13.0702 17.7114C13.0702 18.2658 12.6227 18.7133 12.075 18.7133H8.91549C8.36111 18.7133 7.91355 18.2658 7.91355 17.7114V14.5519C7.91355 14.0042 8.36111 13.5567 8.91549 13.5567H12.075C12.6227 13.5567 13.0702 14.0042 13.0702 14.5519V17.7114ZM28.3932 35.8665C28.7606 35.8665 29.0612 36.1671 29.0612 36.5345C29.0612 36.9086 28.7606 37.2025 28.3932 37.2025H17.1715C16.8041 37.2025 16.5035 36.9085 16.5035 36.5345C16.5035 36.1671 16.8041 35.8665 17.1715 35.8665H28.3932ZM23.8644 18.386H17.1715C16.8041 18.386 16.5035 18.0855 16.5035 17.718C16.5035 17.3507 16.8041 17.0501 17.1715 17.0501H23.8644C24.2318 17.0501 24.5324 17.3507 24.5324 17.718C24.5324 18.0855 24.2318 18.386 23.8644 18.386Z" fill="#FFBF3C"/>
<path d="M32.7627 18.0957C28.4985 18.0957 25.043 21.5568 25.043 25.8209C25.043 30.0851 28.4986 33.5406 32.7627 33.5406C37.0267 33.5406 40.4879 30.0851 40.4879 25.8209C40.4879 21.5568 37.0267 18.0957 32.7627 18.0957ZM32.7658 25.1521C33.9511 25.1521 34.9155 26.1168 34.9155 27.3021C34.9155 28.2527 34.291 29.0518 33.4338 29.3345V29.5982C33.4338 29.9674 33.1347 30.2661 32.7659 30.2661C32.397 30.2661 32.0979 29.9674 32.0979 29.5982V29.3348C31.2391 29.0523 30.6133 28.2531 30.6133 27.3021C30.6133 26.9329 30.9123 26.6341 31.2812 26.6341C31.6501 26.6341 31.9492 26.9329 31.9492 27.3021C31.9492 27.7509 32.3154 28.1155 32.7659 28.1155C33.2146 28.1155 33.5796 27.7509 33.5796 27.3021C33.5796 26.8533 33.2146 26.488 32.7659 26.488C31.579 26.488 30.6133 25.5226 30.6133 24.3354C30.6133 23.3844 31.2391 22.5848 32.0979 22.3021V22.0386C32.0979 21.6694 32.397 21.3707 32.7659 21.3707C33.1347 21.3707 33.4338 21.6694 33.4338 22.0386V22.3024C34.291 22.5853 34.9155 23.3847 34.9155 24.3354C34.9155 24.7046 34.6164 25.0034 34.2476 25.0034C33.8787 25.0034 33.5796 24.7046 33.5796 24.3354C33.5796 23.8866 33.2146 23.5213 32.7659 23.5213C32.3154 23.5213 31.9492 23.8866 31.9492 24.3354C31.9492 24.7855 32.3154 25.1521 32.7658 25.1521Z" fill="#FFBF3C"/>
</svg>
