<svg width="44" height="44" viewBox="0 0 44 44" fill="none" xmlns="http://www.w3.org/2000/svg">
<g clip-path="url(#clip0_922_16618)">
<path d="M30.8519 15.8251L22.4356 12.0843C22.177 11.9693 21.8819 11.9693 21.6233 12.0843L13.207 15.8251L22.0294 19.8971L30.8519 15.8251Z" fill="#FFBF3C"/>
<path d="M23.0293 32.6501L31.4353 28.914C31.7964 28.7536 32.0293 28.3954 32.0293 27.9999V17.4863L23.0293 21.6399V32.6501Z" fill="#FFBF3C"/>
<path d="M21.0313 21.6399L12.0312 17.4863V28.0003C12.0312 28.3958 12.2638 28.7539 12.6252 28.9143L21.0313 32.6504V21.6399Z" fill="#FFBF3C"/>
<path d="M19.7372 4.70701L21.0299 3.41392V6.99987C21.0299 7.55212 21.4778 7.99999 22.0301 7.99999C22.5823 7.99999 23.0302 7.55212 23.0302 6.99987V3.41392L24.3229 4.70701C24.5745 4.96519 24.9455 5.06773 25.2937 4.97581C25.642 4.88426 25.9141 4.61217 26.006 4.26353C26.0979 3.91526 25.995 3.54429 25.7372 3.29307L22.7372 0.293061C22.3465 -0.0976871 21.7137 -0.0976871 21.3229 0.293061L18.3229 3.29307C17.9409 3.68492 17.945 4.31114 18.3321 4.69823C18.7188 5.08531 19.3454 5.08897 19.7372 4.70701Z" fill="#FFBF3C"/>
<path d="M24.3229 39.293L23.0302 40.5857V36.9998C23.0302 36.4475 22.5823 36 22.0301 36C21.4778 36 21.0299 36.4475 21.0299 36.9998V40.5857L19.7372 39.293C19.3454 38.9107 18.7188 38.9147 18.3321 39.3018C17.945 39.6889 17.9409 40.3151 18.3229 40.7069L21.3229 43.7069C21.7133 44.0977 22.3468 44.0977 22.7372 43.7069L25.7372 40.7069C26.1192 40.3151 26.1152 39.6889 25.7281 39.3018C25.3414 38.9147 24.7148 38.9107 24.3229 39.293Z" fill="#FFBF3C"/>
<path d="M9.5398 13.6336L6.43469 11.841L8.2002 11.3679C8.54993 11.2796 8.82532 11.0101 8.92017 10.6618C9.01538 10.3139 8.91577 9.94149 8.65906 9.68771C8.40271 9.43392 8.02954 9.33797 7.68274 9.43648L3.58483 10.534C3.05162 10.6772 2.73521 11.2254 2.87804 11.7586L3.97557 15.8562C4.06383 16.2059 4.33373 16.4809 4.68163 16.5762C5.02953 16.671 5.4016 16.5714 5.65539 16.315C5.90917 16.0587 6.00549 15.6859 5.90734 15.3387L5.4342 13.5728L8.53967 15.3662C9.01831 15.6423 9.62989 15.4782 9.90601 15C10.1821 14.5213 10.0181 13.9098 9.5398 13.6336Z" fill="#FFBF3C"/>
<path d="M40.0841 28.1435C39.9959 27.7938 39.726 27.5192 39.3781 27.4239C39.0302 27.3291 38.6581 27.4287 38.4043 27.685C38.1505 27.941 38.0542 28.3142 38.1527 28.6614L38.6255 30.4269L35.5197 28.6339C35.0414 28.3578 34.4298 28.5218 34.1537 29.0001C33.8776 29.4784 34.0413 30.0903 34.5199 30.3665L37.6246 32.1591L35.8595 32.6318C35.5098 32.7201 35.2344 32.99 35.1392 33.3379C35.0443 33.6862 35.1439 34.0582 35.4003 34.312C35.6566 34.5662 36.0298 34.6621 36.377 34.5636L40.4745 33.4661C41.0081 33.3229 41.3245 32.7747 41.1817 32.2415L40.0841 28.1435Z" fill="#FFBF3C"/>
<path d="M35.0209 15.4986C35.1959 15.4986 35.368 15.4524 35.5197 15.3649L38.6255 13.5716L38.1527 15.3374C38.0542 15.6846 38.1505 16.0574 38.4043 16.3137C38.6581 16.5701 39.0302 16.6697 39.3781 16.5749C39.726 16.4796 39.9959 16.2046 40.0841 15.8549L41.182 11.7573C41.3245 11.2241 41.0081 10.6759 40.4749 10.5327L36.3773 9.43519C35.847 9.30079 35.3073 9.6172 35.1659 10.1456C35.0242 10.6737 35.3333 11.2179 35.8595 11.3666L37.625 11.8397L34.5199 13.6323C34.1277 13.8587 33.9365 14.3205 34.0537 14.7577C34.1713 15.1953 34.5679 15.4989 35.0209 15.4986Z" fill="#FFBF3C"/>
<path d="M8.54026 28.6339L5.43478 30.4269L5.90756 28.6614C6.0057 28.3142 5.90975 27.941 5.65597 27.685C5.40219 27.4287 5.03011 27.3291 4.68185 27.4239C4.33394 27.5192 4.06441 27.7938 3.97579 28.1435L2.87789 32.2415C2.73543 32.7747 3.05184 33.3229 3.58504 33.4661L7.68259 34.5636C8.02976 34.6617 8.40256 34.5654 8.65854 34.3117C8.91489 34.0579 9.0145 33.6862 8.91965 33.3383C8.8248 32.9904 8.54978 32.7205 8.20041 32.6318L6.4349 32.1591L9.54001 30.3665C10.0183 30.0903 10.1823 29.4784 9.90623 29.0001C9.6301 28.5218 9.01853 28.3578 8.53989 28.6339H8.54026Z" fill="#FFBF3C"/>
</g>
<defs>
<clipPath id="clip0_922_16618">
<rect width="44" height="44" fill="white"/>
</clipPath>
</defs>
</svg>
