<svg width="44" height="44" viewBox="0 0 44 44" fill="none" xmlns="http://www.w3.org/2000/svg">
<g clip-path="url(#clip0_1611_6488)">
<path d="M0.171875 32.1406V32.4844C0.172967 33.5325 0.589806 34.5373 1.33092 35.2785C2.07204 36.0196 3.0769 36.4364 4.125 36.4375H39.875C40.9231 36.4364 41.928 36.0196 42.6691 35.2785C43.4102 34.5373 43.827 33.5325 43.8281 32.4844V32.1406H0.171875Z" fill="#FFBF3C"/>
<path d="M30.25 41.4219H28.3669L27.5076 38.8438H16.4924L15.6331 41.4219H13.75C13.4309 41.4219 13.1249 41.5486 12.8993 41.7743C12.6736 41.9999 12.5469 42.3059 12.5469 42.625C12.5469 42.9441 12.6736 43.2501 12.8993 43.4757C13.1249 43.7014 13.4309 43.8281 13.75 43.8281H30.25C30.5691 43.8281 30.8751 43.7014 31.1007 43.4757C31.3264 43.2501 31.4531 42.9441 31.4531 42.625C31.4531 42.3059 31.3264 41.9999 31.1007 41.7743C30.8751 41.5486 30.5691 41.4219 30.25 41.4219Z" fill="#FFBF3C"/>
<path d="M39.875 0.171875H4.125C3.0769 0.172967 2.07204 0.589806 1.33092 1.33092C0.589806 2.07204 0.172967 3.0769 0.171875 4.125V29.7344H43.8281V4.125C43.827 3.0769 43.4102 2.07204 42.6691 1.33092C41.928 0.589806 40.9231 0.172967 39.875 0.171875ZM22.187 23.6706L18.4745 25.8122C17.7478 26.2332 16.9057 26.4114 16.0707 26.3209C15.2358 26.2303 14.4515 25.8759 13.8318 25.3089C11.6346 23.307 9.75043 20.9865 8.24244 18.425C6.77778 15.837 5.7101 13.0437 5.07512 10.1386C4.89432 9.31858 4.97968 8.4623 5.31882 7.69414C5.65795 6.92599 6.23318 6.28599 6.96094 5.86713L10.6734 3.72488C10.8102 3.64574 10.9612 3.59434 11.1178 3.57363C11.2744 3.55291 11.4336 3.56328 11.5862 3.60415C11.7389 3.64502 11.8819 3.71558 12.0072 3.8118C12.1325 3.90801 12.2377 4.02799 12.3166 4.16488L15.4103 9.52738C15.4895 9.66412 15.5408 9.81513 15.5616 9.97176C15.5823 10.1284 15.5719 10.2876 15.531 10.4402C15.4902 10.5928 15.4196 10.7359 15.3234 10.8612C15.2272 10.9865 15.1072 11.0916 14.9703 11.1705L13.3375 12.1096C13.619 13.0527 14.0077 13.9604 14.4959 14.8149C14.9923 15.6646 15.5839 16.4548 16.2594 17.1703L17.8901 16.225C18.1665 16.0656 18.4948 16.0225 18.8029 16.1051C19.1111 16.1878 19.3738 16.3894 19.5333 16.6657L22.627 22.0241C22.7065 22.161 22.7582 22.3123 22.7791 22.4692C22.8 22.6262 22.7897 22.7857 22.7488 22.9387C22.708 23.0917 22.6373 23.2351 22.5409 23.3607C22.4445 23.4863 22.3242 23.5916 22.187 23.6706ZM24.75 13.0625H20.625C20.306 13.0623 20.0001 12.9355 19.7745 12.7099C19.5489 12.4843 19.4221 12.1784 19.4219 11.8594V7.73438C19.4219 7.41529 19.5486 7.10927 19.7743 6.88364C19.9999 6.65801 20.3059 6.53125 20.625 6.53125C20.9441 6.53125 21.2501 6.65801 21.4757 6.88364C21.7014 7.10927 21.8281 7.41529 21.8281 7.73438V8.95469L26.6496 4.13394C26.7612 4.02226 26.8938 3.93367 27.0397 3.87322C27.1857 3.81278 27.3421 3.78167 27.5 3.78167C27.6579 3.78167 27.8143 3.81278 27.9603 3.87322C28.1062 3.93367 28.2388 4.02226 28.3504 4.13394C28.4621 4.24562 28.5507 4.3782 28.6112 4.52412C28.6716 4.67004 28.7027 4.82643 28.7027 4.98438C28.7027 5.14232 28.6716 5.29871 28.6112 5.44463C28.5507 5.59055 28.4621 5.72313 28.3504 5.83481L23.5297 10.6562H24.75C25.0691 10.6562 25.3751 10.783 25.6007 11.0086C25.8264 11.2343 25.9531 11.5403 25.9531 11.8594C25.9531 12.1785 25.8264 12.4845 25.6007 12.7101C25.3751 12.9357 25.0691 13.0625 24.75 13.0625ZM37.8125 26.125H26.8125C26.4934 26.125 26.1874 25.9982 25.9618 25.7726C25.7361 25.547 25.6094 25.241 25.6094 24.9219C25.6094 24.6028 25.7361 24.2968 25.9618 24.0711C26.1874 23.8455 26.4934 23.7188 26.8125 23.7188H37.8125C38.1316 23.7188 38.4376 23.8455 38.6632 24.0711C38.8889 24.2968 39.0156 24.6028 39.0156 24.9219C39.0156 25.241 38.8889 25.547 38.6632 25.7726C38.4376 25.9982 38.1316 26.125 37.8125 26.125ZM37.8125 21.3125H26.8125C26.4934 21.3125 26.1874 21.1857 25.9618 20.9601C25.7361 20.7345 25.6094 20.4285 25.6094 20.1094C25.6094 19.7903 25.7361 19.4843 25.9618 19.2586C26.1874 19.033 26.4934 18.9062 26.8125 18.9062H37.8125C38.1316 18.9062 38.4376 19.033 38.6632 19.2586C38.8889 19.4843 39.0156 19.7903 39.0156 20.1094C39.0156 20.4285 38.8889 20.7345 38.6632 20.9601C38.4376 21.1857 38.1316 21.3125 37.8125 21.3125ZM37.8125 16.5H26.8125C26.4934 16.5 26.1874 16.3732 25.9618 16.1476C25.7361 15.922 25.6094 15.616 25.6094 15.2969C25.6094 14.9778 25.7361 14.6718 25.9618 14.4461C26.1874 14.2205 26.4934 14.0938 26.8125 14.0938H37.8125C38.1316 14.0938 38.4376 14.2205 38.6632 14.4461C38.8889 14.6718 39.0156 14.9778 39.0156 15.2969C39.0156 15.616 38.8889 15.922 38.6632 16.1476C38.4376 16.3732 38.1316 16.5 37.8125 16.5Z" fill="#FFBF3C"/>
<path d="M16.7103 19.6865C16.5046 19.8054 16.2682 19.8607 16.0311 19.8454C15.794 19.8301 15.5667 19.7449 15.3779 19.6005C14.1885 18.5872 13.1838 17.3753 12.4086 16.0187C11.6218 14.6685 11.0749 13.1921 10.7923 11.6551C10.7617 11.4194 10.8016 11.18 10.907 10.967C11.0123 10.754 11.1784 10.5769 11.3842 10.4582L12.7235 9.68472L10.8329 6.41016L8.16468 7.95084C7.87931 8.11563 7.65395 8.36717 7.5214 8.66887C7.38885 8.97057 7.35602 9.3067 7.42768 9.62834C8.00809 12.29 8.98467 14.8494 10.3248 17.2211C11.708 19.5679 13.4357 21.6938 15.4501 23.5275C15.6929 23.7506 16.0005 23.8904 16.3282 23.9265C16.6558 23.9626 16.9865 23.8931 17.272 23.7283L19.9402 22.1883L18.0496 18.913L16.7103 19.6865Z" fill="#FFBF3C"/>
</g>
<defs>
<clipPath id="clip0_1611_6488">
<rect width="44" height="44" fill="white"/>
</clipPath>
</defs>
</svg>
