<svg xmlns="http://www.w3.org/2000/svg" width="44" height="44" fill="none"><g fill="#FFBF3C" clip-path="url(#a)"><path d="m23.5 14.625 1.72 2.977a1.29 1.29 0 0 0 1.47.595l1.37-.392a9 9 0 0 0 2.29 1.328l.344 1.375c.143.574.66.977 1.25.977h3.438a1.29 1.29 0 0 0 1.25-.977l.344-1.375a9 9 0 0 0 2.291-1.328l1.369.392a1.29 1.29 0 0 0 1.47-.595l1.72-2.977a1.29 1.29 0 0 0-.22-1.571l-1.021-.987q.102-.67.102-1.325t-.102-1.324l1.02-.987a1.29 1.29 0 0 0 .22-1.571l-1.718-2.977a1.29 1.29 0 0 0-1.47-.595l-1.37.392a9 9 0 0 0-2.29-1.329L36.632.977A1.29 1.29 0 0 0 35.383 0h-3.438a1.29 1.29 0 0 0-1.251.976l-.344 1.375a9 9 0 0 0-2.29 1.328l-1.37-.391a1.29 1.29 0 0 0-1.47.595L23.5 6.86a1.29 1.29 0 0 0 .221 1.57l1.021.988q-.102.67-.102 1.324t.102 1.324l-1.02.987a1.29 1.29 0 0 0-.221 1.572m10.163-7.75a3.87 3.87 0 0 1 3.868 3.867 3.87 3.87 0 0 1-3.868 3.867 3.87 3.87 0 0 1-3.867-3.867 3.87 3.87 0 0 1 3.867-3.867M17.783 12.24a3.87 3.87 0 0 0 0-5.468l-5.469-5.47a3.87 3.87 0 0 0-5.469 0l-.911.912 10.938 10.938zM37.228 26.219a3.87 3.87 0 0 0-5.469 0l-.911.911 10.938 10.938.911-.911a3.87 3.87 0 0 0 0-5.47zM27.952 30.023a1.28 1.28 0 0 1-1.547.212c-1.732-1.017-4.37-2.803-7.104-5.537s-4.52-5.372-5.537-7.104a1.28 1.28 0 0 1 .212-1.547l1.072-1.072L4.11 4.037 2.298 5.85a7.78 7.78 0 0 0-2.223 4.477c-.234 1.7.082 3.399.913 4.911 3.256 5.923 7.048 10.957 11.933 15.841 4.885 4.885 9.918 8.677 15.84 11.933a7.9 7.9 0 0 0 4.912.913 7.78 7.78 0 0 0 4.478-2.223l1.811-1.812-10.938-10.937z"/></g><defs><clipPath id="a"><path fill="#fff" d="M0 0h44v44H0z"/></clipPath></defs></svg>