<svg xmlns="http://www.w3.org/2000/svg" width="44" height="44" fill="none"><path fill="#FFBF3C" fill-rule="evenodd" d="M43.227 31.72H.773v1.039c0 1.219.998 2.216 2.217 2.216h38.02a2.223 2.223 0 0 0 2.217-2.216zm-30.028 4.63-1.905 3.269c-.143.247.051.518.298.518h20.816c.247 0 .441-.271.297-.518l-1.904-3.269zm-2.618-25.66a2.58 2.58 0 0 1 1.868 2.842l3.327 1.435c1.115-3.671-1.378-7.474-5.195-7.9zm1.324 4.103 3.326 1.435c-1.702 2.973-5.51 3.987-8.46 2.246l2.176-2.896a2.58 2.58 0 0 0 2.958-.785m-4.053-.038c-1.118-1.444-.415-3.578 1.354-4.065V7.068A6.148 6.148 0 0 0 5.677 17.65zm12.45 1.04 4.445-5.78a1.535 1.535 0 1 1 2.903-.475l3.839 2.572a1.54 1.54 0 0 1 1.302-.102l4.083-3.77-.855-.04a.686.686 0 0 1 .065-1.37l2.58.122c.417.02.726.4.635.84l-.455 2.507a.685.685 0 0 1-1.348-.242l.114-.628-3.888 3.59a1.536 1.536 0 1 1-2.996.231l-3.84-2.572c-.314.18-.687.243-1.052.172l-4.446 5.78a1.534 1.534 0 1 1-1.087-.836m-1.703 5.712h2.817c.19 0 .344.155.344.344v5.417c0 .19-.155.344-.344.344H18.6a.344.344 0 0 1-.344-.344v-5.417c0-.19.155-.344.344-.344M36.959 12a.344.344 0 0 0-.343.344v14.924c0 .19.154.344.344.344h2.817c.19 0 .344-.154.344-.344V12.344a.344.344 0 0 0-.344-.344zm-6.12 5.651a.344.344 0 0 0-.343.344v9.273c0 .19.154.344.343.344h2.818c.19 0 .344-.154.344-.344v-9.273a.344.344 0 0 0-.344-.344zm-6.12-2.91a.344.344 0 0 0-.344.344v12.183c0 .19.155.344.344.344h2.817c.19 0 .344-.154.344-.344V15.085a.344.344 0 0 0-.344-.343zm18.508 15.604H.773V6.08c0-1.22.998-2.217 2.217-2.217h38.02c1.22 0 2.217.998 2.217 2.217zM4.926 29.06h.63a.688.688 0 0 0 0-1.375h-.63a.688.688 0 0 0 0 1.375m2.664 0h6.218a.688.688 0 0 0 0-1.375H7.59a.688.688 0 0 0 0 1.375m0-5.531h6.218a.688.688 0 0 0 0-1.375H7.59a.688.688 0 0 0 0 1.375m0 2.765h6.218a.688.688 0 0 0 0-1.375H7.59a.688.688 0 0 0 0 1.375M4.926 23.53h.63a.688.688 0 0 0 0-1.375h-.63a.688.688 0 0 0 0 1.375m0 2.765h.63a.688.688 0 0 0 0-1.375h-.63a.688.688 0 0 0 0 1.375" clip-rule="evenodd"/></svg>