<svg width="44" height="44" viewBox="0 0 44 44" fill="none" xmlns="http://www.w3.org/2000/svg">
<g clip-path="url(#clip0_1611_6495)">
<path d="M38.6591 13.6239H33.1362C30.9028 13.6239 29.0857 11.8069 29.0857 9.57344V4.04912C29.0857 1.80916 27.2728 0 25.0366 0H9.66377C7.40551 0 5.61328 1.83262 5.61328 4.05049V16.5688H35.8977C37.6062 16.6322 37.6049 19.0841 35.8977 19.1469H26.7092C27.2236 19.9767 27.5217 20.9541 27.5217 22.0001V22.0916H33.1362C34.8447 22.155 34.8435 24.6069 33.1362 24.6697H27.5217V27.6146H35.8977C37.6063 27.678 37.605 30.1299 35.8977 30.1927H27.5217V33.0461C27.5217 33.0767 27.5199 33.1069 27.5194 33.1375H33.1362C34.8447 33.2009 34.8435 35.6528 33.1362 35.7156H26.8209C25.8895 37.3641 24.1228 38.4774 22.0904 38.4774L10.1978 38.4771L7.98653 40.6883C7.43825 41.2365 6.71766 41.5463 5.9493 41.5681C6.57647 43.0069 8.01309 44 9.66377 44H38.6591C40.9225 44 42.7097 42.1618 42.7097 39.9495V17.6745C42.7097 15.441 40.8925 13.6239 38.6591 13.6239ZM20.7097 13.6239H12.4253C10.7168 13.5605 10.7181 11.1086 12.4253 11.0458H20.7097C22.4182 11.1092 22.4169 13.5611 20.7097 13.6239ZM24.8519 8.10107H12.4253C10.7168 8.03765 10.7181 5.58577 12.4253 5.52295H24.8519C26.5604 5.58628 26.5591 8.03825 24.8519 8.10107Z" fill="#FFBF3C"/>
<path d="M31.6634 9.5737C31.6634 10.3855 32.3239 11.0461 33.1358 11.0461H38.6587C39.9125 11.0461 41.086 11.3961 42.0869 12.0034C41.6926 11.0689 41.1181 10.2101 40.3794 9.47134L33.2382 2.3302C32.4998 1.59165 31.6412 1.01733 30.707 0.623047C31.3137 1.62353 31.6635 2.79632 31.6635 4.04937L31.6634 9.5737Z" fill="#FFBF3C"/>
<path d="M8.75359 36.2761C8.99534 36.0344 9.32319 35.8985 9.66505 35.8985H22.0916C23.6647 35.8985 24.9447 34.6264 24.9447 33.0454V21.9996C24.9447 20.4239 23.6674 19.1465 22.0916 19.1465H4.14219C2.56644 19.1465 1.28906 20.4239 1.28906 21.9996V33.0454C1.28906 34.6197 2.57065 35.9002 4.14528 35.8985C4.85985 35.8978 5.43125 36.4964 5.43125 37.211V38.5611C5.43125 38.9439 5.89411 39.1356 6.16481 38.8649L8.75359 36.2761ZM19.698 26.1418C19.7614 24.4333 22.2133 24.4346 22.2761 26.1418V28.9032C22.2127 30.6118 19.7608 30.6105 19.698 28.9032V26.1418ZM14.4513 23.3803C14.5147 21.6718 16.9666 21.673 17.0294 23.3803V31.6647C16.966 33.3732 14.5141 33.3719 14.4513 31.6647V23.3803ZM9.20451 25.4515C9.26793 23.7429 11.7198 23.7442 11.7826 25.4515V29.5936C11.7192 31.3021 9.26733 31.3008 9.20451 29.5936V25.4515ZM5.24674 29.502C4.53484 29.502 3.95768 28.9248 3.95768 28.2129V26.8322C4.0211 25.1237 6.47298 25.125 6.5358 26.8322V28.2129C6.5358 28.9248 5.95865 29.502 5.24674 29.502Z" fill="#FFBF3C"/>
</g>
<defs>
<clipPath id="clip0_1611_6495">
<rect width="44" height="44" fill="white"/>
</clipPath>
</defs>
</svg>
