<svg width="44" height="44" viewBox="0 0 44 44" fill="none" xmlns="http://www.w3.org/2000/svg">
<g clip-path="url(#clip0_922_16666)">
<path d="M30.5938 30.5078H28.4294C28.2074 33.862 25.4095 36.5234 22 36.5234C18.5905 36.5234 15.7926 33.862 15.5706 30.5078H13.4062C7.48301 30.5078 2.66406 35.3268 2.66406 41.25V42.7109C2.66406 43.4228 3.24122 44 3.95312 44H40.0469C40.7588 44 41.3359 43.4228 41.3359 42.7109V41.25C41.3359 35.3268 36.517 30.5078 30.5938 30.5078Z" fill="#FFBF3C"/>
<path d="M10.8281 19.3359V14.1797C9.40423 14.1797 8.25 15.3339 8.25 16.7578C8.25 18.1817 9.40423 19.3359 10.8281 19.3359Z" fill="#FFBF3C"/>
<path d="M25.3854 8.54167C25.8498 8.07718 26.5893 8.03627 27.1022 8.44654L31.046 11.6016H33.1719V11.1719C33.1719 5.00182 28.1701 0 22 0C15.8299 0 10.8281 5.00182 10.8281 11.1719V11.6016H17.9983C20.769 11.6016 23.4262 10.5009 25.3854 8.54167Z" fill="#FFBF3C"/>
<path d="M18.1328 29.3887V30.0791C18.1328 32.2149 19.8642 33.9463 22 33.9463C24.1358 33.9463 25.8672 32.2149 25.8672 30.0791V29.3887C24.6616 29.8349 23.3588 30.0791 22 30.0791C20.6412 30.0791 19.3384 29.8349 18.1328 29.3887Z" fill="#FFBF3C"/>
<path d="M21.5703 23.6326C21.5703 22.9207 22.1475 22.3435 22.8594 22.3435H29.878C30.338 21.2908 30.5938 20.1284 30.5938 18.906V14.5412L26.3528 11.1484C24.0135 13.1106 21.0878 14.1795 17.998 14.1795H13.4062V18.906C13.4062 23.6522 17.2538 27.4998 22 27.4998C24.4038 27.4998 26.5767 26.5124 28.1364 24.9216H22.8594C22.1475 24.9216 21.5703 24.3445 21.5703 23.6326Z" fill="#FFBF3C"/>
<path d="M33.1722 19.3359H34.4613V20.1953C34.4613 21.38 33.4975 22.3438 32.3129 22.3438H29.8783C29.4568 23.3084 28.8634 24.1807 28.1367 24.9219H32.3129C34.9191 24.9219 37.0394 22.8015 37.0394 20.1953V16.7578C37.0394 15.3339 35.8852 14.1797 34.4613 14.1797H33.1722V19.3359Z" fill="#FFBF3C"/>
</g>
<defs>
<clipPath id="clip0_922_16666">
<rect width="44" height="44" fill="white"/>
</clipPath>
</defs>
</svg>
