<svg width="44" height="44" viewBox="0 0 44 44" fill="none" xmlns="http://www.w3.org/2000/svg">
<path fill-rule="evenodd" clip-rule="evenodd" d="M26.3797 38.6293L29.2974 41.5484C29.8337 42.0846 30.7054 42.0846 31.2417 41.5484C31.7793 41.0107 31.7793 40.1404 31.2417 39.6028L28.4408 36.8019C29.5848 35.387 30.2695 33.5858 30.2695 31.625C30.2695 27.0724 26.5735 23.375 22.0195 23.375C17.4669 23.375 13.7695 27.0724 13.7695 31.625C13.7695 36.1776 17.4669 39.875 22.0195 39.875C23.62 39.875 25.1147 39.4185 26.3797 38.6293ZM22.0195 26.125C25.0555 26.125 27.5195 28.589 27.5195 31.625C27.5195 34.661 25.0555 37.125 22.0195 37.125C18.9849 37.125 16.5195 34.661 16.5195 31.625C16.5195 28.589 18.9849 26.125 22.0195 26.125Z" fill="#FFBF3C"/>
<path fill-rule="evenodd" clip-rule="evenodd" d="M17.875 21.4335V8.25C17.875 7.491 18.491 6.875 19.25 6.875C20.009 6.875 20.625 7.491 20.625 8.25V20.713C21.0815 20.6553 21.5476 20.625 22.0192 20.625C26.6324 20.625 30.5855 23.4699 32.219 27.5H38.5C39.5945 27.5 40.6436 27.0655 41.4164 26.2914C42.1905 25.5186 42.625 24.4695 42.625 23.375V5.5C42.625 4.4055 42.1905 3.35637 41.4164 2.58362C40.6436 1.8095 39.5945 1.375 38.5 1.375C31.4132 1.375 12.5868 1.375 5.5 1.375C4.4055 1.375 3.35637 1.8095 2.58362 2.58362C1.8095 3.35637 1.375 4.4055 1.375 5.5V23.375C1.375 24.4695 1.8095 25.5186 2.58362 26.2914C3.35637 27.0655 4.4055 27.5 5.5 27.5H11.8209C12.9305 24.761 15.1112 22.5706 17.8434 21.4473C17.8544 21.4431 17.864 21.4376 17.875 21.4335ZM28.875 9.625V17.875C28.875 18.634 29.491 19.25 30.25 19.25C31.009 19.25 31.625 18.634 31.625 17.875V9.625C31.625 8.866 31.009 8.25 30.25 8.25C29.491 8.25 28.875 8.866 28.875 9.625ZM12.375 9.625V17.875C12.375 18.634 12.991 19.25 13.75 19.25C14.509 19.25 15.125 18.634 15.125 17.875V9.625C15.125 8.866 14.509 8.25 13.75 8.25C12.991 8.25 12.375 8.866 12.375 9.625ZM34.375 12.375V15.125C34.375 15.884 34.991 16.5 35.75 16.5C36.509 16.5 37.125 15.884 37.125 15.125V12.375C37.125 11.616 36.509 11 35.75 11C34.991 11 34.375 11.616 34.375 12.375ZM23.375 12.375V15.125C23.375 15.884 23.991 16.5 24.75 16.5C25.509 16.5 26.125 15.884 26.125 15.125V12.375C26.125 11.616 25.509 11 24.75 11C23.991 11 23.375 11.616 23.375 12.375ZM6.875 12.375V15.125C6.875 15.884 7.491 16.5 8.25 16.5C9.009 16.5 9.625 15.884 9.625 15.125V12.375C9.625 11.616 9.009 11 8.25 11C7.491 11 6.875 11.616 6.875 12.375Z" fill="#FFBF3C"/>
</svg>
