<svg width="44" height="44" viewBox="0 0 44 44" fill="none" xmlns="http://www.w3.org/2000/svg">
<path d="M42.0397 41.4049H38.8789L39.6741 28.0771C39.7224 27.2855 39.4379 26.4999 38.8936 25.9214C38.3488 25.3419 37.5803 25.0098 36.7865 25.0098H7.21658C6.42277 25.0098 5.65499 25.3419 5.10948 25.9207C4.56524 26.4996 4.2801 27.2855 4.32836 28.0771L5.12353 41.4049H1.96279C1.60335 41.4049 1.3125 41.6961 1.3125 42.0552C1.3125 42.4143 1.60335 42.7055 1.96279 42.7055H5.8072C5.8095 42.7055 5.81145 42.7068 5.81375 42.7068H38.1887C38.191 42.7068 38.193 42.7055 38.1953 42.7055H42.0397C42.3991 42.7055 42.69 42.4143 42.69 42.0552C42.69 41.6961 42.3991 41.4049 42.0397 41.4049ZM22.0012 37.4412C20.0554 37.4412 18.4729 35.8584 18.4729 33.9126C18.4729 31.9671 20.0554 30.3842 22.0012 30.3842C23.947 30.3842 25.5296 31.9671 25.5296 33.9126C25.5296 35.8584 23.947 37.4412 22.0012 37.4412Z" fill="#FFBF3C"/>
<path d="M11.77 16.7213H14.3903C14.5246 17.0783 14.6781 17.4349 14.8492 17.7894C14.8503 17.791 14.8506 17.7929 14.8518 17.7945C15.6437 19.4325 16.8138 20.994 18.2593 22.041H14.6148C13.0802 22.041 11.6365 22.6588 10.5765 23.7123H33.4213C32.3679 22.6588 30.9177 22.041 29.383 22.041H25.7441C27.5029 20.7662 28.8554 18.7293 29.6104 16.7213H32.2314C33.2335 16.7213 34.0483 15.9065 34.0483 14.9047V13.0374C34.0483 12.3883 33.7036 11.822 33.1902 11.5006C32.698 5.75247 27.8535 1.29492 22.0013 1.29492C16.1494 1.29492 11.3051 5.75208 10.8125 11.4998C10.2984 11.8211 9.95313 12.3878 9.95313 13.0374V14.9047C9.95312 15.9065 10.7679 16.7213 11.77 16.7213ZM29.0455 13.5335C28.9727 14.2903 28.8048 15.0709 28.5379 15.8656C27.5509 18.8334 25.0927 22.0259 22.0248 22.041H21.9817C19.9013 22.0308 18.103 20.5619 16.851 18.6925C17.567 18.8908 18.4984 19.0731 19.658 19.1554C19.9399 20.0606 20.8094 20.7269 21.8483 20.7269C23.1133 20.7269 24.1427 19.7441 24.1427 18.5363C24.1427 17.3284 23.1133 16.346 21.8483 16.346C20.837 16.346 19.9863 16.9774 19.6813 17.8457C17.5313 17.6813 16.2875 17.1573 15.8895 16.9565C15.7264 16.5933 15.5829 16.2273 15.4622 15.8646C15.0977 14.7755 14.9129 13.7115 14.9129 12.7014C14.9129 12.4287 14.925 12.1794 14.951 11.9333C15.0028 11.3967 15.1126 10.8814 15.2643 10.3873C15.9171 10.1695 17.771 9.73012 20.1102 10.7445C20.6646 10.9849 21.2431 11.0868 21.8254 11.0868C24.2554 11.0868 26.7434 9.31917 27.8235 8.44756C28.4856 9.45273 28.9254 10.6389 29.0511 11.939C29.0765 12.1794 29.0885 12.4287 29.0885 12.7014C29.0885 12.9748 29.0724 13.2528 29.0455 13.5335ZM22.0013 2.59551C27.0435 2.59551 31.2388 6.33307 31.8552 11.2205H30.2611C29.5841 7.03464 26.1334 3.945 22.0032 3.945C18.4017 3.945 15.3184 6.29251 14.1353 9.66162C14.1339 9.66555 14.1328 9.6694 14.1314 9.67333C13.9587 10.1673 13.8395 10.6878 13.7511 11.2205H12.1474C12.7639 6.33307 16.9592 2.59551 22.0013 2.59551Z" fill="#FFBF3C"/>
</svg>
