<svg width="44" height="44" viewBox="0 0 44 44" fill="none" xmlns="http://www.w3.org/2000/svg">
<path fill-rule="evenodd" clip-rule="evenodd" d="M13.139 4.78968H11.2401C9.56286 4.78968 7.94891 5.45679 6.76531 6.64354C5.57539 7.8303 4.91078 9.4405 4.91078 11.119V13.0179H3.01197C2.31574 13.0179 1.74609 13.585 1.74609 14.2837C1.74609 14.9825 2.31574 15.5496 3.01197 15.5496H4.91078V18.0814H3.01197C2.31574 18.0814 1.74609 18.6485 1.74609 19.3472C1.74609 20.046 2.31574 20.6131 3.01197 20.6131H4.91078V23.1448H3.01197C2.31574 23.1448 1.74609 23.712 1.74609 24.4107C1.74609 25.1095 2.31574 25.6766 3.01197 25.6766H4.91078V28.2083H3.01197C2.31574 28.2083 1.74609 28.7754 1.74609 29.4742C1.74609 30.173 2.31574 30.7401 3.01197 30.7401H4.91078V32.6389C4.91078 34.3174 5.57539 35.9276 6.76531 37.1144C7.94891 38.3012 9.56286 38.9683 11.2401 38.9683H13.139V40.8671C13.139 41.5658 13.7086 42.1329 14.4048 42.1329C15.1011 42.1329 15.6707 41.5658 15.6707 40.8671V38.9683H18.2024V40.8671C18.2024 41.5658 18.7721 42.1329 19.4683 42.1329C20.1645 42.1329 20.7342 41.5658 20.7342 40.8671V38.9683H23.2659V40.8671C23.2659 41.5658 23.8356 42.1329 24.5318 42.1329C25.228 42.1329 25.7977 41.5658 25.7977 40.8671V38.9683H28.3294V40.8671C28.3294 41.5658 28.8991 42.1329 29.5953 42.1329C30.2915 42.1329 30.8612 41.5658 30.8612 40.8671V38.9683H32.76C34.4373 38.9683 36.0512 38.3012 37.2348 37.1144C38.4247 35.9276 39.0893 34.3174 39.0893 32.6389V30.7401H40.9882C41.6844 30.7401 42.254 30.173 42.254 29.4742C42.254 28.7754 41.6844 28.2083 40.9882 28.2083H39.0893V25.6766H40.9882C41.6844 25.6766 42.254 25.1095 42.254 24.4107C42.254 23.712 41.6844 23.1448 40.9882 23.1448H39.0893V20.6131H40.9882C41.6844 20.6131 42.254 20.046 42.254 19.3472C42.254 18.6485 41.6844 18.0814 40.9882 18.0814H39.0893V15.5496H40.9882C41.6844 15.5496 42.254 14.9825 42.254 14.2837C42.254 13.585 41.6844 13.0179 40.9882 13.0179H39.0893V11.119C39.0893 9.4405 38.4247 7.8303 37.2348 6.64354C36.0512 5.45679 34.4373 4.78968 32.76 4.78968H30.8612V2.89087C30.8612 2.19211 30.2915 1.625 29.5953 1.625C28.8991 1.625 28.3294 2.19211 28.3294 2.89087V4.78968H25.7977V2.89087C25.7977 2.19211 25.228 1.625 24.5318 1.625C23.8356 1.625 23.2659 2.19211 23.2659 2.89087V4.78968H20.7342V2.89087C20.7342 2.19211 20.1645 1.625 19.4683 1.625C18.7721 1.625 18.2024 2.19211 18.2024 2.89087V4.78968H15.6707V2.89087C15.6707 2.19211 15.1011 1.625 14.4048 1.625C13.7086 1.625 13.139 2.19211 13.139 2.89087V4.78968ZM36.5576 11.119V32.6389C36.5576 33.6459 36.1588 34.6118 35.4436 35.3244C34.7347 36.0365 33.7664 36.4365 32.76 36.4365H11.2401C10.2338 36.4365 9.26539 36.0365 8.5565 35.3244C7.84128 34.6118 7.44252 33.6459 7.44252 32.6389V11.119C7.44252 10.112 7.84128 9.14618 8.5565 8.43349C9.26539 7.72144 10.2338 7.32143 11.2401 7.32143H32.76C33.7664 7.32143 34.7347 7.72144 35.4436 8.43349C36.1588 9.14618 36.5576 10.112 36.5576 11.119ZM35.2917 11.119C35.2917 10.4475 35.0259 9.8038 34.5512 9.3291C34.0765 8.85377 33.4309 8.5873 32.76 8.5873C28.6016 8.5873 15.3985 8.5873 11.2401 8.5873C10.5692 8.5873 9.92366 8.85377 9.44896 9.3291C8.97426 9.8038 8.7084 10.4475 8.7084 11.119V32.6389C8.7084 33.3104 8.97426 33.9541 9.44896 34.4288C9.92366 34.9042 10.5692 35.1706 11.2401 35.1706H32.76C33.4309 35.1706 34.0765 34.9042 34.5512 34.4288C35.0259 33.9541 35.2917 33.3104 35.2917 32.6389V11.119ZM23.8989 27.5754V18.0814C23.8989 15.6344 21.9178 13.6508 19.4683 13.6508C17.0189 13.6508 15.0378 15.6344 15.0378 18.0814V27.5754C15.0378 28.2742 15.6074 28.8413 16.3036 28.8413C16.9999 28.8413 17.5695 28.2742 17.5695 27.5754V24.4107H21.3671V27.5754C21.3671 28.2742 21.9368 28.8413 22.633 28.8413C23.3292 28.8413 23.8989 28.2742 23.8989 27.5754ZM26.4306 14.9167V27.5754C26.4306 28.2742 27.0003 28.8413 27.6965 28.8413C28.3927 28.8413 28.9624 28.2742 28.9624 27.5754V14.9167C28.9624 14.2179 28.3927 13.6508 27.6965 13.6508C27.0003 13.6508 26.4306 14.2179 26.4306 14.9167ZM17.5695 21.879H21.3671V18.0814C21.3671 17.0326 20.519 16.1825 19.4683 16.1825C18.4176 16.1825 17.5695 17.0326 17.5695 18.0814V21.879Z" fill="#FFBF3C"/>
</svg>
