<svg width="68" height="45" viewBox="0 0 68 45" fill="none" xmlns="http://www.w3.org/2000/svg">
<g clip-path="url(#clip0_1611_6503)">
<path fill-rule="evenodd" clip-rule="evenodd" d="M57.7374 44.4033H49.0492H49.0097H44.863V50.0652C44.863 50.6857 44.3101 51.2286 43.6782 51.2286C43.0069 51.2286 42.4935 50.6857 42.4935 50.0652V44.4033H39.2946V55.8435C41.0323 56.3476 42.296 57.9376 42.296 59.7991C42.296 62.0483 40.4004 63.871 38.1099 63.871C35.8193 63.871 33.9632 62.0483 33.9632 59.7991C33.9632 57.9376 35.2269 56.3476 36.9251 55.8435V44.4033H33.4498V50.0652C33.4498 50.6857 32.9364 51.2286 32.265 51.2286C31.6332 51.2286 31.0803 50.6857 31.0803 50.0652V44.4033H29.5006H27.8814V55.8435C29.6191 56.3476 30.8828 57.9376 30.8828 59.7991C30.8828 62.0483 29.0267 63.871 26.6967 63.871C24.4061 63.871 22.55 62.0483 22.55 59.7991C22.55 57.9376 23.8137 56.3476 25.5514 55.8435V44.4033H18.3638H9.67556C9.0042 44.4033 8.4908 43.8992 8.4908 43.2399C8.4908 36.6473 11.1368 30.6751 15.4414 26.2154L21.6022 32.2651C21.8786 31.9549 22.1946 31.6446 22.5105 31.3732L16.3497 25.3235C20.8913 21.0964 26.9731 18.4981 33.6867 18.4981C40.4004 18.4981 46.5217 21.0964 51.0633 25.3235L44.9025 31.3732C45.2184 31.6446 45.5344 31.9549 45.8108 32.2651L51.9716 26.2154C56.2367 30.6364 58.8827 36.5697 58.9222 43.0848V43.2399C58.9222 43.8992 58.4088 44.4033 57.7374 44.4033ZM8.68826 27.2237C3.90972 27.2237 0 23.3845 0 18.6921C0 13.9996 3.90972 10.1604 8.68826 10.1604C13.4668 10.1604 17.337 13.9996 17.337 18.6921C17.337 23.3845 13.4668 27.2237 8.68826 27.2237ZM56.7106 16.9082C57.0661 16.9082 57.382 16.6367 57.382 16.2877C57.382 15.9387 57.0661 15.6284 56.7106 15.6284H55.5654C55.2099 15.6284 54.894 15.9387 54.894 16.2877C54.894 16.6367 55.2099 16.9082 55.5654 16.9082H56.7106ZM36.8461 6.74775C37.2015 6.74775 37.5175 6.47629 37.5175 6.08849C37.5175 5.73947 37.2015 5.46801 36.8461 5.46801H35.7008C35.3454 5.46801 35.0295 5.73947 35.0295 6.08849C35.0295 6.47629 35.3454 6.74775 35.7008 6.74775H36.8461ZM31.7121 6.74775C32.0676 6.74775 32.344 6.47629 32.344 6.08849C32.344 5.73947 32.0676 5.46801 31.7121 5.46801H30.5274C30.172 5.46801 29.8955 5.73947 29.8955 6.08849C29.8955 6.47629 30.172 6.74775 30.5274 6.74775H31.7121ZM35.9378 11.8667C36.2932 11.8667 36.6092 11.5565 36.6092 11.2075C36.6092 10.8585 36.2932 10.587 35.9378 10.587H31.4752C31.0803 10.587 30.8038 10.8585 30.8038 11.2075C30.8038 11.5565 31.0803 11.8667 31.4752 11.8667H35.9378ZM10.4259 21.9884C10.5839 21.9884 10.7418 21.9108 10.8603 21.7945C11.1368 21.5618 11.1368 21.1352 10.8603 20.9025C9.67556 19.7003 7.70096 19.7003 6.4767 20.9025C6.23975 21.1352 6.23975 21.5618 6.4767 21.7945C6.75315 22.0659 7.14807 22.0659 7.38502 21.7945C8.09588 21.1352 9.24115 21.1352 9.95201 21.7945C10.0705 21.9108 10.2285 21.9884 10.4259 21.9884ZM11.8476 16.9082C12.2031 16.9082 12.4795 16.6367 12.4795 16.2877C12.4795 15.9387 12.2031 15.6284 11.8476 15.6284H10.6629C10.3074 15.6284 10.031 15.9387 10.031 16.2877C10.031 16.6367 10.3074 16.9082 10.6629 16.9082H11.8476ZM6.67416 16.9082C7.02959 16.9082 7.34553 16.6367 7.34553 16.2877C7.34553 15.9387 7.02959 15.6284 6.67416 15.6284H5.52889C5.17346 15.6284 4.85753 15.9387 4.85753 16.2877C4.85753 16.6367 5.17346 16.9082 5.52889 16.9082H6.67416ZM58.7247 21.9884C59.5541 21.9884 60.3439 21.6781 60.9363 21.0964C61.1732 20.8637 61.1732 20.4372 60.9363 20.2045C60.6598 19.933 60.2649 19.933 59.9885 20.2045C59.3171 20.8637 58.1324 20.8637 57.461 20.2045C57.1845 19.933 56.7896 19.933 56.5132 20.2045C56.2762 20.4372 56.2762 20.8637 56.5132 21.0964C57.1056 21.6781 57.8954 21.9884 58.7247 21.9884ZM61.8841 16.9082C62.2395 16.9082 62.516 16.6367 62.516 16.2877C62.516 15.9387 62.2395 15.6284 61.8841 15.6284H60.7388C60.3439 15.6284 60.0675 15.9387 60.0675 16.2877C60.0675 16.6367 60.3439 16.9082 60.7388 16.9082H61.8841ZM33.6867 17.0245C28.9082 17.0245 25.038 13.224 25.038 8.49286C25.038 3.80046 28.9082 0 33.6867 0C38.4653 0 42.375 3.80046 42.375 8.49286C42.375 13.224 38.4653 17.0245 33.6867 17.0245ZM58.7247 27.2237C53.9462 27.2237 50.0365 23.3845 50.0365 18.6921C50.0365 13.9996 53.9462 10.1604 58.7247 10.1604C63.5033 10.1604 67.413 13.9996 67.413 18.6921C67.413 23.3845 63.5033 27.2237 58.7247 27.2237ZM35.3059 38.1985L38.1494 33.351C38.5048 32.808 39.2156 32.6141 39.7685 32.9244C40.3214 33.2346 40.5189 33.9714 40.2029 34.5144L37.3595 39.3619C38.1494 40.0987 38.7022 41.0294 38.9392 42.1153H43.6782H47.7854C47.193 34.9797 41.1113 29.3566 33.6867 29.3566C26.3017 29.3566 20.2199 34.9797 19.5881 42.1153H26.6967H28.4343C28.9872 39.7497 31.1198 37.9658 33.6867 37.9658C34.2396 37.9658 34.7925 38.0434 35.3059 38.1985Z" fill="#FFBF3C"/>
</g>
<defs>
<clipPath id="clip0_1611_6503">
<rect width="68" height="45" fill="white"/>
</clipPath>
</defs>
</svg>
