<svg width="44" height="44" viewBox="0 0 44 44" fill="none" xmlns="http://www.w3.org/2000/svg">
<g clip-path="url(#clip0_922_16690)">
<path d="M3.93488 37.7181H7.07647C7.51025 37.7181 7.86185 38.0696 7.86185 38.5034V39.014C7.85853 39.1208 7.92075 39.2189 8.01896 39.2614C8.11035 39.3079 8.2208 39.2945 8.29858 39.2276L10.9014 37.1502C11.0215 37.0559 11.0426 36.8821 10.9483 36.762C10.9346 36.7445 10.9189 36.7288 10.9014 36.7151L8.30088 34.6408C8.22329 34.5712 8.111 34.5566 8.01813 34.6039C7.92002 34.6463 7.8577 34.7444 7.86102 34.8513V35.3618C7.86102 35.7956 7.50933 36.1472 7.07564 36.1472H4.72025C2.98521 36.1472 1.57866 34.7407 1.57866 33.0056V25.937C1.57866 24.2019 2.98521 22.7954 4.72025 22.7954H10.2181C10.6518 22.7954 11.0034 22.4438 11.0034 22.01C11.0034 21.5762 10.6518 21.2246 10.2181 21.2246H3.93488C1.76715 21.2272 0.0104817 22.9839 0.0078125 25.1517V33.7912C0.0103896 35.9587 1.76706 37.7154 3.93488 37.7181Z" fill="#FFBF3C"/>
<path d="M7.07639 14.1553C8.4591 14.1561 9.81126 13.7487 10.9633 12.9842C10.7752 11.8504 9.79653 11.0177 8.64714 11.0137H5.50564C4.35633 11.0177 3.37758 11.8504 3.18945 12.9842C4.34152 13.7487 5.69367 14.1561 7.07639 14.1553Z" fill="#FFBF3C"/>
<path d="M7.07519 9.44139C8.81024 9.44139 10.2168 8.03485 10.2168 6.2998C10.2168 4.56474 8.81024 3.1582 7.07519 3.1582C5.34013 3.1582 3.93359 4.56474 3.93359 6.2998C3.93359 8.03485 5.34013 9.44139 7.07519 9.44139Z" fill="#FFBF3C"/>
<path d="M3.91605 9.78695C1.98515 8.04187 1.83448 5.06199 3.57956 3.13109C5.32463 1.20019 8.30451 1.04952 10.2354 2.79459C12.1663 4.53967 12.317 7.51955 10.5719 9.45045C10.4655 9.56826 10.3531 9.68055 10.2354 9.78695C11.1526 10.1962 11.8796 10.9392 12.2688 11.8651C14.9178 8.99743 14.7406 4.5254 11.873 1.8764C9.00539 -0.772596 4.53318 -0.595419 1.88418 2.27227C-0.617644 4.98054 -0.617644 9.15684 1.88418 11.8651C2.27277 10.9394 2.99924 10.1963 3.91605 9.78695Z" fill="#FFBF3C"/>
<path d="M16.5023 37.7168H24.3563C24.7901 37.7168 25.1417 38.0684 25.1417 38.5021V39.0127C25.1384 39.1195 25.2006 39.2176 25.2988 39.2601C25.3902 39.3066 25.5006 39.2932 25.5784 39.2263L28.1812 37.1489C28.2476 37.0966 28.2856 37.0159 28.2833 36.9313C28.2837 36.8474 28.2451 36.7682 28.1788 36.7168L25.5783 34.6425C25.5007 34.573 25.3884 34.5583 25.2956 34.6056C25.1974 34.6481 25.1351 34.7462 25.1385 34.853V35.3604C25.1385 35.7942 24.7869 36.1458 24.3531 36.1458H16.5022C16.0684 36.1458 15.7168 36.4974 15.7168 36.9312C15.7168 37.365 16.0685 37.7168 16.5023 37.7168Z" fill="#FFBF3C"/>
<path d="M18.6992 19.6799C18.6636 19.6627 18.6248 19.6534 18.5854 19.6523C18.5256 19.6536 18.4682 19.6756 18.4228 19.7144L15.8208 21.791C15.7002 21.8861 15.6795 22.0608 15.7745 22.1814C15.7881 22.1986 15.8036 22.2141 15.8208 22.2276L18.4197 24.3011C18.4965 24.3721 18.6099 24.387 18.7024 24.338C18.8005 24.2956 18.8629 24.1975 18.8595 24.0906V23.5793C18.8595 23.1455 19.2112 22.7939 19.6449 22.7939H27.4958C27.9296 22.7939 28.2812 22.4423 28.2812 22.0086C28.2812 21.5748 27.9296 21.2232 27.4958 21.2232H19.6418C19.208 21.2232 18.8564 20.8716 18.8564 20.4378V19.9281C18.8599 19.8209 18.7976 19.7224 18.6992 19.6799Z" fill="#FFBF3C"/>
<path d="M40.0634 6.30078H15.6758C15.6993 6.55997 15.7158 6.82071 15.7158 7.08616C15.7158 7.3516 15.6993 7.61235 15.6758 7.87153H39.278C41.0131 7.87153 42.4196 9.27808 42.4196 11.0131V18.0818C42.4196 19.8168 41.0131 21.2234 39.278 21.2234H36.9218C36.488 21.2234 36.1364 20.8718 36.1364 20.438V19.9275C36.1397 19.8206 36.0775 19.7225 35.9793 19.6801C35.8881 19.6322 35.7769 19.6456 35.6997 19.7138L33.0969 21.7913C32.977 21.8872 32.9575 22.0621 33.0534 22.1821C33.0662 22.1982 33.0808 22.2127 33.0969 22.2256L35.6981 24.3006C35.775 24.3717 35.8884 24.3865 35.9809 24.3375C36.079 24.2951 36.1413 24.197 36.138 24.0901V23.5796C36.138 23.1458 36.4896 22.7942 36.9234 22.7942H40.0649C42.2327 22.7916 43.9893 21.035 43.992 18.8672V10.2277C43.9894 8.05948 42.2318 6.30253 40.0634 6.30078Z" fill="#FFBF3C"/>
<path d="M36.9222 29.8613C33.0219 29.8657 29.8604 33.025 29.8535 36.9253V36.9347C29.8561 40.8385 33.023 44.0012 36.9269 43.9986C40.8307 43.9961 43.9934 40.8292 43.9908 36.9253C43.9883 33.0233 40.8242 29.8613 36.9222 29.8613ZM40.619 35.129L35.9066 39.8415C35.5999 40.1481 35.1027 40.1481 34.7961 39.8415L33.2252 38.2706C32.9239 37.9586 32.9324 37.4614 33.2444 37.1601C33.5488 36.8661 34.0314 36.8661 34.3358 37.1601L35.3513 38.1757L39.5085 34.0185C39.8205 33.7172 40.3177 33.7257 40.619 34.0377C40.9131 34.3421 40.9131 34.8247 40.619 35.129Z" fill="#FFBF3C"/>
</g>
<defs>
<clipPath id="clip0_922_16690">
<rect width="44" height="44" fill="white"/>
</clipPath>
</defs>
</svg>
