<svg width="149" height="41" viewBox="0 0 149 41" fill="none" xmlns="http://www.w3.org/2000/svg">
<mask id="mask0_595_1408" style="mask-type:luminance" maskUnits="userSpaceOnUse" x="0" y="0" width="149" height="41">
<path d="M149 0H0V40.8322H149V0Z" fill="white"/>
</mask>
<g mask="url(#mask0_595_1408)">
<path d="M112.088 24.6181C112.088 15.516 118.622 8.0301 126.952 7.24748C127.448 7.19644 127.961 7.16241 128.474 7.16241C135.846 7.16241 141.816 13.1001 141.816 20.4329C141.816 27.7656 136.24 33.295 129.227 33.6693C138.292 33.4481 145.579 25.7241 145.579 16.2305C145.579 11.5859 143.834 7.38359 141.012 4.25312C137.539 1.59903 133.212 0.0167847 128.491 0.0167847C117.151 0.0167847 107.965 9.15301 107.965 20.4329C107.965 27.8167 111.899 34.2647 117.801 37.8546C114.311 34.6561 112.105 29.9093 112.105 24.6181H112.088Z" fill="url(#paint0_linear_595_1408)"/>
<path d="M140.994 4.23625C143.834 7.36672 145.562 11.569 145.562 16.2137C145.562 25.7072 138.275 33.4312 129.209 33.6524C128.97 33.6524 128.714 33.6694 128.457 33.6694C121.085 33.6694 115.115 27.7318 115.115 20.399C115.115 13.5936 120.28 7.97918 126.934 7.21359C118.604 8.01319 112.07 15.4821 112.07 24.5842C112.07 29.8754 114.277 34.6222 117.766 37.8207C120.879 39.7092 124.54 40.815 128.457 40.815C139.797 40.815 148.982 31.6788 148.982 20.399C148.982 13.8148 145.835 7.96218 140.977 4.21924L140.994 4.23625Z" fill="url(#paint1_linear_595_1408)"/>
<path d="M31.0965 38.1438V2.63678H24.477V17.6766H6.67088V2.63678H0V38.1438H6.67088V23.0359H24.477V38.1438H31.0965Z" fill="white"/>
<path d="M81.2649 2.63678V38.1438H104.665V32.8526H87.9362V2.63678H81.2649Z" fill="white"/>
<path d="M56.1206 1.42865L38.7421 38.1266H43.3091V38.2286H70.6084V38.1266H73.6188L56.1206 1.42865ZM48.7655 31.6105L49.3984 30.2323L50.2707 28.2928L56.1035 15.7029L61.4231 27.4591L63.4243 31.6105H48.7826H48.7655Z" fill="white"/>
</g>
<defs>
<linearGradient id="paint0_linear_595_1408" x1="173.117" y1="1.76917" x2="114.427" y2="21.6954" gradientUnits="userSpaceOnUse">
<stop stop-color="#61ABDE"/>
<stop offset="0.25" stop-color="#8278B3"/>
<stop offset="0.5" stop-color="#985B9E"/>
<stop offset="0.75" stop-color="#D7619D"/>
<stop offset="1" stop-color="#EFBABB"/>
</linearGradient>
<linearGradient id="paint1_linear_595_1408" x1="106.614" y1="-0.221259" x2="144.26" y2="35.1978" gradientUnits="userSpaceOnUse">
<stop stop-color="#61ABDE"/>
<stop offset="0.25" stop-color="#8278B3"/>
<stop offset="0.5" stop-color="#985B9E"/>
<stop offset="0.75" stop-color="#D7619D"/>
<stop offset="1" stop-color="#EFBABB"/>
</linearGradient>
</defs>
</svg>
