<svg width="50" height="50" viewBox="0 0 50 50" fill="none" xmlns="http://www.w3.org/2000/svg">
<path d="M22.1161 9.53352V28.2379L15.9217 40.6218C15.4952 41.3779 14.71 41.8626 13.8423 41.9062H8.4429C7.64794 41.9062 7.28442 41.3391 7.64794 40.6218L13.8035 28.2379H2.68953C1.89468 28.2379 1.25 27.5932 1.25 26.7983V9.53352C1.25 8.73865 1.89468 8.09399 2.68953 8.09399H20.6766C21.4714 8.09399 22.1161 8.73865 22.1161 9.53352Z" fill="#536109"/>
<path d="M48.7489 9.53328V28.2376L42.5594 40.6215C42.128 41.3777 41.3428 41.8624 40.4751 41.906H35.0806C34.2807 41.906 33.9221 41.3389 34.2807 40.6215L40.4412 28.2376H29.3223C28.5275 28.2376 27.8828 27.593 27.8828 26.7981V9.53328C27.8828 8.7384 28.5275 8.09375 29.3223 8.09375H47.3094C48.1042 8.09375 48.7489 8.7384 48.7489 9.53328Z" fill="#536109"/>
</svg>
