<svg width="1831" height="1803" viewBox="0 0 1831 1803" fill="none" xmlns="http://www.w3.org/2000/svg">
<g opacity="0.3">
<path d="M915.057 0C409.685 0 0.00012207 403.609 0.00012207 901.486C0.00012207 1399.36 409.685 1802.97 915.057 1802.97C1420.43 1802.97 1830.11 1399.36 1830.11 901.486C1830.11 403.609 1420.43 0 915.057 0ZM915.057 1574.49C537.769 1574.49 231.917 1273.18 231.917 901.486C231.917 529.794 537.769 228.478 915.057 228.478C1292.34 228.478 1598.2 529.794 1598.2 901.486C1598.2 1273.18 1292.34 1574.49 915.057 1574.49Z" fill="url(#paint0_linear_1359_954)"/>
<path d="M915.057 0C409.685 0 0.00012207 403.609 0.00012207 901.486C0.00012207 1399.36 409.685 1802.97 915.057 1802.97C1420.43 1802.97 1830.11 1399.36 1830.11 901.486C1830.11 403.609 1420.43 0 915.057 0ZM915.057 1574.49C537.769 1574.49 231.917 1273.18 231.917 901.486C231.917 529.794 537.769 228.478 915.057 228.478C1292.34 228.478 1598.2 529.794 1598.2 901.486C1598.2 1273.18 1292.34 1574.49 915.057 1574.49Z" fill="url(#paint1_linear_1359_954)"/>
<path style="mix-blend-mode:overlay" d="M915.059 1771.95C795.874 1771.95 680.275 1748.94 571.465 1703.56C466.351 1659.72 371.944 1596.95 290.864 1517C209.783 1437.05 146.131 1343.95 101.67 1240.3C55.6469 1133.01 32.3105 1019.02 32.3105 901.488C32.3105 783.962 55.6469 669.97 101.67 562.674C146.131 459.022 209.783 365.928 290.864 285.975C371.944 206.023 466.351 143.256 571.465 99.4135C680.275 54.0303 795.874 31.0186 915.059 31.0186C1034.24 31.0186 1149.84 54.0303 1258.65 99.4135C1363.77 143.256 1458.17 206.023 1539.25 285.975C1620.33 365.928 1683.99 459.022 1728.45 562.674C1774.47 669.97 1797.8 783.962 1797.8 901.488C1797.8 1019.02 1774.47 1133.01 1728.45 1240.3C1683.99 1343.95 1620.33 1437.05 1539.25 1517C1458.17 1596.95 1363.77 1659.72 1258.65 1703.56C1149.84 1748.95 1034.24 1771.95 915.059 1771.95ZM915.059 197.063C521.155 197.063 200.691 513.068 200.691 901.494C200.691 1289.92 521.155 1605.92 915.059 1605.92C1308.96 1605.92 1629.43 1289.92 1629.43 901.494C1629.43 513.068 1308.96 197.063 915.059 197.063Z" fill="url(#paint2_linear_1359_954)"/>
<g style="mix-blend-mode:overlay">
<path d="M915.097 1759.23C805.789 1759.23 699.747 1738.14 599.922 1696.54C503.5 1656.36 416.91 1598.85 342.545 1525.58C268.186 1452.33 209.802 1367.02 169.016 1272.03C126.794 1173.69 105.387 1069.22 105.387 961.53C105.387 853.844 126.794 749.374 169.016 651.03C209.797 556.038 268.18 470.732 342.545 397.47C416.905 324.214 503.5 266.696 599.922 226.515C699.747 184.919 805.789 163.829 915.097 163.829C1024.4 163.829 1130.45 184.919 1230.27 226.515C1326.69 266.691 1413.28 324.208 1487.64 397.47C1562.01 470.727 1620.39 556.038 1661.17 651.03C1703.39 749.374 1724.8 853.844 1724.8 961.53C1724.8 1069.22 1703.39 1173.69 1661.17 1272.03C1620.39 1367.02 1562.01 1452.33 1487.64 1525.58C1413.28 1598.85 1326.69 1656.36 1230.27 1696.54C1130.45 1738.14 1024.4 1759.23 915.097 1759.23ZM915.097 167.577C470.719 167.577 109.196 523.743 109.196 961.525C109.196 1399.31 470.724 1755.47 915.097 1755.47C1359.47 1755.47 1721 1399.31 1721 961.525C1721 523.743 1359.47 167.577 915.097 167.577Z" fill="url(#paint3_linear_1359_954)" fill-opacity="0.8"/>
</g>
</g>
<path d="M915.187 1518.8C1181.89 1518.8 1398.09 1302.6 1398.09 1035.9C1398.09 769.201 1181.89 553 915.187 553C648.487 553 432.285 769.201 432.285 1035.9C432.285 1302.6 648.487 1518.8 915.187 1518.8ZM915.193 675.385C1114.3 675.385 1275.71 836.796 1275.71 1035.9C1275.71 1235.01 1114.3 1396.42 915.193 1396.42C716.087 1396.42 554.677 1235.01 554.677 1035.9C554.677 836.796 716.087 675.385 915.193 675.385Z" fill="url(#paint4_linear_1359_954)"/>
<path d="M915.187 1518.8C1181.89 1518.8 1398.09 1302.6 1398.09 1035.9C1398.09 769.201 1181.89 553 915.187 553C648.487 553 432.285 769.201 432.285 1035.9C432.285 1302.6 648.487 1518.8 915.187 1518.8ZM915.193 675.385C1114.3 675.385 1275.71 836.796 1275.71 1035.9C1275.71 1235.01 1114.3 1396.42 915.193 1396.42C716.087 1396.42 554.677 1235.01 554.677 1035.9C554.677 836.796 716.087 675.385 915.193 675.385Z" fill="url(#paint5_linear_1359_954)"/>
<path style="mix-blend-mode:overlay" d="M915.195 569.735C978.138 569.735 1039.18 582.057 1096.65 606.364C1152.16 629.843 1202.01 663.46 1244.83 706.277C1287.64 749.094 1321.26 798.953 1344.74 854.458C1369.04 911.919 1381.37 972.965 1381.37 1035.91C1381.37 1098.85 1369.05 1159.9 1344.74 1217.36C1321.26 1272.87 1287.64 1322.72 1244.83 1365.54C1202.01 1408.36 1152.15 1441.97 1096.65 1465.45C1039.18 1489.75 978.138 1502.08 915.195 1502.08C852.253 1502.08 791.206 1489.76 733.745 1465.45C678.234 1441.97 628.382 1408.36 585.565 1365.54C542.747 1322.72 509.13 1272.86 485.652 1217.36C461.35 1159.9 449.023 1098.85 449.023 1035.91C449.023 972.965 461.344 911.919 485.652 854.458C509.13 798.947 542.747 749.094 585.565 706.277C628.382 663.46 678.241 629.843 733.745 606.364C791.206 582.063 852.253 569.735 915.195 569.735ZM915.189 1413.15C1123.2 1413.15 1292.44 1243.92 1292.44 1035.9C1292.44 827.888 1123.21 658.65 915.189 658.65C707.176 658.65 537.937 827.882 537.937 1035.9C537.937 1243.92 707.169 1413.15 915.189 1413.15Z" fill="url(#paint6_linear_1359_954)"/>
<g style="mix-blend-mode:overlay">
<path d="M915.191 608.578C972.879 608.578 1028.84 619.875 1081.53 642.159C1132.41 663.68 1178.11 694.493 1217.36 733.737C1256.6 772.982 1287.41 818.683 1308.94 869.566C1331.22 922.248 1342.52 978.215 1342.52 1035.9C1342.52 1093.59 1331.22 1149.55 1308.94 1202.24C1287.41 1253.12 1256.6 1298.82 1217.36 1338.07C1178.11 1377.31 1132.41 1408.12 1081.53 1429.65C1028.85 1451.93 972.879 1463.23 915.191 1463.23C857.504 1463.23 801.543 1451.93 748.855 1429.65C697.972 1408.12 652.271 1377.31 613.027 1338.07C573.782 1298.82 542.969 1253.12 521.448 1202.24C499.164 1149.56 487.867 1093.59 487.867 1035.9C487.867 978.215 499.164 922.254 521.448 869.566C542.969 818.683 573.782 772.982 613.027 733.737C652.271 694.493 697.972 663.68 748.855 642.159C801.537 619.875 857.504 608.578 915.191 608.578ZM915.185 1461.22C1149.71 1461.22 1340.5 1270.42 1340.5 1035.9C1340.5 801.38 1149.71 610.584 915.185 610.584C680.663 610.584 489.867 801.38 489.867 1035.9C489.867 1270.42 680.663 1461.22 915.185 1461.22Z" fill="url(#paint7_linear_1359_954)"/>
</g>
<defs>
<linearGradient id="paint0_linear_1359_954" x1="915.057" y1="-121.822" x2="915.057" y2="1824.62" gradientUnits="userSpaceOnUse">
<stop stop-color="#4470F5"/>
<stop offset="0.38" stop-opacity="0"/>
<stop offset="0.79" stop-opacity="0"/>
<stop offset="1" stop-color="#2A3FCB"/>
</linearGradient>
<linearGradient id="paint1_linear_1359_954" x1="915.057" y1="-121.822" x2="915.057" y2="1824.62" gradientUnits="userSpaceOnUse">
<stop stop-color="#2279FB"/>
<stop offset="0.38" stop-opacity="0"/>
<stop offset="0.79" stop-opacity="0"/>
<stop offset="1" stop-color="#448AF5"/>
</linearGradient>
<linearGradient id="paint2_linear_1359_954" x1="-86.9689" y1="901.494" x2="1818.99" y2="901.494" gradientUnits="userSpaceOnUse">
<stop stop-color="white"/>
<stop offset="0.79" stop-opacity="0"/>
<stop offset="1" stop-color="white"/>
</linearGradient>
<linearGradient id="paint3_linear_1359_954" x1="915.097" y1="105.499" x2="915.097" y2="1805.42" gradientUnits="userSpaceOnUse">
<stop stop-color="white"/>
<stop offset="0.51" stop-opacity="0"/>
<stop offset="1" stop-color="white" stop-opacity="0.79"/>
</linearGradient>
<linearGradient id="paint4_linear_1359_954" x1="915.187" y1="1584.06" x2="915.187" y2="541.398" gradientUnits="userSpaceOnUse">
<stop stop-color="#2EDCFF"/>
<stop offset="0.38" stop-opacity="0"/>
<stop offset="0.79" stop-opacity="0"/>
<stop offset="1" stop-color="#2E4AFF"/>
</linearGradient>
<linearGradient id="paint5_linear_1359_954" x1="915.187" y1="1584.06" x2="915.187" y2="541.398" gradientUnits="userSpaceOnUse">
<stop stop-color="#2279FB"/>
<stop offset="0.38" stop-opacity="0"/>
<stop offset="0.79" stop-opacity="0"/>
<stop offset="1" stop-color="#2279FB"/>
</linearGradient>
<linearGradient id="paint6_linear_1359_954" x1="290.338" y1="1003" x2="1477.78" y2="1003" gradientUnits="userSpaceOnUse">
<stop stop-color="white"/>
<stop offset="1" stop-color="white"/>
</linearGradient>
<linearGradient id="paint7_linear_1359_954" x1="915.185" y1="1494.47" x2="915.185" y2="583.825" gradientUnits="userSpaceOnUse">
<stop stop-color="white"/>
<stop offset="0.51" stop-opacity="0"/>
<stop offset="1" stop-color="white" stop-opacity="0.79"/>
</linearGradient>
</defs>
</svg>
