<svg width="60" height="52" viewBox="0 0 60 52" fill="none" xmlns="http://www.w3.org/2000/svg">
<g clip-path="url(#clip0_438_9016)">
<mask id="mask0_438_9016" style="mask-type:luminance" maskUnits="userSpaceOnUse" x="0" y="0" width="60" height="52">
<path d="M59.6072 0H0V52H59.6072V0Z" fill="white"/>
</mask>
<g mask="url(#mask0_438_9016)">
<path d="M39.1492 50.357C39.1492 51.3403 39.9051 52.0001 40.7603 52.0001C41.6155 52.0001 42.1893 51.3403 42.1893 50.357V45.4685C42.1893 44.3208 42.7522 43.4393 43.9526 43.4393C45.0115 43.4393 45.6117 44.0956 45.6117 45.4685V50.357C45.6117 51.3403 46.2955 52.0001 47.1499 52.0001C48.0042 52.0001 48.7974 51.3403 48.7974 50.357V44.6995C48.7974 42.1989 47.0878 40.7227 44.7871 40.7227C43.4029 40.7227 42.5278 41.1322 41.9575 41.9321C41.8556 41.2556 41.3672 40.8453 40.6138 40.8453C39.7586 40.8453 39.1484 41.5008 39.1484 42.4851V50.3561L39.1492 50.357Z" fill="#007CBA"/>
<path d="M4.82812 46.2424C4.82812 49.5395 7.25794 51.9683 10.2192 51.9683C13.1806 51.9683 15.593 49.5011 15.593 46.2424V33.4895C15.593 32.5195 14.7668 31.9766 13.77 31.9766C12.7733 31.9766 11.9694 32.5212 11.9702 33.4895L11.9802 45.8279C11.9818 47.5336 11.543 48.2467 10.2201 48.2876C9.09336 48.3218 8.46914 47.6128 8.46995 45.8279L8.47493 33.4895C8.47493 32.5195 7.62549 31.9766 6.67512 31.9766C5.72472 31.9766 4.82812 32.5204 4.82812 33.4895V46.2424Z" fill="#007CBA"/>
<path d="M17.6189 50.2332C17.6189 51.2133 18.2274 51.8705 19.0792 51.8705C19.9311 51.8705 20.3575 51.4176 20.5396 50.6411C21.0877 51.5402 22.2235 51.9931 23.2169 51.9931C26.1584 51.9931 28.0245 49.2324 28.0245 46.4541C28.0245 43.6758 26.4622 40.6323 23.318 40.6323C22.3038 40.6323 21.2648 40.9793 20.4932 41.654V36.0441C20.4932 35.0632 19.9295 34.4102 19.0776 34.4102C18.2257 34.4102 17.6172 35.064 17.6172 36.0441V50.2332H17.6189ZM20.7888 46.2306C20.7888 44.9444 21.4453 43.6224 22.8502 43.6224C24.2551 43.6224 24.8934 45.0737 24.8934 46.3223C24.8934 47.5709 24.2187 48.9855 22.8502 48.9855C21.4089 48.9855 20.7888 47.5158 20.7888 46.2297V46.2306Z" fill="#007CBA"/>
<path d="M33.446 40.6406C30.3663 40.6406 28.2188 43.3539 28.2188 46.3332C28.2188 49.3124 30.3059 51.9881 33.446 51.9881C36.5861 51.9881 38.6732 49.3933 38.6732 46.3332C38.6732 43.2729 36.5257 40.6406 33.446 40.6406ZM33.446 43.7576C34.8385 43.7576 35.4553 45.1421 35.4553 46.3674C35.4553 47.5926 34.8203 48.9413 33.446 48.9413C32.0717 48.9413 31.4359 47.5917 31.4359 46.3674C31.4359 45.1429 32.0527 43.7576 33.446 43.7576Z" fill="#007CBA"/>
<path d="M59.6067 42.6124C59.6067 41.8508 59.6067 40.6781 58.1969 40.6781C57.4815 40.6781 56.8689 41.1927 56.787 41.9125C56.1329 40.9867 55.0708 40.5547 53.9879 40.5547C51.2907 40.5547 49.125 43.0444 49.125 46.2948C49.125 49.5451 51.2295 51.9972 53.9879 51.9972C55.1122 51.9972 56.0311 51.5202 56.787 50.6152C56.9914 51.3968 57.3383 51.8738 58.1969 51.8738C59.6067 51.8738 59.6067 50.6978 59.6067 49.9363V42.6115V42.6124ZM52.3711 46.2923C52.3711 45.077 52.9837 43.7033 54.3646 43.7033C55.7455 43.7033 56.306 45.077 56.306 46.2923C56.306 47.5075 55.6768 48.8461 54.3646 48.8461C53.0524 48.8461 52.3711 47.5075 52.3711 46.2923Z" fill="#007CBA"/>
<path d="M10.4081 8.82502C14.4481 8.82502 17.7431 12.143 17.7431 16.2115C17.7431 18.4294 16.7637 20.4244 15.218 21.7798C18.2878 23.176 20.3947 25.8217 20.49 28.8619C20.4925 28.9328 20.4933 36.803 20.4933 36.8748C20.4933 38.9475 17.6115 39.2118 17.6115 36.8748C17.6115 36.7613 17.6073 28.851 17.5998 28.741C17.3714 25.3329 13.6575 23.6331 10.2466 23.6331C6.83579 23.6331 3.1211 25.3321 2.89343 28.741C2.88598 28.8502 2.88184 36.7613 2.88184 36.8748C2.88184 39.2118 0 38.9475 0 36.8748C0 36.7313 0.00413938 28.7893 0.013246 28.6475C0.202002 25.6265 2.37683 23.0209 5.49048 21.6839C4.00692 20.331 3.07226 18.3776 3.07226 16.2107C3.07226 12.1421 6.36721 8.82422 10.4072 8.82422L10.4081 8.82502ZM10.4081 11.7151C7.94846 11.7151 5.94334 13.7352 5.94334 16.2115C5.94334 18.6879 7.94927 20.708 10.4081 20.708C12.8669 20.708 14.8728 18.6879 14.8728 16.2115C14.8728 13.7352 12.8669 11.7151 10.4081 11.7151Z" fill="#FFBF3C"/>
<path fill-rule="evenodd" clip-rule="evenodd" d="M12.861 7.57713C12.0505 7.28936 11.76 6.34186 12.0075 5.67043C12.2484 5.01986 12.9364 4.51942 13.6798 4.70208C16.2156 5.35766 17.9782 6.55121 19.2307 7.90656C20.8931 9.70569 21.7135 11.8843 22.1482 14.0737C22.1896 14.5983 21.6647 15.3464 20.9577 15.4857C20.3873 15.5975 19.5892 15.4157 19.2663 14.5949C18.8582 12.6991 18.1023 11.1369 16.9681 9.93837C15.9259 8.83736 14.5648 8.04249 12.861 7.57625V7.57713Z" fill="#FFD17B"/>
<path fill-rule="evenodd" clip-rule="evenodd" d="M13.306 2.86762C12.5427 2.45392 12.4475 1.4447 12.6859 0.927577C12.8705 0.525558 13.3499 -0.125015 14.2704 0.0209467C17.654 1.0627 20.3603 2.67662 22.4408 4.8035C24.7365 7.15056 26.3889 10.2391 26.6216 14.0642C26.547 14.8982 25.8483 15.4036 25.2249 15.4253C24.6496 15.4454 23.8573 15.1409 23.6768 14.3411C23.4748 11.2092 22.2636 8.99219 20.4978 7.05798C18.7857 5.18299 16.3989 3.77926 13.306 2.86846V2.86762Z" fill="#FFE4B3"/>
</g>
</g>
<defs>
<clipPath id="clip0_438_9016">
<rect width="60" height="52" fill="white"/>
</clipPath>
</defs>
</svg>
