<svg width="32" height="28" viewBox="0 0 32 28" fill="none" xmlns="http://www.w3.org/2000/svg">
<g clip-path="url(#clip0_624_15389)">
<mask id="mask0_624_15389" style="mask-type:luminance" maskUnits="userSpaceOnUse" x="0" y="0" width="32" height="28">
<path d="M31.7905 0H0V28H31.7905V0Z" fill="white"/>
</mask>
<g mask="url(#mask0_624_15389)">
<path d="M20.8796 27.1153C20.8796 27.6448 21.2827 28.0001 21.7388 28.0001C22.195 28.0001 22.5009 27.6448 22.5009 27.1153V24.483C22.5009 23.8651 22.8012 23.3904 23.4414 23.3904C24.0061 23.3904 24.3262 23.7438 24.3262 24.483V27.1153C24.3262 27.6448 24.691 28.0001 25.1466 28.0001C25.6022 28.0001 26.0253 27.6448 26.0253 27.1153V24.069C26.0253 22.7225 25.1135 21.9276 23.8865 21.9276C23.1482 21.9276 22.6815 22.1481 22.3773 22.5788C22.323 22.2146 22.0625 21.9936 21.6607 21.9936C21.2046 21.9936 20.8792 22.3466 20.8792 22.8766V27.1148L20.8796 27.1153Z" fill="#007CBA"/>
<path d="M2.575 24.8998C2.575 26.6751 3.8709 27.9829 5.45026 27.9829C7.02966 27.9829 8.31629 26.6545 8.31629 24.8998V18.0328C8.31629 17.5105 7.87563 17.2181 7.344 17.2181C6.81241 17.2181 6.38369 17.5114 6.38412 18.0328L6.38942 24.6766C6.39028 25.595 6.15629 25.979 5.45073 26.001C4.84979 26.0194 4.51688 25.6377 4.51731 24.6766L4.51996 18.0328C4.51996 17.5105 4.06693 17.2181 3.56007 17.2181C3.05318 17.2181 2.575 17.511 2.575 18.0328V24.8998Z" fill="#007CBA"/>
<path d="M9.39673 27.0487C9.39673 27.5764 9.72126 27.9303 10.1756 27.9303C10.6299 27.9303 10.8573 27.6864 10.9545 27.2683C11.2468 27.7524 11.8525 27.9963 12.3824 27.9963C13.9511 27.9963 14.9464 26.5097 14.9464 25.0137C14.9464 23.5177 14.1132 21.8789 12.4363 21.8789C11.8954 21.8789 11.3412 22.0658 10.9297 22.4291V19.4083C10.9297 18.8802 10.629 18.5285 10.1747 18.5285C9.72036 18.5285 9.39583 18.8806 9.39583 19.4083V27.0487H9.39673ZM11.0873 24.8934C11.0873 24.2008 11.4375 23.489 12.1868 23.489C12.936 23.489 13.2765 24.2704 13.2765 24.9428C13.2765 25.6151 12.9167 26.3768 12.1868 26.3768C11.4181 26.3768 11.0873 25.5854 11.0873 24.8929V24.8934Z" fill="#007CBA"/>
<path d="M17.8379 21.8834C16.1954 21.8834 15.05 23.3444 15.05 24.9486C15.05 26.5528 16.1631 27.9936 17.8379 27.9936C19.5126 27.9936 20.6257 26.5964 20.6257 24.9486C20.6257 23.3008 19.4804 21.8834 17.8379 21.8834ZM17.8379 23.5618C18.5805 23.5618 18.9095 24.3073 18.9095 24.9671C18.9095 25.6268 18.5708 26.353 17.8379 26.353C17.1049 26.353 16.7658 25.6263 16.7658 24.9671C16.7658 24.3078 17.0948 23.5618 17.8379 23.5618Z" fill="#007CBA"/>
<path d="M31.7902 22.9451C31.7902 22.535 31.7902 21.9036 31.0383 21.9036C30.6568 21.9036 30.3301 22.1807 30.2864 22.5683C29.9376 22.0698 29.3711 21.8371 28.7936 21.8371C27.355 21.8371 26.2 23.1777 26.2 24.9279C26.2 26.6781 27.3224 27.9985 28.7936 27.9985C29.3932 27.9985 29.8833 27.7416 30.2864 27.2543C30.3954 27.6752 30.5805 27.9321 31.0383 27.9321C31.7902 27.9321 31.7902 27.2988 31.7902 26.8888V22.9446V22.9451ZM27.9312 24.9266C27.9312 24.2722 28.258 23.5325 28.9945 23.5325C29.7309 23.5325 30.0299 24.2722 30.0299 24.9266C30.0299 25.5809 29.6943 26.3017 28.9945 26.3017C28.2946 26.3017 27.9312 25.5809 27.9312 24.9266Z" fill="#007CBA"/>
<path d="M5.55098 4.75193C7.70568 4.75193 9.46298 6.53853 9.46298 8.72927C9.46298 9.92349 8.94064 10.9977 8.11629 11.7276C9.75348 12.4794 10.8772 13.904 10.928 15.541C10.9293 15.5792 10.9298 19.817 10.9298 19.8556C10.9298 20.9717 9.39278 21.1141 9.39278 19.8556C9.39278 19.7946 9.39056 15.5352 9.38658 15.4759C9.26474 13.6408 7.28398 12.7255 5.46486 12.7255C3.64575 12.7255 1.66459 13.6404 1.54316 15.4759C1.53919 15.5347 1.53698 19.7946 1.53698 19.8556C1.53698 21.1141 0 20.9717 0 19.8556C0 19.7784 0.00220767 15.5019 0.00706455 15.4256C0.107735 13.7989 1.26764 12.3959 2.92826 11.6759C2.13703 10.9475 1.63854 9.89565 1.63854 8.72884C1.63854 6.53805 3.39584 4.7515 5.55052 4.7515L5.55098 4.75193ZM5.55098 6.3081C4.23918 6.3081 3.16978 7.39588 3.16978 8.72927C3.16978 10.0627 4.23961 11.1504 5.55098 11.1504C6.86232 11.1504 7.93218 10.0627 7.93218 8.72927C7.93218 7.39588 6.86232 6.3081 5.55098 6.3081Z" fill="#FFBF3C"/>
<path fill-rule="evenodd" clip-rule="evenodd" d="M6.85922 4.07999C6.42695 3.92503 6.27198 3.41484 6.404 3.0533C6.53247 2.703 6.89942 2.43353 7.2959 2.53188C8.64833 2.88489 9.58835 3.52757 10.2564 4.25737C11.143 5.22614 11.5805 6.39922 11.8124 7.57814C11.8344 7.86062 11.5545 8.26347 11.1774 8.33847C10.8732 8.39865 10.4476 8.30073 10.2754 7.85881C10.0577 6.83799 9.65458 5.99681 9.04966 5.35143C8.4938 4.75857 7.7679 4.33057 6.85922 4.07952V4.07999Z" fill="#FFD17B"/>
<path fill-rule="evenodd" clip-rule="evenodd" d="M7.09652 1.54411C6.68942 1.32134 6.63865 0.777915 6.76583 0.499465C6.86429 0.282993 7.11993 -0.0673159 7.6109 0.011279C9.41547 0.572221 10.8588 1.44126 11.9684 2.5865C13.1928 3.8503 14.0741 5.51336 14.1982 7.57301C14.1584 8.02212 13.7858 8.29427 13.4533 8.30594C13.1464 8.31675 12.7239 8.15281 12.6276 7.72212C12.5199 6.0357 11.8739 4.84195 10.9321 3.80045C10.0191 2.79084 8.74608 2.03498 7.09652 1.54456V1.54411Z" fill="#FFE4B3"/>
</g>
</g>
<defs>
<clipPath id="clip0_624_15389">
<rect width="32" height="28" fill="white"/>
</clipPath>
</defs>
</svg>
