<svg width="175" height="36" viewBox="0 0 175 36" fill="none" xmlns="http://www.w3.org/2000/svg">
<path d="M50.7012 8.44106C50.7012 12.2122 47.7683 15.2357 44.1711 15.2357H38.0137V8.44106H40.1039V13.076H44.1711C46.6016 13.076 48.5947 11.0493 48.5947 8.44106C48.5947 5.96575 46.6178 3.88915 44.1711 3.88915H38.0137V1.74609H44.1711C47.7845 1.74609 50.7012 4.76963 50.7012 8.44106Z" fill="white"/>
<path d="M64.7652 1.74513V3.88818H58.2027C55.7884 3.88818 54.1518 5.96479 54.1518 8.47332C54.1518 11.0317 55.7722 13.0585 58.2027 13.0585H64.7652V15.2347H58.2027C54.6055 15.2347 52.0615 12.2112 52.0615 8.47332C52.0615 4.75205 54.6055 1.72852 58.2027 1.72852H64.7652V1.74513ZM55.8694 9.53655V7.37688H64.7652V9.51993H55.8694V9.53655Z" fill="white"/>
<path d="M70.2262 7.44429H76.9184V9.58735H70.2262C69.3026 9.58735 68.5248 10.418 68.5248 11.4148V15.2523H66.4346V11.4148C66.4346 9.22187 68.136 7.44429 70.2262 7.44429ZM67.4878 3.88915V1.74609H78.0526V3.88915H67.4878Z" fill="white"/>
<path d="M79.624 15.2523V1.74609H81.7143V15.2523H79.624Z" fill="white"/>
<path d="M96.6867 1.74609V15.2523H92.4413L87.5316 3.72302H86.3487V15.2523H84.4043V1.74609H88.8117L93.7376 13.2588H94.7423V1.74609H96.6867Z" fill="white"/>
<path d="M99.3281 15.2523V1.74609H101.435V15.2523H99.3281Z" fill="white"/>
<path d="M116.391 1.74609V15.2523H112.145L107.236 3.72302H106.053V15.2523H104.108V1.74609H108.516L113.426 13.2588H114.43V1.74609H116.391Z" fill="white"/>
<path d="M131.541 7.44429V15.2523H124.962C121.316 15.2523 118.367 12.2288 118.367 8.4909C118.367 4.76963 121.316 1.74609 124.962 1.74609H131.379V3.85592H124.962C122.467 3.85592 120.425 5.94914 120.425 8.4909C120.425 11.0493 122.467 13.1425 124.962 13.1425H129.483V9.55412H124.962V7.44429H131.541Z" fill="white"/>
<path d="M50.2957 20.5508V22.7271H44.754V34.057H42.6637V22.7271H37.1221V20.5508H50.2957Z" fill="white"/>
<path d="M65.2188 20.5508V34.057H63.1285V28.3754H53.9086V34.057H51.8184V20.5508H53.9086V26.2324H63.1285V20.5508H65.2188Z" fill="white"/>
<path d="M79.9647 20.5508V22.6938H73.4022C70.9878 22.6938 69.3513 24.7704 69.3513 27.279C69.3513 29.8374 70.9716 31.8641 73.4022 31.8641H79.9647V34.057H73.4022C69.805 34.057 67.261 31.0335 67.261 27.2956C67.261 23.5743 69.805 20.5508 73.4022 20.5508H79.9647ZM71.0527 28.3422V26.1991H79.9485V28.3422H71.0527Z" fill="white"/>
<path d="M93.527 26.2499H100.219V28.393H93.527C92.6034 28.393 91.8256 29.2236 91.8256 30.2204V34.058H89.7354V30.2204C89.7354 28.0275 91.4367 26.2499 93.527 26.2499ZM90.7886 22.7114V20.5684H101.353V22.7114H90.7886Z" fill="white"/>
<path d="M115.807 20.5508V27.8604C115.807 31.8143 112.858 34.2564 109.229 34.2564C105.583 34.2564 102.634 31.8143 102.634 27.8604V20.5508H104.805V27.8604C104.805 30.6182 106.782 32.0469 109.229 32.0469C111.643 32.0469 113.652 30.6182 113.652 27.8604V20.5508H115.807Z" fill="white"/>
<path d="M130.213 20.5508V22.7271H124.671V34.057H122.581V22.7271H117.039V20.5508H130.213Z" fill="white"/>
<path d="M144.601 20.5508V27.8604C144.601 31.8143 141.652 34.2564 138.023 34.2564C134.377 34.2564 131.428 31.8143 131.428 27.8604V20.5508H133.599V27.8604C133.599 30.6182 135.576 32.0469 138.023 32.0469C140.437 32.0469 142.446 30.6182 142.446 27.8604V20.5508H144.601Z" fill="white"/>
<path d="M156.803 29.7709L158.277 34.057H156.041L154.81 30.5185C154.372 29.2227 153.627 28.3754 152.946 28.3754H150.24C149.317 28.3754 148.539 29.2061 148.539 30.2028V34.057H146.448V30.1862C146.448 27.9933 148.15 26.2158 150.24 26.2158H155.377C156.317 26.2158 157.078 25.4183 157.078 24.4548C157.078 23.5079 156.317 22.7271 155.377 22.7271H147.502V20.5508H155.377C157.499 20.5508 159.217 22.2951 159.217 24.4382C159.217 26.3487 157.872 27.9435 156.122 28.2924C156.381 28.7243 156.608 29.2393 156.803 29.7709Z" fill="white"/>
<path d="M173.217 20.5508V22.6938H166.655C164.241 22.6938 162.604 24.7704 162.604 27.279C162.604 29.8374 164.224 31.8641 166.655 31.8641H173.217V34.057H166.655C163.058 34.057 160.514 31.0335 160.514 27.2956C160.514 23.5743 163.058 20.5508 166.655 20.5508H173.217ZM164.322 28.3422V26.1991H173.217V28.3422H164.322Z" fill="white"/>
<path d="M16.5114 1.7793H15.9929V6.91266H16.5114C22.3447 6.91266 27.0762 11.8633 27.0762 17.7941C27.0762 24.0073 22.3285 28.8582 16.5114 28.8582H6.78917V26.2666V24.8711C6.78917 22.5121 8.63639 20.5186 10.8563 20.5186H18.5693V15.3852H10.8563C5.84936 15.3852 1.78223 19.6381 1.78223 24.8711V26.2666V34.0414H6.78917H16.4952C25.1156 34.0414 32.1156 26.8148 32.1156 17.7941C32.1318 8.98927 25.1318 1.7793 16.5114 1.7793Z" fill="white"/>
<path d="M14.1619 1.74609L1.78223 1.77932V14.4715H6.78917V6.91268L14.1619 6.87946V1.74609Z" fill="#0065BD"/>
</svg>
