<svg width="24" height="24" viewBox="0 0 24 24" fill="none" xmlns="http://www.w3.org/2000/svg">
<g clip-path="url(#clip0_922_31583)">
<path d="M7.38519 4.15385V0.923103C7.38519 0.415393 6.9698 0 6.46216 0C5.95453 0 5.53906 0.415393 5.53906 0.923103V4.15385C5.53906 4.66156 5.95445 5.07695 6.46216 5.07695C6.96988 5.07695 7.38519 4.66156 7.38519 4.15385Z" fill="#FFBF3C"/>
<path d="M18.4614 4.15385V0.923103C18.4614 0.415393 18.046 0 17.5383 0C17.0306 0 16.6152 0.415393 16.6152 0.923103V4.15385C16.6152 4.66156 17.0306 5.07695 17.5383 5.07695C18.046 5.07695 18.4614 4.66156 18.4614 4.15385Z" fill="#FFBF3C"/>
<path d="M23.0776 21.6176V9.69141H0.923828V21.6176C0.923828 22.9329 1.98998 23.9991 3.30534 23.9991H20.6961C22.0115 23.9991 23.0776 22.9329 23.0776 21.6176Z" fill="#FFBF3C"/>
<path d="M15.693 4.15415V2.76953H8.30843V4.15415C8.30843 5.17418 7.48225 6.00028 6.46229 6.00028C5.44234 6.00028 4.61609 5.17411 4.61609 4.15415V2.76953H3.30534C1.98998 2.76953 0.923828 3.83569 0.923828 5.15105V8.76951H23.0777V5.15105C23.0777 3.83569 22.0115 2.76953 20.6962 2.76953H19.3854V4.15415C19.3854 5.17418 18.5593 6.00028 17.5393 6.00028C16.5193 6.00028 15.693 5.17411 15.693 4.15415Z" fill="#FFBF3C"/>
</g>
<defs>
<clipPath id="clip0_922_31583">
<rect width="24" height="24" fill="white"/>
</clipPath>
</defs>
</svg>
