<svg width="20" height="20" viewBox="0 0 20 20" fill="none" xmlns="http://www.w3.org/2000/svg">
<g clip-path="url(#clip0_922_22303)">
<path fill-rule="evenodd" clip-rule="evenodd" d="M13.75 8.75C10.6469 8.75 8.125 11.2706 8.125 14.375C8.125 17.4794 10.6469 20 13.75 20C16.8531 20 19.375 17.4794 19.375 14.375C19.375 11.2706 16.8531 8.75 13.75 8.75ZM13.75 10C16.1656 10 18.125 11.9603 18.125 14.375C18.125 16.7897 16.1656 18.75 13.75 18.75C11.3344 18.75 9.375 16.7897 9.375 14.375C9.375 11.9603 11.3344 10 13.75 10ZM15.625 7.61344V4.375C15.625 1.95875 13.6656 0 11.25 0C9.30625 0 6.94375 0 5 0C3.84063 0 2.72816 0.460937 1.90628 1.28156C1.08441 2.10187 0.625 3.21469 0.625 4.375V14.375C0.625 15.5353 1.08441 16.6481 1.90628 17.4684C2.72816 18.2891 3.84063 18.75 5 18.75H7.98752C8.33439 18.75 8.61252 18.47 8.61252 18.125C8.61252 17.78 8.33439 17.5 7.98752 17.5C7.98752 17.5 6.54688 17.5 5 17.5C4.17188 17.5 3.37498 17.1706 2.7906 16.5847C2.2031 15.9988 1.875 15.2037 1.875 14.375V4.375C1.875 3.54625 2.2031 2.75125 2.7906 2.16531C3.37498 1.57938 4.17188 1.25 5 1.25H11.25C12.975 1.25 14.375 2.64906 14.375 4.375V7.61344C14.375 7.95844 14.6562 8.23844 15 8.23844C15.3438 8.23844 15.625 7.95844 15.625 7.61344ZM15.9375 13.75H14.375V11.25C14.375 10.905 14.0938 10.625 13.75 10.625C13.4062 10.625 13.125 10.905 13.125 11.25V14.375C13.125 14.7203 13.4031 15 13.75 15H15.9375C16.2812 15 16.5625 14.72 16.5625 14.375C16.5625 14.03 16.2812 13.75 15.9375 13.75ZM4.6875 12.5H7.34375C7.69063 12.5 7.96875 12.22 7.96875 11.875C7.96875 11.53 7.69063 11.25 7.34375 11.25H4.6875C4.34375 11.25 4.0625 11.53 4.0625 11.875C4.0625 12.22 4.34375 12.5 4.6875 12.5ZM4.6875 10H9.03435C9.3781 10 9.65935 9.72 9.65935 9.375C9.65935 9.03 9.3781 8.75 9.03435 8.75H4.6875C4.34375 8.75 4.0625 9.03 4.0625 9.375C4.0625 9.72 4.34375 10 4.6875 10ZM4.6875 7.5H11.5625C11.9062 7.5 12.1875 7.22 12.1875 6.875C12.1875 6.53 11.9062 6.25 11.5625 6.25H4.6875C4.34375 6.25 4.0625 6.53 4.0625 6.875C4.0625 7.22 4.34375 7.5 4.6875 7.5Z" fill="white"/>
</g>
<defs>
<clipPath id="clip0_922_22303">
<rect width="20" height="20" fill="white"/>
</clipPath>
</defs>
</svg>
