<svg width="20" height="20" viewBox="0 0 20 20" fill="none" xmlns="http://www.w3.org/2000/svg">
<g clip-path="url(#clip0_922_22281)">
<mask id="mask0_922_22281" style="mask-type:luminance" maskUnits="userSpaceOnUse" x="0" y="0" width="20" height="20">
<path d="M0 0H20V20H0V0Z" fill="white"/>
</mask>
<g mask="url(#mask0_922_22281)">
<path fill-rule="evenodd" clip-rule="evenodd" d="M19.7559 4.41009C20.0813 4.73553 20.0813 5.26317 19.7559 5.58861L11.8392 13.5053C11.5138 13.8307 10.9862 13.8307 10.6607 13.5053L7.08333 9.92785L1.42259 15.5886C1.09715 15.914 0.569514 15.914 0.244078 15.5886C-0.0813592 15.2632 -0.0813592 14.7355 0.244078 14.4101L6.49407 8.16009C6.81952 7.83466 7.34715 7.83466 7.67259 8.16009L11.25 11.7375L18.5774 4.41009C18.9028 4.08466 19.4305 4.08466 19.7559 4.41009Z" fill="white"/>
<path fill-rule="evenodd" clip-rule="evenodd" d="M13.334 4.99935C13.334 4.53912 13.7071 4.16602 14.1673 4.16602H19.1673C19.6276 4.16602 20.0007 4.53912 20.0007 4.99935V9.99935C20.0007 10.4596 19.6276 10.8327 19.1673 10.8327C18.7071 10.8327 18.334 10.4596 18.334 9.99935V5.83268H14.1673C13.7071 5.83268 13.334 5.45958 13.334 4.99935Z" fill="white"/>
</g>
</g>
<defs>
<clipPath id="clip0_922_22281">
<rect width="20" height="20" fill="white"/>
</clipPath>
</defs>
</svg>
