<svg width="20" height="20" viewBox="0 0 20 20" fill="none" xmlns="http://www.w3.org/2000/svg">
<path d="M18.116 14.3993L14.916 11.441C15.366 10.4993 15.6243 9.44102 15.6243 8.33268C15.6243 4.31602 12.3577 1.04102 8.33268 1.04102C4.30768 1.04102 1.04102 4.31602 1.04102 8.33268C1.04102 12.3493 4.30768 15.6243 8.33268 15.6243C9.44935 15.6243 10.4993 15.366 11.441 14.916L14.3993 18.116C14.891 18.641 15.5577 18.941 16.2743 18.9577H16.3327C17.0327 18.9577 17.691 18.691 18.191 18.191C18.6827 17.6993 18.9577 17.0327 18.9577 16.3327C18.9577 15.6327 18.6577 14.9077 18.116 14.3993ZM2.29102 8.33268C2.29102 4.99935 4.99935 2.29102 8.33268 2.29102C11.666 2.29102 14.3743 4.99935 14.3743 8.33268C14.3743 11.666 11.666 14.3743 8.33268 14.3743C4.99935 14.3743 2.29102 11.666 2.29102 8.33268ZM17.3077 17.3077C17.0327 17.5743 16.6743 17.7077 16.2993 17.7077C15.9243 17.7077 15.566 17.541 15.316 17.266L12.5493 14.2743C13.216 13.7993 13.7993 13.216 14.2743 12.5493L17.266 15.316C17.5493 15.5827 17.7077 15.9493 17.7077 16.3327C17.7077 16.716 17.566 17.0493 17.3077 17.3077ZM12.291 8.33268C12.291 8.67435 12.0077 8.95768 11.666 8.95768C11.3243 8.95768 11.041 8.67435 11.041 8.33268C11.041 6.84102 9.82435 5.62435 8.33268 5.62435C7.99102 5.62435 7.70768 5.34102 7.70768 4.99935C7.70768 4.65768 7.99102 4.37435 8.33268 4.37435C10.516 4.37435 12.291 6.14935 12.291 8.33268Z" fill="white"/>
</svg>
