<svg width="1392" height="303" viewBox="0 0 1392 303" fill="none" xmlns="http://www.w3.org/2000/svg">
<g filter="url(#filter0_f_438_8931)">
<path d="M1234.17 217.323C1233.33 255.128 1011.39 225.017 714.453 220.068C417.518 215.119 172.404 238.879 173.244 201.074C174.083 163.268 402.699 102.796 699.634 107.745C996.568 112.694 1235.01 179.517 1234.17 217.323Z" fill="url(#paint0_linear_438_8931)" fill-opacity="0.8"/>
</g>
<g style="mix-blend-mode:plus-lighter" opacity="0.8" filter="url(#filter1_f_438_8931)">
<path d="M1199.83 192.279C1199.51 206.71 1001.21 165.783 733.283 161.318C465.357 156.852 234.729 190.999 235.05 176.569C235.37 162.138 456.796 107.98 724.721 112.445C992.646 116.91 1200.15 177.849 1199.83 192.279Z" fill="white"/>
<path d="M724.711 112.935C858.64 115.167 977.466 131.514 1062.77 149.105C1105.42 157.901 1139.68 167.006 1163.25 174.81C1175.04 178.713 1184.14 182.286 1190.27 185.328C1193.34 186.85 1195.65 188.229 1197.18 189.438C1197.95 190.043 1198.5 190.593 1198.86 191.083C1199.21 191.575 1199.34 191.968 1199.34 192.27C1199.32 192.821 1198.85 193.406 1197.33 193.892C1195.86 194.363 1193.64 194.659 1190.66 194.785C1184.72 195.037 1175.92 194.607 1164.51 193.669C1141.7 191.792 1108.52 187.891 1066.96 183.397C983.851 174.411 867.278 163.06 733.294 160.827C599.31 158.594 474.654 166.017 383.544 172.192C337.983 175.279 300.822 178.054 275.068 179.156C262.188 179.707 252.182 179.839 245.412 179.385C242.022 179.157 239.478 178.784 237.798 178.259C236.956 177.995 236.369 177.705 236.003 177.403C235.649 177.112 235.534 176.839 235.54 176.577C235.546 176.282 235.697 175.897 236.098 175.415C236.496 174.936 237.105 174.404 237.938 173.823C239.602 172.663 242.093 171.358 245.385 169.937C251.964 167.096 261.663 163.822 274.149 160.306C299.117 153.275 335.18 145.295 379.612 137.904C468.473 123.123 590.782 110.703 724.711 112.935Z" stroke="white" stroke-width="0.980066"/>
</g>
<g style="mix-blend-mode:overlay" opacity="0.8" filter="url(#filter2_f_438_8931)">
<path d="M1185.71 226.135C1185.13 252.142 987.504 181.045 719.578 176.58C451.653 172.115 220.348 236.728 220.926 210.721C221.504 184.714 443.96 84.1637 711.885 88.6291C979.81 93.0946 1186.29 200.128 1185.71 226.135Z" fill="white"/>
<path d="M711.875 89.1192C845.777 91.351 964.324 119.214 1049.32 149.766C1091.82 165.042 1125.92 180.987 1149.35 194.729C1161.06 201.602 1170.1 207.915 1176.18 213.311C1179.22 216.009 1181.51 218.466 1183.03 220.636C1184.55 222.818 1185.25 224.655 1185.22 226.127C1185.19 227.557 1184.5 228.657 1183.08 229.491C1181.63 230.343 1179.43 230.902 1176.46 231.168C1170.54 231.699 1161.77 231.045 1150.38 229.507C1127.6 226.431 1094.49 219.846 1052.99 212.302C970.011 197.219 853.592 178.324 719.59 176.091C585.589 173.857 460.751 188.898 369.501 201.243C323.867 207.417 286.654 212.913 260.879 215.242C247.986 216.407 237.993 216.776 231.253 216.05C227.877 215.687 225.369 215.054 223.727 214.145C222.109 213.25 221.385 212.124 221.416 210.729C221.449 209.265 222.271 207.454 223.974 205.319C225.667 203.196 228.186 200.812 231.5 198.209C238.128 193.007 247.882 186.979 260.429 180.479C285.52 167.482 321.726 152.625 366.294 138.716C455.429 110.899 577.973 86.8875 711.875 89.1192Z" stroke="white" stroke-width="0.980066"/>
</g>
<path d="M1391.65 234.368L1391.65 501.749L0.348633 501.749L0.348656 234.757C174.768 161.036 422.127 115.018 696.46 115.018C970.31 115.018 1217.28 160.874 1391.65 234.368Z" fill="url(#paint1_linear_438_8931)"/>
<g opacity="0.87" filter="url(#filter3_f_438_8931)">
<path d="M694.971 141.63C490.562 134.118 326 144.292 326.427 131.216C326.853 118.14 492.107 86.7669 696.516 94.279C900.925 101.791 1067.57 136.934 1067.14 150.01C1066.72 163.086 899.38 149.143 694.971 141.63Z" fill="url(#paint2_linear_438_8931)"/>
</g>
<g style="mix-blend-mode:plus-lighter" opacity="0.87" filter="url(#filter4_f_438_8931)">
<path d="M691.39 117.413C449.423 108.521 266.795 160.657 266.893 157.643C266.991 154.63 449.779 97.6066 691.746 106.499C933.713 115.391 1142.97 164.81 1142.87 167.824C1142.78 170.838 933.357 126.306 691.39 117.413Z" fill="#6F45EA"/>
</g>
<defs>
<filter id="filter0_f_438_8931" x="74.7449" y="8.96281" width="1257.92" height="325.644" filterUnits="userSpaceOnUse" color-interpolation-filters="sRGB">
<feFlood flood-opacity="0" result="BackgroundImageFix"/>
<feBlend mode="normal" in="SourceGraphic" in2="BackgroundImageFix" result="shape"/>
<feGaussianBlur stdDeviation="49.2483" result="effect1_foregroundBlur_438_8931"/>
</filter>
<filter id="filter1_f_438_8931" x="203.099" y="80.2339" width="1028.68" height="147.062" filterUnits="userSpaceOnUse" color-interpolation-filters="sRGB">
<feFlood flood-opacity="0" result="BackgroundImageFix"/>
<feBlend mode="normal" in="SourceGraphic" in2="BackgroundImageFix" result="shape"/>
<feGaussianBlur stdDeviation="15.9751" result="effect1_foregroundBlur_438_8931"/>
</filter>
<filter id="filter2_f_438_8931" x="188.975" y="56.5347" width="1028.69" height="207.255" filterUnits="userSpaceOnUse" color-interpolation-filters="sRGB">
<feFlood flood-opacity="0" result="BackgroundImageFix"/>
<feBlend mode="normal" in="SourceGraphic" in2="BackgroundImageFix" result="shape"/>
<feGaussianBlur stdDeviation="15.9751" result="effect1_foregroundBlur_438_8931"/>
</filter>
<filter id="filter3_f_438_8931" x="234.006" y="0.712563" width="925.558" height="247.094" filterUnits="userSpaceOnUse" color-interpolation-filters="sRGB">
<feFlood flood-opacity="0" result="BackgroundImageFix"/>
<feBlend mode="normal" in="SourceGraphic" in2="BackgroundImageFix" result="shape"/>
<feGaussianBlur stdDeviation="46.2101" result="effect1_foregroundBlur_438_8931"/>
</filter>
<filter id="filter4_f_438_8931" x="199.857" y="38.5221" width="1010.05" height="196.484" filterUnits="userSpaceOnUse" color-interpolation-filters="sRGB">
<feFlood flood-opacity="0" result="BackgroundImageFix"/>
<feBlend mode="normal" in="SourceGraphic" in2="BackgroundImageFix" result="shape"/>
<feGaussianBlur stdDeviation="33.5183" result="effect1_foregroundBlur_438_8931"/>
</filter>
<linearGradient id="paint0_linear_438_8931" x1="1054.34" y1="153.227" x2="661.611" y2="535.058" gradientUnits="userSpaceOnUse">
<stop stop-color="#6F45EA"/>
<stop offset="0.596154" stop-color="#6F45EA"/>
<stop offset="1" stop-color="#5334B0"/>
</linearGradient>
<linearGradient id="paint1_linear_438_8931" x1="683.614" y1="115.018" x2="683.614" y2="501.749" gradientUnits="userSpaceOnUse">
<stop/>
<stop offset="1"/>
</linearGradient>
<linearGradient id="paint2_linear_438_8931" x1="454.364" y1="144.578" x2="463.997" y2="64.1929" gradientUnits="userSpaceOnUse">
<stop stop-color="#6F45EA"/>
<stop offset="1" stop-color="#5334B0"/>
</linearGradient>
</defs>
</svg>
