<svg width="126" height="126" viewBox="0 0 126 126" fill="none" xmlns="http://www.w3.org/2000/svg">
<path d="M12.8469 76.0292C12.8469 48.0201 32.846 24.9843 58.3419 22.576C59.8612 22.419 61.431 22.3143 63.0008 22.3143C85.5659 22.3143 103.837 40.5857 103.837 63.1503C103.837 85.7146 86.7708 102.73 65.3051 103.881C93.0524 103.201 115.356 79.4324 115.356 50.2188C115.356 35.9263 110.015 22.9949 101.377 13.3618C90.7481 5.19458 77.5034 0.325684 63.0536 0.325684C28.3431 0.325684 0.228577 28.4398 0.228577 63.1503C0.228577 85.8718 12.2708 105.714 30.333 116.761C19.6517 106.918 12.8997 92.3113 12.8997 76.0292H12.8469Z" fill="url(#paint0_linear_438_8938)"/>
<path d="M101.324 13.3102C110.015 22.9433 115.303 35.8745 115.303 50.1673C115.303 79.3807 92.9996 103.149 65.2523 103.83C64.5202 103.83 63.7353 103.882 62.948 103.882C40.3853 103.882 22.112 85.6108 22.112 63.0462C22.112 42.1047 37.9227 24.828 58.2891 22.4721C32.7933 24.9326 12.7941 47.916 12.7941 75.9252C12.7941 92.2073 19.5485 106.814 30.2273 116.657C39.7565 122.468 50.961 125.871 62.948 125.871C97.6585 125.871 125.773 97.7568 125.773 63.0462C125.773 42.7854 116.141 24.7756 101.271 13.2578L101.324 13.3102Z" fill="url(#paint1_linear_438_8938)"/>
<defs>
<linearGradient id="paint0_linear_438_8938" x1="199.644" y1="5.71813" x2="19.8101" y2="66.4485" gradientUnits="userSpaceOnUse">
<stop stop-color="#61ABDE"/>
<stop offset="0.25" stop-color="#8278B3"/>
<stop offset="0.5" stop-color="#985B9E"/>
<stop offset="0.75" stop-color="#D7619D"/>
<stop offset="1" stop-color="#EFBABB"/>
</linearGradient>
<linearGradient id="paint1_linear_438_8938" x1="-3.90711" y1="-0.406532" x2="111.899" y2="107.966" gradientUnits="userSpaceOnUse">
<stop stop-color="#61ABDE"/>
<stop offset="0.25" stop-color="#8278B3"/>
<stop offset="0.5" stop-color="#985B9E"/>
<stop offset="0.75" stop-color="#D7619D"/>
<stop offset="1" stop-color="#EFBABB"/>
</linearGradient>
</defs>
</svg>
