<svg width="16" height="16" viewBox="0 0 16 16" fill="none" xmlns="http://www.w3.org/2000/svg">
<g clip-path="url(#clip0_922_27223)">
<path fill-rule="evenodd" clip-rule="evenodd" d="M11 7C8.5175 7 6.5 9.0165 6.5 11.5C6.5 13.9835 8.5175 16 11 16C13.4825 16 15.5 13.9835 15.5 11.5C15.5 9.0165 13.4825 7 11 7ZM11 8C12.9325 8 14.5 9.56825 14.5 11.5C14.5 13.4318 12.9325 15 11 15C9.0675 15 7.5 13.4318 7.5 11.5C7.5 9.56825 9.0675 8 11 8ZM12.5 6.09075V3.5C12.5 1.567 10.9325 0 9 0C7.445 0 5.555 0 4 0C3.0725 0 2.18252 0.368749 1.52502 1.02525C0.867524 1.6815 0.5 2.57175 0.5 3.5V11.5C0.5 12.4283 0.867524 13.3185 1.52502 13.9747C2.18252 14.6312 3.0725 15 4 15H6.39001C6.66751 15 6.89001 14.776 6.89001 14.5C6.89001 14.224 6.66751 14 6.39001 14C6.39001 14 5.2375 14 4 14C3.3375 14 2.69998 13.7365 2.23248 13.2678C1.76248 12.799 1.5 12.163 1.5 11.5V3.5C1.5 2.837 1.76248 2.201 2.23248 1.73225C2.69998 1.2635 3.3375 1 4 1H9C10.38 1 11.5 2.11925 11.5 3.5V6.09075C11.5 6.36675 11.725 6.59075 12 6.59075C12.275 6.59075 12.5 6.36675 12.5 6.09075ZM12.75 11H11.5V9C11.5 8.724 11.275 8.5 11 8.5C10.725 8.5 10.5 8.724 10.5 9V11.5C10.5 11.7762 10.7225 12 11 12H12.75C13.025 12 13.25 11.776 13.25 11.5C13.25 11.224 13.025 11 12.75 11ZM3.75 10H5.875C6.1525 10 6.375 9.776 6.375 9.5C6.375 9.224 6.1525 9 5.875 9H3.75C3.475 9 3.25 9.224 3.25 9.5C3.25 9.776 3.475 10 3.75 10ZM3.75 8H7.22748C7.50248 8 7.72748 7.776 7.72748 7.5C7.72748 7.224 7.50248 7 7.22748 7H3.75C3.475 7 3.25 7.224 3.25 7.5C3.25 7.776 3.475 8 3.75 8ZM3.75 6H9.25C9.525 6 9.75 5.776 9.75 5.5C9.75 5.224 9.525 5 9.25 5H3.75C3.475 5 3.25 5.224 3.25 5.5C3.25 5.776 3.475 6 3.75 6Z" fill="#536109"/>
</g>
<defs>
<clipPath id="clip0_922_27223">
<rect width="16" height="16" fill="white"/>
</clipPath>
</defs>
</svg>
