<svg width="38" height="38" viewBox="0 0 38 38" fill="none" xmlns="http://www.w3.org/2000/svg">
<path d="M3.8193 22.914C3.8193 14.4362 9.87264 7.4637 17.5897 6.73476C18.0496 6.68723 18.5247 6.65553 18.9999 6.65553C25.8299 6.65553 31.3601 12.1859 31.3601 19.0158C31.3601 25.8456 26.1946 30.9958 19.6973 31.3444C28.0959 31.1384 34.8467 23.9441 34.8467 15.1017C34.8467 10.7756 33.2302 6.86154 30.6154 3.94578C27.3984 1.47372 23.3895 0 19.0159 0C8.5097 0 0 8.5096 0 19.0158C0 25.8932 3.64494 31.899 9.11199 35.2427C5.87898 32.2635 3.83529 27.8423 3.83529 22.914H3.8193Z" fill="url(#paint0_linear_438_7970)"/>
<path d="M30.5994 3.92991C33.2301 6.84567 34.8307 10.7597 34.8307 15.0859C34.8307 23.9282 28.0799 31.1225 19.6813 31.3285C19.4597 31.3285 19.2222 31.3444 18.9839 31.3444C12.1546 31.3444 6.62363 25.814 6.62363 18.9841C6.62363 12.6455 11.4092 7.41612 17.5737 6.70304C9.85663 7.4478 3.80328 14.4045 3.80328 22.8823C3.80328 27.8106 5.8477 32.2317 9.07998 35.2109C11.9643 36.9699 15.3556 37.9999 18.9839 37.9999C29.49 37.9999 37.9997 29.4903 37.9997 18.9841C37.9997 12.8515 35.0842 7.40029 30.5834 3.91406L30.5994 3.92991Z" fill="url(#paint1_linear_438_7970)"/>
<defs>
<linearGradient id="paint0_linear_438_7970" x1="60.3591" y1="1.63219" x2="5.92688" y2="20.014" gradientUnits="userSpaceOnUse">
<stop stop-color="#61ABDE"/>
<stop offset="0.25" stop-color="#8278B3"/>
<stop offset="0.5" stop-color="#985B9E"/>
<stop offset="0.75" stop-color="#D7619D"/>
<stop offset="1" stop-color="#EFBABB"/>
</linearGradient>
<linearGradient id="paint1_linear_438_7970" x1="-1.25182" y1="-0.221876" x2="33.8006" y2="32.5802" gradientUnits="userSpaceOnUse">
<stop stop-color="#61ABDE"/>
<stop offset="0.25" stop-color="#8278B3"/>
<stop offset="0.5" stop-color="#985B9E"/>
<stop offset="0.75" stop-color="#D7619D"/>
<stop offset="1" stop-color="#EFBABB"/>
</linearGradient>
</defs>
</svg>
