<svg width="38" height="38" viewBox="0 0 38 38" fill="none" xmlns="http://www.w3.org/2000/svg">
<path d="M30.7878 4.09424C32.4923 6.30461 36.952 13.2004 33.5586 21.2558C30.6944 28.0581 25.363 30.1051 22.3588 30.7199C21.2925 31.0235 20.164 31.1869 18.9965 31.1869C12.272 31.1869 6.81613 25.731 6.81613 19.0065C6.81613 13.0291 11.1201 8.05579 16.8017 7.02065C12.0541 7.58103 3.87415 12.8657 3.66401 21.5593C3.50056 28.206 6.59042 32.7046 8.52839 34.8683C11.5326 36.8529 15.1284 38.0048 18.9965 38.0048C29.4958 38.0048 38.0027 29.498 38.0027 18.9987C38.0104 12.9669 35.1852 7.58103 30.7878 4.09424Z" fill="url(#paint0_linear_438_8011)"/>
<path d="M3.67346 21.5667C3.8836 12.8653 12.0635 7.58066 16.8112 7.02806C17.5194 6.89575 18.2588 6.83349 19.006 6.83349C25.7305 6.83349 31.1864 12.2894 31.1864 19.0139C31.1864 24.5788 27.4584 29.2641 22.3683 30.7273C25.3647 30.1125 30.7039 28.0655 33.568 21.2632C36.9458 13.2 32.4862 6.30424 30.7895 4.09386C27.5517 1.53325 23.4579 0 19.006 0C8.50671 0 -0.00012207 8.50683 -0.00012207 19.0061C-0.00012207 25.6372 3.39327 31.4745 8.53784 34.8757C6.59987 32.712 3.51002 28.2134 3.67346 21.5667Z" fill="url(#paint1_linear_438_8011)"/>
<defs>
<linearGradient id="paint0_linear_438_8011" x1="41.8951" y1="20.7537" x2="4.10332" y2="21.2215" gradientUnits="userSpaceOnUse">
<stop stop-color="#E4E4E4"/>
<stop offset="1" stop-color="#272727"/>
</linearGradient>
<linearGradient id="paint1_linear_438_8011" x1="38.7436" y1="17.1336" x2="0.451153" y2="17.6006" gradientUnits="userSpaceOnUse">
<stop stop-color="#272727"/>
<stop offset="1" stop-color="#E4E4E4"/>
</linearGradient>
</defs>
</svg>
