<svg width="24" height="24" viewBox="0 0 24 24" fill="none" xmlns="http://www.w3.org/2000/svg">
<path d="M16.186 2H7.814C4.174 2 2 4.173 2 7.814V16.186C2 19.827 4.174 22 7.814 22H16.186C19.826 22 22 19.827 22 16.186V7.814C22 4.173 19.826 2 16.186 2ZM7.675 5.5C7.675 5.30109 7.75402 5.11032 7.89467 4.96967C8.03532 4.82902 8.22609 4.75 8.425 4.75C8.62391 4.75 8.81468 4.82902 8.95533 4.96967C9.09598 5.11032 9.175 5.30109 9.175 5.5V9.4C9.175 9.59891 9.09598 9.78968 8.95533 9.93033C8.81468 10.071 8.62391 10.15 8.425 10.15C8.22609 10.15 8.03532 10.071 7.89467 9.93033C7.75402 9.78968 7.675 9.59891 7.675 9.4V5.5ZM9.175 16.557V18.5C9.175 18.6989 9.09598 18.8897 8.95533 19.0303C8.81468 19.171 8.62391 19.25 8.425 19.25C8.22609 19.25 8.03532 19.171 7.89467 19.0303C7.75402 18.8897 7.675 18.6989 7.675 18.5V16.557C7.04327 16.3761 6.49816 15.9731 6.1401 15.4221C5.78203 14.8711 5.63512 14.2093 5.72644 13.5586C5.81775 12.9078 6.14114 12.312 6.63702 11.8808C7.13291 11.4497 7.76789 11.2122 8.425 11.2122C9.08211 11.2122 9.7171 11.4497 10.213 11.8808C10.7089 12.312 11.0322 12.9078 11.1236 13.5586C11.2149 14.2093 11.068 14.8711 10.7099 15.4221C10.3518 15.9731 9.80674 16.3761 9.175 16.557ZM16.325 18.5C16.325 18.6989 16.246 18.8897 16.1053 19.0303C15.9647 19.171 15.7739 19.25 15.575 19.25C15.3761 19.25 15.1853 19.171 15.0447 19.0303C14.904 18.8897 14.825 18.6989 14.825 18.5V14.6C14.825 14.4011 14.904 14.2103 15.0447 14.0697C15.1853 13.929 15.3761 13.85 15.575 13.85C15.7739 13.85 15.9647 13.929 16.1053 14.0697C16.246 14.2103 16.325 14.4011 16.325 14.6V18.5ZM15.575 12.775C14.9188 12.7763 14.2843 12.5401 13.7886 12.1102C13.2929 11.6802 12.9695 11.0854 12.8781 10.4356C12.7867 9.7858 12.9335 9.12487 13.2913 8.57483C13.6492 8.02479 14.1939 7.62278 14.825 7.443V5.5C14.825 5.30109 14.904 5.11032 15.0447 4.96967C15.1853 4.82902 15.3761 4.75 15.575 4.75C15.7739 4.75 15.9647 4.82902 16.1053 4.96967C16.246 5.11032 16.325 5.30109 16.325 5.5V7.443C16.9561 7.62278 17.5008 8.02479 17.8587 8.57483C18.2165 9.12487 18.3633 9.7858 18.2719 10.4356C18.1805 11.0854 17.8571 11.6802 17.3614 12.1102C16.8657 12.5401 16.2312 12.7763 15.575 12.775Z" fill="white"/>
</svg>
