<svg width="24" height="24" viewBox="0 0 24 24" fill="none" xmlns="http://www.w3.org/2000/svg">
<path d="M10.4906 16.5159L10.1134 15.4696C9.84562 14.7256 9.26512 14.1451 8.52187 13.8781L7.47487 13.5009C6.84412 13.2751 6.41512 12.6699 6.41287 11.9941C6.41062 11.3184 6.83512 10.7086 7.47037 10.4784L7.72537 10.3861L2.86012 7.57812C2.86012 7.58113 2.85938 7.58338 2.85938 7.58563V16.4109C2.85938 16.9471 3.14512 17.4421 3.60937 17.7099L11.2526 22.1236V17.3724C10.9099 17.1886 10.6279 16.8976 10.4906 16.5159Z" fill="white"/>
<path d="M21.1425 7.58203L16.2772 10.39L16.527 10.48C17.1675 10.7133 17.592 11.3223 17.5897 11.998C17.5875 12.673 17.1585 13.279 16.5233 13.5063L15.4822 13.882C14.7382 14.149 14.1577 14.7295 13.8892 15.4735L13.5128 16.5198C13.3755 16.9008 13.0935 17.1918 12.75 17.3763V22.1275L20.3932 17.7145C20.8575 17.4468 21.1432 16.951 21.1432 16.4155V7.58953C21.144 7.58728 21.1425 7.58503 21.1425 7.58203Z" fill="white"/>
<path d="M10.1137 8.51034L10.4902 7.46409C10.7197 6.82884 11.3272 6.40134 12.0029 6.40134C12.6787 6.40134 13.2862 6.82809 13.5149 7.46409L13.8922 8.51034C14.0467 8.94009 14.3152 9.30534 14.6504 9.59709L20.3887 6.28509L12.7529 1.87659C12.2887 1.60884 11.7172 1.60884 11.2529 1.87659L3.61719 6.28509L9.35544 9.59709C9.69069 9.30534 9.95919 8.94009 10.1137 8.51034Z" fill="white"/>
<path d="M14.9764 12.4702L16.0227 12.093C16.1172 12.0592 16.1172 11.925 16.0227 11.8912L14.9764 11.514C13.8147 11.0955 12.9004 10.1812 12.4819 9.01947L12.1047 7.97322C12.0709 7.87872 11.9367 7.87872 11.9029 7.97322L11.5257 9.01947C11.1072 10.1812 10.1929 11.0955 9.03119 11.514L7.98494 11.8912C7.89044 11.925 7.89044 12.0592 7.98494 12.093L9.03119 12.4702C10.1929 12.8887 11.1072 13.803 11.5257 14.9647L11.9029 16.011C11.9367 16.1055 12.0709 16.1055 12.1047 16.011L12.4819 14.9647C12.9004 13.803 13.8147 12.8887 14.9764 12.4702Z" fill="white"/>
</svg>
