<svg width="24" height="24" viewBox="0 0 24 24" fill="none" xmlns="http://www.w3.org/2000/svg">
<path d="M20.0001 15.9997C19.4001 15.9997 18.8001 16.1997 18.3001 16.5997L15.9001 15.0997C16.0001 14.6997 16.1001 14.3997 16.1001 13.9997C16.1001 12.1997 14.9001 10.5997 13.1001 10.0997V7.79966C14.7001 7.19966 15.5001 5.49966 14.9001 3.99966C14.3001 2.49966 12.6001 1.59966 11.0001 2.19966C9.40006 2.79966 8.60006 4.39966 9.20006 5.99966C9.50006 6.89966 10.2001 7.49966 11.0001 7.79966V10.0997C9.20006 10.5997 8.00006 12.0997 8.00006 13.9997C8.00006 14.3997 8.10006 14.6997 8.20006 15.0997L5.80006 16.5997C4.40006 15.5997 2.60006 15.9997 1.60006 17.2997C0.60006 18.5997 1.00006 20.4997 2.30006 21.4997C3.70006 22.4997 5.50006 22.0997 6.50006 20.7997C6.80006 20.1997 7.00006 19.5997 7.00006 18.9997C7.00006 18.6997 7.00006 18.4997 6.90006 18.1997L9.20006 16.7997C10.8001 18.3997 13.3001 18.3997 14.8001 16.7997L17.1001 18.1997C17.0001 18.4997 17.0001 18.6997 17.0001 18.9997C17.0001 20.6997 18.3001 21.9997 20.0001 21.9997C21.7001 21.9997 23.0001 20.6997 23.0001 18.9997C23.0001 17.2997 21.7001 15.9997 20.0001 15.9997Z" fill="white"/>
</svg>
