<svg width="24" height="24" viewBox="0 0 24 24" fill="none" xmlns="http://www.w3.org/2000/svg">
<path d="M10.245 8.05469C5.72019 8.05469 2.00004 11.1662 2.00004 14.991C2.00004 16.5198 2.59306 18.0736 3.6806 19.2779L2.14486 21.0329C1.99375 21.2058 1.9571 21.4513 2.05272 21.6608C2.14775 21.8703 2.3561 22.0048 2.58619 22.0048H10.8311C14.1719 22.0048 18.4899 19.128 18.4899 14.991C18.4899 11.1662 14.7697 8.05469 10.245 8.05469ZM6.68909 16.0653C6.04284 16.0653 5.51684 15.5393 5.51684 14.8931C5.51684 14.2468 6.04288 13.7208 6.68909 13.7208C7.33529 13.7208 7.86134 14.2469 7.86134 14.8931C7.86138 15.5393 7.33533 16.0653 6.68909 16.0653ZM10.245 16.0653C9.59871 16.0653 9.07271 15.5393 9.07271 14.8931C9.07271 14.2468 9.59875 13.7208 10.245 13.7208C10.8912 13.7208 11.4172 14.2469 11.4172 14.8931C11.4172 15.5393 10.8912 16.0653 10.245 16.0653ZM13.8008 16.0653C13.1546 16.0653 12.6286 15.5393 12.6286 14.8931C12.6286 14.2468 13.1546 13.7208 13.8008 13.7208C14.447 13.7208 14.9731 14.2469 14.9731 14.8931C14.9731 15.5393 14.4471 16.0653 13.8008 16.0653Z" fill="white"/>
<path d="M21.8564 13.9231L20.4764 12.3129C21.4615 11.2014 21.9979 9.84587 21.9979 8.44354C21.9978 4.88841 18.5795 1.99609 14.3781 1.99609C10.5789 1.99609 7.35118 4.36369 6.78125 7.44529C7.84131 7.08509 9.03013 6.88033 10.2361 6.88033C15.3689 6.88033 19.586 10.4654 19.6476 14.891H21.4117C21.9124 14.891 22.1813 14.3014 21.8564 13.9231Z" fill="white"/>
</svg>
